<?xml version="1.0" encoding="utf-8"?>
<!-- Generator: Adobe Illustrator 23.0.1, SVG Export Plug-In . SVG Version: 6.00 Build 0)  -->
<svg version="1.1" id="Layer_1" xmlns="http://www.w3.org/2000/svg" xmlns:xlink="http://www.w3.org/1999/xlink" x="0px" y="0px"
	 viewBox="0 0 89.73 127.16" style="enable-background:new 0 0 89.73 127.16;" xml:space="preserve">
<style type="text/css">
	.st0{fill:#EBB6D3;}
	.st1{fill:#B6B9AA;}
	.st2{fill:#F0F3F9;}
	.st3{fill:#DEE6F4;}
	.st4{fill:#FAA919;}
	.st5{fill:#F28195;}
	.st6{fill:#EF4F70;}
	.st7{fill:#EAC0D3;}
	.st8{fill:#CDA6C0;}
	.st9{fill:#FBF7C3;}
	.st10{fill:#EBF1C3;}
	.st11{fill:#ACA3CF;}
	.st12{fill:#EBE60E;}
	.st13{fill:#36C5F3;}
	.st14{fill:#90CEA6;}
	.st15{fill:#8E4C26;}
	.st16{fill:#DC3D3E;}
	.st17{fill:#E3D2A6;}
	.st18{clip-path:url(#SVGID_2_);}
	.st19{fill:#FFFFFF;}
	.st20{opacity:0.3;}
	.st21{fill:#C0272D;}
	.st22{fill:#C7892B;}
	.st23{fill:#F0B12F;}
	.st24{fill:#B47B2C;}
	.st25{fill:#DB9F32;}
	.st26{opacity:0.56;fill:#7F5522;}
	.st27{fill:none;}
	.st28{fill:#F5BB53;}
	.st29{fill:#8C5D25;}
	.st30{fill:#A2712A;}
	.st31{fill:none;stroke:#A2712A;stroke-width:0.5;stroke-linejoin:round;stroke-miterlimit:10;}
	.st32{fill:#81A781;}
	.st33{fill:#F8F2E9;}
	.st34{clip-path:url(#SVGID_4_);}
	.st35{fill:#8ED5E9;}
	.st36{fill:#24A9E1;}
	.st37{fill:#3388C8;}
	.st38{fill-rule:evenodd;clip-rule:evenodd;fill:#E594BF;}
	.st39{fill-rule:evenodd;clip-rule:evenodd;fill:#F1D0E3;}
	.st40{fill-rule:evenodd;clip-rule:evenodd;fill:#EEDFED;}
	.st41{fill-rule:evenodd;clip-rule:evenodd;fill:#FFF584;}
	.st42{fill-rule:evenodd;clip-rule:evenodd;fill:#FFFFFF;}
	.st43{fill:#85CCC8;}
	.st44{fill:#BDE3DF;}
	.st45{fill-rule:evenodd;clip-rule:evenodd;fill:#99A96C;}
	.st46{opacity:0.28;fill-rule:evenodd;clip-rule:evenodd;fill:#727964;}
	.st47{fill-rule:evenodd;clip-rule:evenodd;fill:#E5E1DC;}
	.st48{fill-rule:evenodd;clip-rule:evenodd;fill:#F2F0ED;}
	.st49{fill-rule:evenodd;clip-rule:evenodd;fill:#F9F8D3;}
	.st50{fill-rule:evenodd;clip-rule:evenodd;fill:#F6F5F3;}
	.st51{fill-rule:evenodd;clip-rule:evenodd;fill:#74AA6D;}
	.st52{fill:#FFF2D3;}
	.st53{fill:#EEE2C9;}
	.st54{fill:#F5E5C5;}
	.st55{fill:#B76E29;}
	.st56{fill:#FBB458;}
	.st57{fill:#4CB75A;}
	.st58{fill:#F79A2F;}
	.st59{fill:#F89A2F;}
	.st60{fill:#F89B2F;}
	.st61{fill:url(#SVGID_5_);}
	.st62{fill:url(#SVGID_6_);}
	.st63{clip-path:url(#SVGID_8_);fill:url(#SVGID_9_);}
	.st64{clip-path:url(#SVGID_8_);}
	.st65{fill:url(#SVGID_10_);}
	.st66{opacity:0.14;fill:#FFFFFF;}
	.st67{fill:url(#SVGID_11_);}
	.st68{opacity:0.14;clip-path:url(#SVGID_8_);fill:#FFFFFF;}
	.st69{fill:#F1F1F1;}
	.st70{opacity:0.4;}
	.st71{fill:url(#SVGID_12_);}
	.st72{fill:url(#SVGID_13_);}
	.st73{fill:url(#SVGID_14_);}
	.st74{fill:url(#SVGID_15_);}
</style>
<g>
	<path class="st52" d="M24.05,44.08c11.97,8.03,26.39,13.4,41.65,16.13L89.73,0L-0.01,16.14C4.06,26.38,12.08,36.05,24.05,44.08z"/>
	<polygon class="st53" points="65.69,127.16 89.73,66.95 89.73,0 65.69,60.21 	"/>
	<path class="st54" d="M65.69,127.09c-15.25-2.73-29.68-8.1-41.65-16.13C12.08,102.93,4.06,93.25-0.01,83.02V16.06v0.07
		c4.07,10.24,12.09,19.91,24.06,27.95c11.97,8.03,26.39,13.4,41.65,16.13V127.09z"/>
	<g>
		<polygon class="st55" points="89.73,38.38 89.73,20.07 69,71.99 69,90.3 		"/>
		<polygon class="st55" points="89.73,66.88 89.73,48.56 69,100.48 69,118.8 		"/>
	</g>
	<g>
		<path class="st56" d="M46.75,23.08 M53.07,24.93 M46.75,23.08c1.14-0.69,2.32-1.3,3.53-1.87c1.22-0.58,2.45-1.1,3.71-1.59
			c0.38-0.15,2.02-0.74,2.46-0.89c1.22-0.41,2.45-0.78,3.7-1.09c0.86-0.21,1.72-0.4,2.6-0.48c0.36-0.03,0.72-0.06,1.08,0.01
			c0.27,0.06,0.36,0.17,0.33,0.45c-0.03,0.31-0.17,0.59-0.33,0.85c-0.45,0.76-0.99,1.45-1.56,2.13c-1.35,1.59-2.83,3.06-4.37,4.46
			c-1.7,1.54-3.47,3-5.34,4.33c-1.54,1.1-3.14,2.12-4.86,2.93c-1.14,0.53-2.3,0.98-3.57,1.09c-1.11,0.1-2.09-0.14-2.84-1.03
			c-0.18-0.31-0.39-0.62-0.51-0.97c-0.06-0.19-0.12-0.37-0.19-0.56c0-0.06,0-0.12-0.01-0.18c-0.07-0.58-0.02-1.14,0.17-1.7
			c0.35-1.04,0.99-1.88,1.73-2.65c0.69-0.72,1.47-1.35,2.28-1.93C45.1,24.12,46.3,23.35,46.75,23.08"/>
		<path class="st57" d="M41.26,32.38c-0.18-0.31-0.39-0.62-0.51-0.97c-0.06-0.19-0.12-0.37-0.19-0.56
			c-1.28,0.63-2.61,1.16-3.84,1.89c-1.25,0.74-2.29,1.69-2.89,3.04c-0.42,0.94-0.69,1.92-0.64,2.96c0.07,1.29,0.82,2.08,2.1,2.24
			c0.93,0.12,1.8-0.08,2.64-0.5c0.55-0.28,0.82-0.74,0.92-1.32c0.14-0.79,0.27-1.58,0.42-2.36c0.3-1.52,0.84-2.94,1.78-4.19
			C41.12,32.53,41.2,32.46,41.26,32.38z"/>
		<g>
			<path class="st58" d="M45.88,23.62c-0.11,0.56-0.06,1.12,0.03,1.68c0.1,0.6,0.32,1.15,0.65,1.67c0.22,0.35,0.51,0.63,0.82,0.9
				c0.03,0.02,0.07,0.06,0.11,0.03c0.04-0.03,0.01-0.07,0.01-0.11c-0.17-0.8-0.35-1.6-0.47-2.4c-0.11-0.67-0.18-1.34-0.21-2.01
				c0-0.1,0.02-0.21-0.07-0.28c-0.02,0.01-0.03,0.02-0.05,0.03c-0.01,0.01-0.03,0.02-0.04,0.02C46.39,23.28,46.12,23.43,45.88,23.62
				z"/>
			<path class="st59" d="M51.78,20.72c-0.19,0.41-0.21,0.84-0.21,1.27c0.01,0.79,0.27,1.5,0.66,2.16c0.19,0.32,0.44,0.6,0.69,0.87
				c0.03,0.04,0.08,0.09,0.14,0.05c0.05-0.03,0.01-0.09-0.01-0.13c-0.18-0.4-0.34-0.8-0.49-1.21c-0.24-0.65-0.45-1.3-0.59-1.97
				C51.91,21.41,51.92,21.05,51.78,20.72z"/>
			<path class="st60" d="M52.08,28.11c-0.78-1.22-1.58-2.42-2.28-3.7C49.59,25.4,51.03,27.73,52.08,28.11z"/>
			<path class="st60" d="M55.13,19.21c0.01,0.45,0.11,0.88,0.26,1.29c0.22,0.61,0.54,1.17,0.96,1.67c0.22,0.26,0.48,0.46,0.72,0.69
				c0.03,0.02,0.06,0.04,0.09,0.01c0.04-0.04,0.01-0.08-0.01-0.11c-0.11-0.19-0.21-0.39-0.33-0.58c-0.32-0.53-0.6-1.08-0.91-1.62
				C55.66,20.12,55.39,19.66,55.13,19.21C55.13,19.21,55.13,19.21,55.13,19.21z"/>
		</g>
	</g>
</g>
</svg>
