<?xml version="1.0" encoding="utf-8"?>
<!-- Generator: Adobe Illustrator 23.0.1, SVG Export Plug-In . SVG Version: 6.00 Build 0)  -->
<svg version="1.1" id="Layer_1" xmlns="http://www.w3.org/2000/svg" xmlns:xlink="http://www.w3.org/1999/xlink" x="0px" y="0px"
	 viewBox="0 0 90.11 130.65" style="enable-background:new 0 0 90.11 130.65;" xml:space="preserve">
<style type="text/css">
	.st0{fill:#EBB6D3;}
	.st1{fill:#B6B9AA;}
	.st2{fill:#F0F3F9;}
	.st3{fill:#DEE6F4;}
	.st4{fill:#FAA919;}
	.st5{fill:#F28195;}
	.st6{fill:#EF4F70;}
	.st7{fill:#EAC0D3;}
	.st8{fill:#CDA6C0;}
	.st9{fill:#FBF7C3;}
	.st10{fill:#EBF1C3;}
	.st11{fill:#ACA3CF;}
	.st12{fill:#EBE60E;}
	.st13{fill:#36C5F3;}
	.st14{fill:#90CEA6;}
	.st15{fill:#8E4C26;}
	.st16{fill:#DC3D3E;}
	.st17{fill:#E3D2A6;}
	.st18{clip-path:url(#SVGID_2_);}
	.st19{fill:#FFFFFF;}
	.st20{opacity:0.3;}
	.st21{fill:#C0272D;}
	.st22{fill:#C7892B;}
	.st23{fill:#F0B12F;}
	.st24{fill:#B47B2C;}
	.st25{fill:#DB9F32;}
	.st26{opacity:0.56;fill:#7F5522;}
	.st27{fill:none;}
	.st28{fill:#F5BB53;}
	.st29{fill:#8C5D25;}
	.st30{fill:#A2712A;}
	.st31{fill:none;stroke:#A2712A;stroke-width:0.5;stroke-linejoin:round;stroke-miterlimit:10;}
	.st32{fill:#81A781;}
	.st33{fill:#F8F2E9;}
	.st34{clip-path:url(#SVGID_4_);}
	.st35{fill:#8ED5E9;}
	.st36{fill:#24A9E1;}
	.st37{fill:#3388C8;}
	.st38{fill-rule:evenodd;clip-rule:evenodd;fill:#E594BF;}
	.st39{fill-rule:evenodd;clip-rule:evenodd;fill:#F1D0E3;}
	.st40{fill-rule:evenodd;clip-rule:evenodd;fill:#EEDFED;}
	.st41{fill-rule:evenodd;clip-rule:evenodd;fill:#FFF584;}
	.st42{fill-rule:evenodd;clip-rule:evenodd;fill:#FFFFFF;}
	.st43{fill:#85CCC8;}
	.st44{fill:#BDE3DF;}
	.st45{fill-rule:evenodd;clip-rule:evenodd;fill:#99A96C;}
	.st46{opacity:0.28;fill-rule:evenodd;clip-rule:evenodd;fill:#727964;}
	.st47{fill-rule:evenodd;clip-rule:evenodd;fill:#E5E1DC;}
	.st48{fill-rule:evenodd;clip-rule:evenodd;fill:#F2F0ED;}
	.st49{fill-rule:evenodd;clip-rule:evenodd;fill:#F9F8D3;}
	.st50{fill-rule:evenodd;clip-rule:evenodd;fill:#F6F5F3;}
	.st51{fill-rule:evenodd;clip-rule:evenodd;fill:#74AA6D;}
	.st52{fill:#FFF2D3;}
	.st53{fill:#EEE2C9;}
	.st54{fill:#F5E5C5;}
	.st55{fill:#B76E29;}
	.st56{fill:#FBB458;}
	.st57{fill:#4CB75A;}
	.st58{fill:#F79A2F;}
	.st59{fill:#F89A2F;}
	.st60{fill:#F89B2F;}
	.st61{fill:url(#SVGID_5_);}
	.st62{fill:url(#SVGID_6_);}
	.st63{clip-path:url(#SVGID_8_);fill:url(#SVGID_9_);}
	.st64{clip-path:url(#SVGID_8_);}
	.st65{fill:url(#SVGID_10_);}
	.st66{opacity:0.14;fill:#FFFFFF;}
	.st67{fill:url(#SVGID_11_);}
	.st68{opacity:0.14;clip-path:url(#SVGID_8_);fill:#FFFFFF;}
	.st69{fill:#F1F1F1;}
	.st70{opacity:0.4;}
	.st71{fill:url(#SVGID_12_);}
	.st72{fill:url(#SVGID_13_);}
	.st73{fill:url(#SVGID_14_);}
	.st74{fill:url(#SVGID_15_);}
</style>
<g>
	<g>
		<defs>
			<path id="SVGID_3_" d="M-109.3,20.14l65.69,44.08C-19.31,47.91-11.29,24.8-19.56,4L-109.3,20.14z"/>
		</defs>
		<clipPath id="SVGID_2_">
			<use xlink:href="#SVGID_3_"  style="overflow:visible;"/>
		</clipPath>
		<g class="st18">
			<path class="st35" d="M21.73-72.68c0.67,0,1.34,0,2.02,0c-0.07,0.09-0.14,0.19-0.22,0.28c-0.87,1-1.72,2.03-2.28,3.25
				c-0.82,0.86-1.38,1.9-2.01,2.89c-0.29,0.46-0.68,0.89-0.56,1.51c0.17,0.74,0.85,0.78,1.39,0.95c0.97,0.3,2,0.14,2.98,0.32
				c1.46,0.26,2.94,0.48,4.34,1.01c0.29,0.33,0.67,0.45,1.09,0.49c0.08,0.13,0.2,0.2,0.34,0.23c0.58,0.44,1.24,0.36,1.9,0.31
				c0.05-0.03,0.1-0.06,0.15-0.09c0.03,0,0.06-0.01,0.08-0.02c0.6-0.11,1.2-0.23,1.8-0.34c0,1.74,0,3.48,0,5.22
				c-0.92-0.45-1.88-0.66-2.83-0.16c-0.87,0.46-1.63,1.11-2.31,1.82c-1.03,1.09-1.91,2.29-2.76,3.52c-1.05,1.51-0.91,2.78,0.65,3.81
				c1.17,0.77,2.45,1.35,3.73,1.9c1.14,0.49,2.28,0.97,3.51,1.19c0,0.43,0,0.87,0,1.3c-0.98-0.09-1.88-0.44-2.75-0.86
				c-2.54-1.23-5.06-2.49-7.78-3.28c-1.5-0.44-3-0.65-4.54-0.38c-0.63,0.04-1.27,0.06-1.88,0.26c-1.29,0.17-2.57,0.36-3.81,0.74
				c-2.56,0.78-5.11,1.61-7.84,0.95c-1.78-0.39-3.51-0.5-5.06,0.72c-1.08,0.64-1.8,1.69-2.78,2.44c-0.94,0.72-1.87,1.42-3.15,1.17
				c-1.03-0.2-2.08-0.27-3.12-0.19c-1.92,0.14-3.55,0.84-4.79,2.42c-0.92,1.17-1.64,2.5-2.78,3.5c-0.68,0.46-1.44,0.61-2.25,0.59
				c-0.83-0.13-1.54-0.55-2.29-0.9c-0.89-0.42-1.81-0.77-2.83-0.54c-0.69,0.04-1.34,0.24-1.98,0.5c-0.9,0.15-1.72,0.55-2.57,0.85
				c-1.1,0.38-2.22,0.7-3.36,0.9c-1.5,0.27-3.02,0.27-4.54,0.26c-0.98-0.08-1.95-0.15-2.93-0.23c-0.13-0.04-0.26-0.11-0.39-0.13
				c-1.85-0.25-3.67-0.64-5.47-1.14c-1.39-0.38-2.81-0.62-4.26-0.51c-0.33,0.03-0.66,0.07-0.99,0.1c-1.51,0.1-2.97,0.37-4.22,1.29
				c-1.81,1.36-1.68,2.81-0.57,4.33c0.43,0.59,0.95,1.1,1.48,1.61c1.07,1.03,2.07,2.11,2.65,3.52c0.8,1.95,0.1,3.97-2.04,4.46
				c-1.28,0.3-2.58,0.47-3.86,0.79c-1.03,0.26-2.01,0.63-2.99,0.97c-1.19,0.41-2.33,1.01-3.44,1.64c-0.23,0.14-0.46,0.27-0.69,0.41
				c-0.04,0.03-0.07,0.06-0.11,0.09l0,0.01c-1,0.39-1.84,1.04-2.64,1.74c-0.45,0.29-0.86,0.64-1.19,1.06
				c-0.39,0.48-0.28,0.96,0.26,1.14c0.35,0.12,0.72,0.18,1.1,0.16c2.04-0.15,4.08-0.29,6.12-0.44c0.87,0.18,1.75,0.19,2.62,0
				c0.07-0.01,0.14-0.02,0.21-0.03c1.7,0.01,3.31-0.42,4.88-1.02c0.35-0.13,0.72-0.27,0.96,0.1c0.24,0.37-0.1,0.62-0.32,0.85
				c-0.93,0.99-2.09,1.68-3.22,2.38c-2.01,1.25-4.12,2.31-6.32,3.17c-0.2,0.08-0.4,0.16-0.6,0.24c-1.8,0.69-3.68,1.14-5.53,1.68
				c-1.03,0.25-2.03,0.6-2.9,1.21c-0.55,0.39-1.04,0.85-0.9,1.64c0,0.11,0.01,0.22,0.01,0.32c0.03,0.05,0.06,0.1,0.08,0.14
				c0.28,0.59,0.79,0.94,1.29,1.31c0.7,0.66,1.45,1.27,2.28,1.77c0.22,0.13,0.46,0.21,0.72,0.25c1.8,0.29,3.42-0.36,5.03-0.97
				c1.21-0.46,2.03-1.45,2.95-2.33c0.99-0.95,2.06-1.71,3.59-1.25c0.48,0.14,1.02,0.08,1.52-0.06c0.45-0.13,0.92-0.22,1.38-0.32
				c0.79-0.16,1.48,0.02,2.05,0.63c0.23,0.24,0.34,0.59,0.66,0.74c0.74,0.78,1.37,0.89,2.26,0.36c0.23-0.03,0.39-0.19,0.56-0.31
				c1.47-1.05,2.91-2.16,4.42-3.17c1.95-1.29,3.92-2.57,6.02-3.62c1.22-0.61,2.47-1.09,3.9-1c1.32,0.08,2.63,0.14,3.94,0.34
				c1.04,0.16,1.96-0.07,2.6-0.99c1.03-1.47,1.97-3,2.61-4.69c0.09-0.53,0.48-0.96,0.49-1.51c0.42-1.34,0.63-2.71,0.6-4.11
				c-0.02-1.09,0.4-1.9,1.46-2.33c0.7-0.28,1.4-0.47,2.16-0.51c0.91-0.05,1.79-0.22,2.62-0.62c0.67-0.32,1.21-0.88,1.95-1.07
				c1.42-0.68,2.94-0.96,4.47-1.25c0.05-0.03,0.09-0.05,0.14-0.08l0,0c0.74-0.1,1.48-0.19,2.22-0.29c2.22-0.29,4.08-1.39,5.91-2.57
				c1.12-0.73,2.26-1.43,3.4-2.14c1.43-0.88,2.92-1.63,4.48-2.24c0.61-0.12,1.2-0.33,1.76-0.6c0.04-0.04,0.08-0.07,0.13-0.11l0,0
				c0.65-0.08,1.2-0.45,1.79-0.67c1.2-0.46,2.31-0.43,3.35,0.36c0.52,0.39,1.03,0.79,1.51,1.23c1.52,1.38,3.17,2.41,5.34,2.18
				c1.39,0.04,2.76-0.21,4.13-0.38c0.26,0,0.52,0.04,0.77-0.01c2.42-0.46,4.84-0.81,7.32-0.7c0.51,0,1.03,0.01,1.54,0.01
				c0,0.4,0,0.79,0,1.19c-0.26-0.15-0.55-0.13-0.83-0.12c-1.27-0.04-2.52,0.13-3.77,0.26c-0.85-0.02-1.68,0.13-2.5,0.32
				c-2.43,0.56-4.87,1.05-7.38,0.98c-0.59-0.01-1.17-0.04-1.75-0.14c-0.46-0.09-0.93-0.14-1.37-0.28c-1.54-0.47-3.06-0.98-4.53-1.65
				c-1.2-0.55-2.45-0.67-3.72-0.2c-1.49,0.28-2.82,0.95-4.14,1.65c-0.08,0.04-0.16,0.08-0.24,0.13c-0.04,0.03-0.08,0.07-0.12,0.1
				C2.27-31.04,2.12-31.03,2-30.96C0.45-30.1-1.09-29.2-2.57-28.2c-0.84,0.54-1.68,1.08-2.52,1.63c-0.46,0.29-0.93,0.58-1.39,0.87
				c-1.76,1.12-3.66,1.57-5.72,1.17c-0.41-0.15-0.83-0.28-1.28-0.26c-0.2-0.13-0.41-0.15-0.61,0c-0.01,0.08-0.02,0.16-0.03,0.24
				c-0.1,0-0.21,0-0.31-0.01c-0.36-0.22-0.71-0.11-1.06,0.04c-1.64,0.38-3.17,1.07-4.66,1.82c-0.44,0.22-0.77,0.59-0.87,1.07
				c-0.23,1.02-0.48,2.03-0.77,3.03c-0.15,0.26-0.32,0.51-0.35,0.82c-0.54,0.41-0.64,1.07-0.91,1.63c-0.76,1.58-1.54,3.15-1.89,4.9
				c-0.21,1.05,0,1.75,0.71,2.12c0.45,0.23,0.93,0.15,1.39,0.07c1.59-0.28,2.82-1.29,4.13-2.12c1.94-1.21,3.81-2.53,5.99-3.32
				c0.56-0.2,1.16-0.24,1.68-0.54c0.09,0.01,0.18,0.02,0.27,0.03c0.25,0.1,0.5,0.11,0.75-0.03c0.23,0,0.46,0,0.68,0
				c0.19,0.14,0.4,0.1,0.61,0.09c0.56,0.02,1.01,0.35,1.53,0.49c0.48,0.26,0.98,0.51,1.45,0.79c2.15,1.27,4.24,0.98,6.33-0.18
				c1.76-0.98,3.31-2.26,4.96-3.41c1.42-0.99,2.83-2.03,4.49-2.59c2.87-0.96,5.81-1.57,8.82-1.84c1.07-0.1,2.09-0.38,3.03-0.92
				c0.56-0.23,1.09-0.52,1.51-0.98c0.11-0.08,0.23-0.15,0.33-0.24c1.22-1.13,2.24-2.43,3.24-3.76c0.68-0.91,1.55-1.6,2.59-2.11
				c1.1-0.53,2.27-0.93,3.23-1.71c0,0.59,0,1.19,0,1.78c-0.32,0.16-0.64,0.3-0.95,0.48c-1.61,0.93-2.62,2.41-3.54,3.96
				c-0.17,0.29-0.42,0.56,0.01,0.85c0.12,0.08,0.1,0.25,0.01,0.38c-0.08,0.12-0.19,0.12-0.31,0.03c-0.16-0.12-0.28-0.34-0.52-0.04
				c-0.24,0.3-0.08,0.47,0.17,0.67c-0.6,0.01-1.36,0.6-1.36,1.06c0,0.61,0.5,0.75,0.97,0.87c0.68,0.19,1.38,0.31,2.09,0.39
				c0.66,0.09,1.31,0.3,1.99,0.26c0.47,0.14,0.95,0.21,1.44,0.23c0,1.11,0,2.21,0,3.32c-0.21-0.05-0.42-0.09-0.62-0.15
				c-1.2-0.41-2.42-0.75-3.66-1.02c-1.59-0.43-3.2-0.8-4.84-0.97c-0.18-0.16-0.41-0.09-0.61-0.1c-0.11-0.01-0.22-0.01-0.33-0.02
				c-0.14-0.14-0.32-0.11-0.49-0.09c-0.07,0.01-0.14,0.01-0.21,0.02c-0.33-0.05-0.66-0.14-0.99-0.16c-3.16-0.12-6.31-0.03-9.34,1.05
				c-1.48,0.53-2.99,1-4.28,1.94c-0.94,0.69-0.85,1.87,0.13,2.52c1.01,0.67,2.19,0.88,3.28,1.32c0.44,0.17,0.71,0.39,0.68,0.89
				c-0.12,0.16-0.23,0.31-0.35,0.47c-0.54,0.72-1.14,1.4-1.25,2.34C9.74-8.99,9.75-8.82,9.78-8.65c0,0.15,0,0.31,0.01,0.46
				c0.11,1.03,0.6,1.86,1.41,2.5c0.35,0.34,0.73,0.62,1.16,0.84c0.15,0.09,0.29,0.21,0.45,0.28c2.47,1.09,4.97,1.3,7.59,0.48
				c2.71-0.84,5.42-1.69,8.21-2.23c1.37-0.26,2.76-0.4,4.15-0.55c0,0.87,0,1.74,0,2.61c-1.3,0.01-2.6-0.11-3.89,0
				c-1.88,0.16-3.7,0.55-5.33,1.56c-2.4,1.48-3.63,3.75-4.29,6.4c-0.2,0.51-0.49,0.98-0.61,1.52c-0.24,0.25-0.35,0.57-0.48,0.87
				c-0.5,1.11-0.27,2.38,0.61,3.2c1.02,0.96,2.25,1.52,3.62,1.74c1.28,0.2,2.57,0.32,3.85,0.47c0.93,0.25,1.73-0.06,2.47-0.59
				c1.26-0.71,2.62-1.11,4.05-1.3c0,0.47,0,0.95,0,1.42c-1.2,0.36-2.02,1.28-2.96,2.03c-0.19,0.13-0.38,0.27-0.57,0.4
				c-0.62,0.42-1.22,0.9-2.03,0.89c-1.91-1.05-4.01-1.43-6.14-1.51c-2.35-0.09-4.37-0.85-6.14-2.38c-0.55-0.47-1.14-0.91-1.82-1.2
				c-0.49-0.21-0.95-0.19-1.4,0.12c-0.6,0.41-0.79,1.07-0.99,1.69c-0.56,1.75-0.85,3.56-1.19,5.36c-0.23,1.21-0.62,2.4-0.67,3.64
				c-0.13,0.66,0.14,1.08,0.73,1.38c1.43,0.71,2.86,1.41,4.26,2.18c1.44,0.78,2.85,1.62,3.74,3.07c0.51,0.69,0.46,1.53,0.58,2.32
				c0.13,0.82,0.38,0.95,1.13,0.56c0.1-0.05,0.21-0.11,0.3-0.19c1.88-1.44,3.92-1.94,6.21-1.1c0.45,0.16,0.93,0.07,1.39-0.11
				c0.9-0.34,1.47-1.02,1.9-1.85c0.98-1.88,2.22-3.57,3.68-5.1c0,0.75,0,1.5,0,2.25c-1.32,1.42-2.3,3.06-3.18,4.77
				c-0.1,0.17-0.21,0.34-0.29,0.51c-0.41,0.89-1.07,1.41-2.07,1.54c-0.87,0.11-1.7-0.06-2.49-0.32c-1.37-0.46-2.6-0.17-3.79,0.47
				c-1.36,0.73-2.34,1.9-3.39,2.99c-0.63,0.77-1.29,1.53-1.89,2.33c-0.44,0.6-0.81,1.27-0.45,2.07c0.14,0.46,0.55,0.51,0.92,0.63
				c0.05,0.02,0.1,0.04,0.16,0.06c0.07,0,0.14,0,0.21,0c0.23,0.14,0.48,0.1,0.74,0.08c0.85-0.06,1.66-0.41,2.56-0.24
				c1.48,0.28,2.78,0.96,4.1,1.61c0.97,0.48,1.68,0.27,2.25-0.66c0.11-0.18,0.22-0.37,0.33-0.55c0.68-1.18,1.67-2.14,2.38-3.3
				c0.19-0.17,0.39-0.33,0.55-0.53c0.98-1.16,2.07-2.21,3.34-3.04c0,1.23,0,2.45,0,3.68c-0.38,0.2-0.78,0.36-1.13,0.6
				c-1.03,0.71-2.08,1.41-2.79,2.48c-0.46,0.42-0.79,0.94-1.18,1.42c-0.67,0.89-1.33,1.78-1.91,2.74c-0.03,0.04-0.07,0.08-0.1,0.12
				c-0.04,0.04-0.08,0.09-0.11,0.13c-0.34,0.48-0.72,0.94-0.92,1.5c-0.39,1.1-1.03,2.01-1.91,2.77c-0.34,0.29-0.74,0.52-0.97,0.91
				c-2.08,1.52-3.71,3.39-4.24,5.97c-0.31,1.5-0.47,3.06,0.62,4.4c0.35,0.43,0.76,0.8,1.15,1.18c0.92,0.9,2.03,0.93,3.09,0.53
				c1.73-0.66,3.41-1.47,5.2-1.97c0.15-0.03,0.31-0.06,0.46-0.08c0.78-0.13,1.55-0.25,2.33-0.04c1.1,0.3,1.63,1.16,2.05,2.12
				c0.38,2.74-0.64,4.92-2.62,6.74c-1,0.92-2.21,1.51-3.36,2.19c-0.78,0.46-1.37,1.13-1.94,1.95c2.31,0,4.52,0,6.73,0
				c0.56-0.06,1.02-0.41,1.54-0.56c0.13,0.61-0.1,0.73-0.71,0.73c-47.39-0.02-94.79-0.02-142.18,0c-0.5,0-0.68-0.1-0.6-0.61
				c0.04-0.27,0.01-0.55,0.01-0.83c0.49-0.45,0.81-1.01,1.1-1.59c0.4-0.8,0.94-1.47,1.86-1.69c0.34-0.08,0.77-0.21,1.04,0.18
				c0.26,0.38,0.05,0.72-0.18,1.03c-0.64,0.88-1.16,1.82-1.54,2.85c-0.13,0.35-0.15,0.53,0.33,0.52c2.17-0.02,4.34-0.02,6.51-0.02
				c0.67,0,1.34-0.01,2.01-0.01c1.03,0,2.06,0,3.09,0c1.28,0,2.56-0.04,3.84,0.03c0.66,0.03,0.99-0.22,1.13-0.81
				c0.42-0.8,0.29-1.11-0.58-1.28c-0.37-0.07-0.74-0.03-1.12,0.03c-1.73,0.26-3.46,0.48-4.96-0.75c-0.24-0.2-0.43-0.46-0.59-0.72
				c-0.76-1.42-0.39-3,0.96-3.87c0.73-0.47,1.4-1.02,2.09-1.54c1.51-1.12,2.94-2.39,4.78-3c0.99-0.33,1.65-0.97,2.03-1.92
				c0.31-0.79,0.42-1.56-0.17-2.29c-0.58-0.72-1.38-0.73-2.16-0.62c-1.35,0.19-2.45,0.95-3.49,1.78c-1.34,1.07-2.76,1.9-4.45,2.34
				c-1.38,0.36-2.78,0.69-4.1,1.26c-0.48,0.28-1.12,0.27-1.46,0.82c-0.23-0.02-0.41,0.07-0.6,0.19c-0.6,0.39-1.2,0.76-1.81,1.13
				c-0.44,0.27-0.9,0.49-1.44,0.47c-0.74-0.03-1.07-0.55-0.86-1.25c0.16-0.5,0.59-0.84,0.74-1.34c0.84-0.61,1.53-1.39,2.32-2.05
				c1.38-1.14,2.7-2.33,3.89-3.67c0.93-1.04,1.79-2.13,2.87-3.04c1.06-0.9,1.99-1.95,2.74-3.15c0.43-0.55,0.92-1.07,1.15-1.75
				c0.41-0.31,0.58-0.78,0.83-1.2c0.76-1.25,1.45-2.57,2.6-3.5c1.36-1.1,2.76-2.16,4.21-3.15c1.74-1.18,2.74-2.84,3.41-4.75
				c0.32-0.72,0.48-1.46,0.15-2.23c-0.06-0.46-0.39-0.7-0.74-0.94c-1.02-0.7-1.23-1.83-0.56-2.88c0.21-0.33,0.48-0.62,0.64-0.99
				c0.26-0.6,0.1-0.93-0.56-0.99c-0.55-0.05-1.1,0.01-1.63,0.22c-2.35,0.9-4.39,2.39-6.66,3.43c-0.76,0.25-1.4,0.73-2.11,1.08
				c-1.06,0.61-2.12,1.2-3.17,1.82c-1.24,0.72-2.41,1.57-3.74,2.15c-0.76,0.33-1.56,0.58-2.4,0.47c-0.78-0.1-1.55-0.3-2.33-0.39
				c-0.64-0.08-1.3-0.14-1.9,0.21c-0.39-0.09-0.7,0.18-1.05,0.24c0-1.23,0-2.45,0-3.68c0.2-0.15,0.4-0.31,0.6-0.46
				c0.4-0.19,0.67-0.54,1-0.83c1.58-1.42,3.34-2.46,5.48-2.78c0.73-0.11,1.48-0.2,2.18-0.51c1.29-0.57,1.66-1.66,0.99-2.9
				c-0.36-0.67-0.72-1.36-0.79-2.15c0.05-0.47,0.1-0.93,0.15-1.4c0.04-0.2,0.08-0.4,0.12-0.6c0-0.1,0.01-0.2,0.01-0.3
				c0-1.28-0.33-1.56-1.57-1.26c-1.34,0.32-2.62,0.84-3.91,1.31c-1.59,0.6-3.02,1.45-4.25,2.62c0-0.63,0-1.26,0-1.9
				c0.5-0.24,0.83-0.67,1.2-1.06c0.68-0.61,1.45-1.08,2.25-1.5c0.38-0.2,0.74-0.44,0.92-0.86c0.49-0.45,0.21-0.89-0.04-1.31
				c-0.54-0.9-1.41-1.52-1.97-2.4c-0.58-0.91-1.29-1.67-2.37-2c0-0.43,0-0.87,0-1.3c1.03,0.07,1.89,0.4,2.53,1.28
				c1.05,1.45,2,2.98,3.47,4.08c1.02,0.76,2.07,1.23,3.31,0.55c0.28-0.15,0.56-0.29,0.83-0.45c1.24-0.71,2.22-1.75,3.33-2.63
				c1.4-1.11,2.63-2.35,3.56-3.9c0.77-1.3,1.55-2.6,2.53-3.77c0.43-0.51,0.78-1.09,1.07-1.69c0.15-0.22,0.32-0.42,0.36-0.69
				c0.2-0.3,0.26-0.65,0.38-0.98c0.42-1.24,0.16-2.31-0.81-3.21c-1.25-1.15-2.74-1.87-4.3-2.48c-0.79-0.31-1.58-0.62-2.37-0.93
				c-0.67-0.23-1.33-0.5-2.01-0.68c-0.95-0.24-1.9-0.26-2.84,0.13c-2.89,1.22-5.88,1.89-9.03,1.62c0-0.87,0-1.74,0-2.61
				c0.3,0.02,0.59,0.01,0.89,0.05c1.41,0.17,2.8,0.1,4.15-0.32c1.08-0.34,1.33-0.97,0.82-2c-0.47-0.95-1.04-1.86-1.43-2.85
				c-0.08-0.21-0.1-0.48-0.35-0.6c-0.15-0.79-0.45-1.52-0.98-2.14c-0.75-1.12-1.86-1.7-3.1-2.11c0-1.19,0-2.37,0-3.56
				c2.8,0.14,5.17-1.04,7.4-2.54c1.19-0.8,2.1-1.94,3.3-2.76c0.95-0.65,1.86-1.36,2.91-1.86c0.66-0.31,1.3-0.67,1.94-1.01
				c0.38-0.24,0.79-0.45,1.03-0.86c0.71-0.66,1.15-1.46,1.36-2.41c0.17-0.79-0.04-1.48-0.49-2.11c-0.18-0.25-0.41-0.45-0.74-0.23
				c-0.34,0.04-0.65,0.17-0.94,0.33c-3.77,2.07-7.89,3.02-12.08,3.74c-0.13-0.02-0.27-0.03-0.36,0.1l0,0
				c-1.11-0.05-2.21,0.21-3.32,0.11c0-1.15,0-2.29,0-3.44c0.73-0.1,1.44,0.13,2.17,0.07c1.57-0.14,2.76-0.92,3.85-1.97
				c0.71-0.69,1.55-1.18,2.54-1.43c1.18-0.3,2.39-0.46,3.53-0.94c1.7-0.7,3.35-1.47,4.65-2.83c0.54-0.51,1.03-1.06,1.28-1.78
				c0.17-0.15,0.25-0.35,0.32-0.56c1.13-3.2-1.44-5.62-4.23-5.72c-0.16,0-0.31,0-0.47,0c-0.25-0.01-0.5-0.07-0.73,0.09
				c-0.64,0.1-1.26,0.26-1.83,0.6c-1.44,0.84-2.44,2.21-3.83,3.11c-0.79,0.26-1.4,0.87-2.23,1.06c-1.66,0.38-3.33,0.54-5.03,0.34
				c0-0.4,0-0.79,0-1.19c1.86,0.04,3.63-0.44,5.38-0.99c0.6-0.19,1.14-0.53,1.56-1.04c0.75-0.92,0.35-1.89,0.06-2.81
				c-0.33-1.03-1.06-1.83-1.77-2.63c-1.53-1.71-3.26-3.2-5.23-4.39c0-1.94,0-3.87,0-5.81c0.2-0.01,0.41-0.01,0.61-0.02
				c1.26,0.19,2.53,0.46,3.77-0.11c0.73-0.28,1.22-0.84,1.68-1.43c1.3-1.69,2.82-3.08,4.96-3.62c0.86-0.22,1.72-0.44,2.55-0.75
				c0.8-0.31,1.6-0.65,2.19-1.32c0.53-0.2,0.77-0.72,1.18-1.06c0.6-0.71,1.18-1.44,1.44-2.36c0.51,0,1.03,0,1.54,0
				c-0.01,0.93,0.21,1.23,1.13,1.43c1.14,0.26,2.26,0,3.39-0.11c0.5-0.01,1.01-0.02,1.51-0.03c1.36,0.13,2.49,0.72,3.43,1.69
				c0.3,0.35,0.69,0.58,1.08,0.82c0.13,0.17,0.34,0.19,0.52,0.26c0.74,0.27,1.5,0.47,2.2,0.85c1.44,0.79,1.81,1.97,1.16,3.48
				c-0.38,0.88-0.73,1.78-0.77,2.77c-0.02,0.51-0.07,1.02,0.11,1.52c0.92,1.99,2.24,3.69,3.81,5.22c2.32,2.26,5.36,2.1,7.79,0.45
				c2.13-1.45,3.36-3.61,4.58-5.76c0.42-0.75,0.51-1.66,0.3-2.58c-0.38-1.67-1.49-2.78-2.75-3.78c-1.15-0.92-1.3-1.4-0.57-2.66
				c0.66-1.12,0.85-2.31,0.81-3.57c0.87,0,1.74,0,2.61,0c-0.02,0.32,0.14,0.56,0.37,0.76c1.58,1.38,3.39,2.38,5.33,3.14
				c0.04,0,0.07,0.01,0.11,0c0.14,0.14,0.31,0.12,0.48,0.1c0.35,0,0.7,0,1.05,0.01c0.66,0.12,1.24-0.19,1.84-0.35
				c1.52-0.39,2.87-1.08,3.84-2.38c0.35-0.38,0.61-0.83,0.85-1.29c3.56,0,7.12,0,10.67,0c-0.01,0.03-0.01,0.07-0.02,0.1
				c-1.93,0.04-3.85,0.19-5.77,0.38c-1.24,0.12-2.42,0.35-3.33,1.3c-1.02,0.8-2.16,1.41-3.23,2.13c-0.63,0.28-1.25,0.57-1.88,0.85
				c-0.87,0.38-1.75,0.72-2.61,1.12c-0.33,0.16-0.78,0.33-0.49,0.88c0.13,0.25,0.35,0.34,0.62,0.39c1.28,0.21,2.53-0.04,3.79-0.26
				c0.48-0.01,0.96-0.05,1.4-0.25c1.74-0.25,3.44-0.7,5.12-1.19c0.07-0.01,0.14-0.01,0.21-0.02c0.05-0.03,0.09-0.06,0.14-0.09
				c0.91-0.3,1.8-0.64,2.58-1.21c0.05-0.03,0.09-0.07,0.14-0.1c0.03,0,0.06-0.01,0.09-0.03c1.28-0.22,2.55-0.02,3.82,0.08
				c1.12,0.09,2.13-0.08,3.09-0.68c0.86-0.54,1.46-1.31,2.07-2.07c0.32-0.39,0.74-0.73,0.64-1.33c0.75,0,1.5,0,2.25,0
				c-1.16,0.88-1.91,2.03-2.27,3.43c-0.31,1.18-0.51,2.37-0.12,3.58c0.18,0.75,0.48,1.45,0.91,2.09c0.43,0.63,0.69,1.31,0.78,2.06
				c0.03,0.75-0.15,1.48-0.26,2.22c-0.32,1.07-0.65,2.14-0.94,3.22c-0.13,0.49-0.29,0.98-0.24,1.51c0.05,0.62,0.4,0.97,1.02,0.99
				c0.6,0.02,1.1-0.28,1.6-0.56c1.37-0.75,2.76-1.47,4.17-2.15c1.02-0.49,2.07-0.94,3.05-1.53c1.54-0.92,2.89-2.11,4.14-3.38
				c0.26-0.27,0.52-0.53,0.77-0.8c0.51-0.55,0.99-1.11,1.02-1.91c0.18-0.17,0.1-0.39,0.13-0.59c0.11-0.5-0.17-0.89-0.38-1.3
				c-0.18-0.63-0.5-1.23-0.49-1.92c0-0.71,0.17-1.37,0.52-1.99c0.22-0.39,0.55-0.58,0.99-0.66c0.39-0.07,0.78-0.06,1.18-0.07
				c1.69-0.06,3.04-0.7,3.87-2.25c0.63,0,1.26,0,1.9,0c-0.98,1.62-1.59,3.41-2.36,5.12c-0.58,1.05-1.02,2.17-1.45,3.29
				c-0.25,0.61-0.09,1.12,0.4,1.52c0.74,0.6,1.61,0.94,2.52,1.09c1.43,0.24,2.87,0.43,4.32,0.56c0.91,0.08,1.84,0.16,2.75-0.06
				c1.07-0.14,2.13-0.27,3.16-0.64c2.4-0.62,4.84-1.03,7.29-1.36c2.33-0.32,4.41-1.12,6.11-2.78c0.79-0.77,1.56-1.55,2.06-2.55
				c0.53-0.42,0.85-0.99,1.19-1.56C20.74-70.86,21.28-71.75,21.73-72.68z M-80.34,29.55l-0.02,0.02c-0.04,0.03-0.08,0.07-0.11,0.1
				c-0.14,0.14-0.28,0.27-0.42,0.42c-0.73,0.8-1.53,1.54-1.83,2.63c-0.52,2.95-0.25,5.78,1.56,8.27c1.31,1.8,3.21,2.22,5.31,1.82
				c0.6-0.07,1.19-0.14,1.76-0.36c0.14,0.01,0.27,0.01,0.36-0.12l0,0c1.34-0.2,2.66-0.45,3.93-0.94c1.33-0.42,2.64-0.9,3.89-1.55
				c0.61-0.12,1.11-0.43,1.57-0.82c0.23-0.02,0.43-0.09,0.47-0.35l0,0c0.51-0.06,0.82-0.45,1.17-0.74c1.04-0.87,1.88-1.9,2.16-3.28
				c0.36-0.99,0.27-1.98,0.01-2.96c-0.47-1.78-1.61-3.1-3.07-4.15c-1.2-0.86-2.45-1.66-3.96-1.88c-0.31-0.01-0.62-0.01-0.93-0.02
				c-0.44,0-0.89-0.11-1.32,0.09c-1.88,0.1-3.7,0.56-5.54,0.86c-0.2-0.03-0.39,0-0.58,0.06c-1.7,0.51-3.02,1.59-4.28,2.78
				l-0.02,0.01C-80.27,29.48-80.31,29.52-80.34,29.55z M-86.42-53.83L-86.42-53.83c0.04-0.04,0.07-0.09,0.11-0.13
				c0.37-0.73,0.97-1.29,1.38-1.99c0.98-1.05,2.17-1.88,3.1-2.98c0.9-1.07,1.61-2.28,2.54-3.33c0.55-0.62,1.11-1.22,1.53-1.95
				c0.61-1.05,0.46-1.97-0.44-2.53c-0.32-0.2-0.66-0.38-1.03-0.44c-0.81-0.13-1.56-0.41-2.28-0.79c-0.12-0.55-0.61-0.74-0.99-1.04
				c-1.3-0.73-2.69-1.04-4.18-0.92c-1.49-0.01-2.91,0.37-4.31,0.81c-0.19,0.06-0.35,0.17-0.47,0.35c-0.72,0.05-1.31,0.4-1.87,0.81
				c-1.22,0.89-2.56,1.58-4.01,1.91c-1.67,0.38-3.26,0.91-4.66,1.9c-0.9,0.64-1.77,1.33-2.21,2.4c-0.4,0.48-0.56,1.06-0.7,1.64
				c-0.35,0.68-0.42,1.42-0.51,2.16c-0.26,2.2,0.09,4.26,1.38,6.12c1.3,1.87,3.04,2.16,5.08,1.95c1.5-0.1,2.99-0.29,4.48,0.1
				c3.44,1.33,4.08,5.64,2.96,8.18c-0.32,0.81-0.92,1.43-1.41,2.13c-0.1,0.05-0.22,0.09-0.31,0.17c-1.14,1.06-2.48,1.79-3.89,2.42
				c-1.15,0.51-2.33,0.97-3.47,1.48c-0.57,0.26-1.16,0.51-1.58,1c-0.41,0.48-0.25,0.96,0.35,1.12c0.44,0.12,0.89,0.14,1.34,0.06
				c2.07-0.4,3.91-1.38,5.8-2.26c0.85-0.32,1.62-0.79,2.42-1.22c1.83-1,3.18-2.4,3.62-4.51c0.17-0.34,0.21-0.71,0.24-1.08
				c0.14-1.71,0.18-3.42,0.26-5.14c0.04-0.92,0.21-1.83,0.4-2.73c0.26-1.23,0.8-2.35,1.24-3.51l0,0
				C-86.5-53.75-86.46-53.79-86.42-53.83z M-59.26-35.44c0.21-0.01,0.39-0.07,0.53-0.23c0.64-0.33,1.28-0.66,1.92-1.01
				c1.39-0.75,2.84-1.3,4.44-1.4c0.23,0,0.46,0,0.69-0.01c0.12,0,0.24,0,0.37,0c1.27-0.01,2.51,0.36,3.78,0.39
				c0.11,0.1,0.24,0.12,0.38,0.1c0.07,0,0.15,0,0.22,0c0.03,0.03,0.06,0.07,0.09,0.08c2.22,0.49,4.39,1.26,6.67,1.46
				c0.77,0.07,1.55,0.29,2.34,0.04c0.16,0.01,0.33,0.01,0.49,0.02c0.33,0.12,0.66,0.13,0.98-0.03c0.36,0.04,0.7-0.07,1.05-0.15
				c0.18,0.03,0.35,0.04,0.49-0.11c0.03,0,0.06-0.01,0.09-0.02c0.72-0.13,1.43-0.25,2.15-0.39c1.78-0.34,3.56-0.67,5.33-1.05
				c0.68-0.15,1.38,0.05,2.05-0.19c0.15,0,0.3,0,0.45,0c0.21,0.15,0.46,0.11,0.68,0.09c0.97-0.07,1.85,0.14,2.68,0.67
				c0.5,0.32,1,0.7,1.64,0.76c0.21,0.15,0.42,0.1,0.66,0.05c1.12-0.21,2.11-2.38,1.57-3.58c0.05-0.25-0.02-0.44-0.21-0.63
				c-0.67-0.68-1.51-0.85-2.41-0.89c-1.43,0.05-2.71-0.48-3.99-0.99c-1.1-0.52-2.17-1.1-3.17-1.8c-0.39-0.27-0.71-0.7-1.26-0.71
				c-0.48-0.77-2.28-1.44-3.45-1.07c-0.98,0.31-1.86,0.81-2.77,1.27c-0.71,0.24-1.4,0.59-2.18,0.57c-0.65,0.06-1.13-0.3-1.62-0.64
				c-0.32-0.52-0.64-1.03-0.95-1.55c-0.98-1.63-2.42-2.62-4.25-3.09c-0.54-0.22-1.11-0.35-1.69-0.45c-1.23-0.4-2.52-0.46-3.79-0.42
				c-2.32,0.06-4.64,0.26-6.95,0.45c-0.82,0.07-1.64,0.11-2.44,0.34c-2.85,0.41-4.99,1.74-5.95,4.6c-0.44,0.82-0.82,1.66-1.25,2.48
				c-1.43,2.73-3.53,4.84-6.1,6.47c-1.61,1.01-3.33,1.41-5.23,0.65c-0.93-0.37-1.83-0.84-2.83-1.03c-0.33-0.18-0.67-0.31-1.04-0.37
				c-0.93-0.34-1.91-0.3-2.87-0.45c-0.58-0.01-1.17-0.07-1.75,0.01c-0.79-0.02-1.52,0.21-2.2,0.59c-1.23,0.69-2.43,1.39-2.99,2.81
				c-0.48,1.2-0.49,2.42-0.37,3.67c0.18,1.83,1.02,3.27,2.56,4.3c1.75,1.03,3.57,1.61,5.62,0.96c1.95-0.62,3.84-1.41,5.89-1.69
				c1.7-0.08,3.02-0.96,4.23-2.04c1.45-1.29,2.64-2.89,4.45-3.76c0.39-0.17,0.77-0.33,1.16-0.5c1.44-0.57,2.96-0.84,4.45-1.25
				C-61.61-34.37-60.36-34.69-59.26-35.44L-59.26-35.44z M-3.89-43.99c0.04-0.04,0.09-0.07,0.13-0.11c1.52-1.52,3.15-2.93,4.73-4.39
				c0.06-0.05,0.13-0.09,0.19-0.14c1.72-1.38,3.42-2.8,5.86-2.49c0.11,0,0.22,0,0.34,0.01c0.67,0.22,1.35,0.43,2.02,0.63
				c0.96,0.28,1.85,0.75,2.84,0.91c0.85,0.13,1.71,0.25,2.56,0.34c0.9,0.09,1.79,0,2.67-0.22c0.59-0.01,1.18-0.08,1.75-0.25
				c1.63-0.16,3.01-0.72,3.83-2.27c0.65-1.23,1.57-2.27,2.59-3.21c0.88-0.82,1.72-1.68,2.39-2.68c0.33-0.49,0.7-1.02,0.46-1.68
				c-0.21-0.48-0.56-0.8-1.06-0.96c-0.59-0.4-1.17-0.82-1.91-0.91c-0.19-0.01-0.39-0.01-0.58-0.02c-0.09-0.3-0.34-0.22-0.54-0.21
				c-0.99,0.02-1.97-0.05-2.94-0.21c-2-0.34-4.03-0.39-6.05-0.52c-0.19-0.01-0.4-0.03-0.57,0.1c-0.79,0.08-1.58,0.14-2.33,0.4
				c-0.28-0.05-0.54,0.08-0.81,0.13c-1.36,0.3-2.73,0.6-4.09,0.91c-1.95,0.45-3.89,0.96-5.81,1.54c-0.8,0.25-1.65,0.34-2.36,0.82
				c-0.93,0.48-1.87,0.93-2.78,1.44c-2.17,1.24-4.39,2.34-6.86,2.84c-1.97,0.4-3.88,0.4-5.65-0.73c-0.45-0.42-0.97-0.7-1.53-0.94
				c-0.07-0.04-0.13-0.09-0.21-0.11c-1.16-0.26-2.22-0.16-3.27,0.52c-1.58,1.01-3.16,1.98-4.51,3.32c-1.22,1.21-1.15,2.63-0.93,4.12
				c0.03,0.55,0.23,1.04,0.49,1.51c0.81,1.95,2.33,2.85,4.37,3c0.26,0.18,0.55,0.08,0.83,0.1c0.59,0.22,1.2,0.1,1.8,0.1
				c0.47,0,0.93-0.01,1.4-0.01c1.58,0.07,3.15,0.04,4.71-0.26c0.47,0.14,0.93-0.03,1.39-0.06c1.17-0.09,2.29,0.15,3.4,0.48
				c0.38,0.19,0.8,0.17,1.2,0.27C-5.51-42.58-4.63-43.1-3.89-43.99L-3.89-43.99z M-59.85,5.59c0.03,0,0.07-0.01,0.1-0.02
				c0.62-0.32,1.23-0.67,1.87-0.95c0.54-0.24,1.06-0.64,1.71-0.33c-0.04,0.97-0.74,1.43-1.47,1.84c-1.75,0.96-3.4,2.06-4.91,3.36
				c-1.28,1.1-2.49,2.28-3.61,3.54c-1.35,1.32-2.78,2.55-4.34,3.62c-0.74,0.51-1.26,1.22-1.71,1.99c-0.73,1.25-1.16,2.63-1.9,3.86
				c-0.32,0.54-0.78,1-0.94,1.63c-0.12,0.47,0.06,0.8,0.52,0.76c0.87-0.07,1.76-0.08,2.61-0.33c2.09-0.21,4.11-0.67,6.01-1.58
				c1.13-0.49,1.93-1.38,2.8-2.22c1.45-1.41,2.95-2.77,4.66-3.87c1.14-0.73,2.39-1.25,3.6-1.83c0.66-0.29,1.32-0.57,1.98-0.86
				c1.33-0.5,2.62-1.09,3.98-1.5c1.11-0.33,2.23-0.51,3.38-0.22c0.87,0.22,1.65,0.65,2.44,1.04c0.81,0.4,1.67,0.65,2.56,0.57
				c2.72-0.22,4.87-1.61,6.73-3.48c1.59-1.61,2.76-3.54,3.69-5.6c0.6-1.33,0.96-2.74,1.19-4.19l0,0c0.03-0.04,0.07-0.09,0.1-0.13
				c0.17-0.74,0.34-1.48,0.51-2.22c0.3-1.17,0.41-2.36,0.16-3.55c-0.22-1.05-0.82-1.82-1.84-2.23c-0.85-0.34-1.74-0.49-2.64-0.52
				c-1.85-0.06-3.65,0.3-5.42,0.77c-1.06,0.28-2.04,0.75-2.93,1.38c-1.25,0.89-2.41,1.9-3.6,2.87c-1.51,1.23-3,2.52-5,2.93
				c-0.07,0-0.14,0-0.21,0.01c-0.48,0-0.96,0.01-1.44,0.01c-0.07-0.01-0.15-0.02-0.22-0.03c-0.65-0.16-1.27-0.35-1.85-0.73
				c-0.76-0.49-1.55-0.94-2.34-1.38c-1.13-0.65-2.29-0.49-3.2,0.4c-0.34,0.33-0.63,0.7-0.88,1.11c-0.77,1.31-1.95,2.1-3.35,2.58
				c-1.47,0.5-2.26,1.6-2.12,3.13c0.04,0.48,0.08,1.04,0.64,1.3c0.23,0.34,0.59,0.35,0.95,0.35C-62.19,6.88-60.99,6.31-59.85,5.59
				L-59.85,5.59z M-8.74,4.17c-0.1-0.01-0.18,0.03-0.24,0.11c-1.01,0.46-2.03,0.84-3.08,1.2c-0.93,0.31-1.87,0.65-2.4,1.59
				c-0.61,1.08-0.97,2.29-1.71,3.3c-0.21,0.29-0.11,0.53,0.22,0.64c0.19,0.07,0.38,0.12,0.57,0.15c1.18,0.2,2.36,0.09,3.55,0.11
				c1.07,0.14,2.13,0.36,3.22,0.34c1.53,0.1,3.01-0.24,4.48-0.6c1.42-0.32,2.87-0.54,4.18-1.23c2.52-1.33,4.82-2.98,7.1-4.67
				c0.74-0.55,1.5-1.08,2.27-1.61c0.21-0.15,0.46-0.25,0.72-0.07c0.25,0.17,0.26,0.44,0.22,0.7c-0.08,0.56-0.43,1-0.76,1.44
				C8.61,6.93,7.21,7.7,5.77,8.47C3.48,9.7,1.23,11.01-0.77,12.7c-1.16,0.99-1.09,1.49-0.26,2.79c0.06,0.1,0.15,0.18,0.24,0.26
				c1.26,1.08,1.39,2.42,0.96,3.92c-0.16,0.56-0.48,1.04-0.63,1.59c-0.05,0.19-0.15,0.37,0.04,0.55c0.2,0.19,0.4,0.1,0.6,0
				c0.61-0.33,1.16-0.75,1.64-1.25c0.94-0.97,2.11-1.42,3.45-1.46c1.29-0.03,1.95-0.59,2.34-1.84c0.79-2.54,1.41-5.13,2.34-7.63
				c0.62-1.66,1.63-2.95,3.23-3.76c0.9-0.46,1.74-1.02,2.38-1.82c0.37-0.49,0.9-0.88,1.05-1.53c0.66-0.9,0.66-1.87,0.03-2.78
				c-0.46-0.66-1.07-1.14-1.71-1.6c-0.99-0.7-2-1.38-3.14-1.82l-0.01,0c-0.04-0.04-0.08-0.08-0.12-0.12
				c-0.32-0.23-0.65-0.45-0.97-0.68c-0.62-0.48-1.24-0.97-1.86-1.45C8.52-6.45,8.11-6.88,7.71-7.32c-0.67-1.01-1.08-2.13-1.56-3.23
				c-0.52-1.19-1.59-1.89-2.97-1.61c-2.97,0.61-4.8,2.59-5.88,5.29c-0.72,1.8-0.68,3.78-1.11,5.66c-0.34,0.78-0.61,1.6-1.15,2.28
				c-0.75,0.86-1.61,1.59-2.52,2.26C-7.89,3.62-8.41,3.75-8.74,4.17L-8.74,4.17z M-54.42-62.73c-0.93,0.34-1.9,0.59-2.73,1.17
				c-1.21,0.48-2.19,1.24-2.83,2.39c-0.25,0.45-0.47,0.91-0.68,1.37c-0.47,1.03-1.17,1.96-1.49,3.06c-0.29,0.99-0.01,1.71,0.9,2.15
				c0.73,0.35,1.49,0.61,2.31,0.68c0.26,0.17,0.56,0.06,0.84,0.1c0.15,0.12,0.33,0.1,0.51,0.1c2.07,0.08,4.12-0.19,6.16-0.48
				c0.83-0.12,1.48-0.82,1.64-1.65c0.1-0.52,0.23-1.03,0.34-1.55c0.35-1.01,0.99-1.8,1.8-2.47l0,0.01c0.53-0.16,0.97-0.52,1.52-0.62
				c1.4-0.26,2.74-0.15,4.03,0.47c0.53,0.34,1.04,0.7,1.58,1.01c0.98,0.57,2.03,0.67,3.12,0.44c0.69-0.15,1.38-0.26,2.08-0.39
				c0.62,0.04,1.26-0.05,1.87,0.12c0.44,0.35,0.97,0.51,1.5,0.67c0.46,0.14,0.82-0.03,1.14-0.42c0.83-1.01,1.21-2.19,1.39-3.46
				c0.18-1.23-0.19-2.29-1.03-3.2c-0.31-0.62-0.8-1.09-1.31-1.55c-0.78-0.73-1.63-1.35-2.62-1.76c-0.84-0.39-1.73-0.63-2.65-0.69
				c-0.79-0.06-1.59-0.08-2.29,0.38c-0.76,0.5-1.55,0.91-2.44,1.13c-0.7,0.17-1.4,0.34-2.1,0.52c-0.25,0.03-0.51,0.06-0.76,0.1
				c-1.22,0.18-2.46,0.28-3.66,0.58c-0.51,0.12-1.02,0.23-1.54,0.35c-1.44,0.29-2.78,0.85-4.16,1.34c-0.11,0.01-0.22,0.01-0.33,0.02
				C-54.32-62.78-54.37-62.76-54.42-62.73z M-13.12-67c0.12,0.31,0.04,0.67,0.23,0.96c0.24,0.56,0.53,1.05,1.25,1.09
				c0.71,0.05,1.09-0.37,1.38-0.91c0.18-0.33,0.34-0.67,0.5-1c0.52-0.72,0.85-1.54,1.07-2.4c0.18-0.71-0.14-1.03-0.85-0.83
				c-0.9,0.26-1.79,0.55-2.66,0.9c-0.34,0.14-0.71,0.36-0.81,0.8C-13.3-67.95-13.11-67.47-13.12-67z M-100.65,30.95
				c0.14,0.02,0.27,0.01,0.37-0.1c1.18-0.55,2.36-1.11,3.55-1.66c0.27-0.12,0.54-0.25,0.81-0.37c1.75-0.8,3.55-1.54,5.2-2.54
				c3.01-1.84,6.02-3.66,9.22-5.16c1.72-0.81,3.35-1.78,4.75-3.07c2.04-1.89,4.16-3.67,6.38-5.33c1.83-1.16,3.07-2.65,2.81-4.98
				c0.01-0.21,0.07-0.42-0.1-0.59l0,0c0.05-1-0.36-1.88-0.81-2.73c-0.86-1.65-2.04-3.02-3.71-3.9c-0.43-0.3-0.89-0.56-1.39-0.73
				c-0.05-0.03-0.1-0.05-0.15-0.08c-0.07,0-0.14-0.01-0.21-0.01c-0.72-0.36-1.5-0.41-2.27-0.54c-1.65-0.28-3,0.21-4.24,1.27
				c-1.47,1.26-2.77,2.69-4.01,4.17c-0.47,0.56-1.11,1.03-1.24,1.83l0,0.01c-0.03,0.04-0.06,0.08-0.09,0.12
				c-0.15,0.2-0.31,0.4-0.45,0.62c-0.79,1.18-1.66,2.28-2.87,3.07c-0.04,0.04-0.08,0.08-0.12,0.11l0,0
				c-0.37,0.23-0.71,0.53-1.1,0.67c-2.76,1.04-5.22,2.55-7.15,4.81c-1,1.17-1.94,2.38-2.04,4.02c0,0.3,0,0.61,0,0.91
				c0.18,0.68,0.32,1.37,0.66,2c0.25,0.47,0.54,0.92,0.75,1.41c0.46,1.04,0.32,2.47-0.98,3.23c-0.89,0.52-1.89,0.65-2.84,0.97
				c-1.44,0.48-2.85,1.02-4.04,2.01c-0.62,0.3-1.13,0.74-1.62,1.21c-0.16,0.14-0.35,0.26-0.48,0.43c-0.15,0.19-0.38,0.4-0.24,0.67
				c0.15,0.27,0.45,0.23,0.7,0.17c0.53-0.11,1.05-0.08,1.58-0.1C-104.1,32.65-102.34,31.9-100.65,30.95L-100.65,30.95z
				 M-34.02,63.56c-0.46,0.55-0.86,1.13-1.17,1.78c-0.62,0.92-0.95,1.97-1.4,2.97c-0.21,0.47,0.09,0.78,0.66,0.68
				c1.19-0.22,2.34-0.03,3.49,0.25c0.82,0.13,1.62,0.35,2.46,0.36c0.41,0.01,0.83,0.04,1.24,0.01c1.06-0.08,2.04-0.41,2.91-1.02
				c0.68-0.47,0.67-1.24,0.01-1.59c-0.36-0.13-0.74-0.19-1.1-0.09c-0.88,0.26-1.78,0.19-2.68,0.23c-0.42-0.24-0.74-0.56-0.88-1.04
				c-0.18-0.6-0.03-1.16,0.15-1.72c0.27-0.43,0.4-0.89,0.36-1.4c0.02-0.85-0.11-1.15-0.63-1.19c-0.47-0.04-0.94-0.04-1.39,0.16
				C-32.82,62.32-33.46,62.89-34.02,63.56z M-63.19-32.5c-0.17,0.04-0.34,0.09-0.51,0.12c-2.04,0.28-3.93,0.97-5.7,2.01
				c-1,0.59-1.88,1.3-2.2,2.5c-0.29,0.59-0.43,1.22-0.47,1.88c-0.13,2.32,0.57,4.47,1.31,6.62c0.5,1.47,1.49,1.79,2.89,1.52
				c1.56-0.3,3.02-0.88,4.42-1.62c2.22-1.17,4.62-1.81,7.02-2.49c0.72-0.2,1.46-0.46,2.07-0.93c0.3-0.23,0.56-0.52,0.59-0.92
				c0.08-1.02-0.24-1.96-0.8-2.77c-0.59-0.86-1.32-1.61-2.13-2.28c-0.83-0.68-1.56-1.46-2.06-2.41c-0.83-1.56-2-1.99-3.71-1.33
				c-0.15,0.01-0.3,0.02-0.45,0.03C-63.03-32.59-63.12-32.57-63.19-32.5z M-87.48,5.95c0.38-0.48,0.62-1.04,0.93-1.56
				c0.85-1.15,1.72-2.29,2.56-3.45c1.15-1.58,2.38-3.06,4.05-4.13c0.72-0.46,1.46-0.91,2.08-1.51c1.23-0.76,2.59-1.27,3.87-1.95
				c0.84-0.44,1.77-0.68,2.53-1.26c0.14,0.04,0.26,0.01,0.4-0.04c1.03-0.38,2.07-0.75,3.1-1.12c1.15-0.41,2.34-0.7,3.43-1.27
				c0.17-0.09,0.49-0.13,0.4-0.41c-0.07-0.22-0.34-0.23-0.56-0.25c-0.08-0.01-0.16-0.01-0.24-0.01c-1.24,0-2.49-0.07-3.72,0.02
				c-1.54,0.11-3,0.58-4.39,1.27c-0.22,0.09-0.45,0.18-0.67,0.26c-0.39,0.02-0.69,0.28-1.04,0.41c-2.81,1.1-5.55,2.37-8.24,3.74
				c-1.37,0.7-2.41,1.78-3.11,3.19c-0.85,1.7-1.35,3.54-2.21,5.23c-0.16,0.31-0.32,0.61-0.49,0.92c-0.81,1.16-1.66,2.29-1.93,3.73
				c-0.11,0.6,0.16,0.86,0.75,0.69C-88.68,8.08-88.03,7.06-87.48,5.95z M15.66,68.82c-1.32-0.32-2.67-0.42-4.02-0.25
				c-0.92,0.11-1.79,0.4-2.5,1.04c-0.49,0.25-0.83,0.66-1.19,1.05c-0.12,0.13-0.24,0.3-0.16,0.48c0.08,0.18,0.28,0.11,0.42,0.11
				c1.66,0,3.32-0.01,4.97-0.01c0.43,0,0.87,0,1.3,0c0.92,0.01,1.84,0,2.76,0.03c0.38,0.01,0.53-0.18,0.63-0.48
				c0.13-0.38-0.02-0.68-0.27-0.97C17.1,69.21,16.34,69.09,15.66,68.82z M-0.82,24.81C-1.76,24.7-2.6,25-3.4,25.47
				c-0.91,0.54-1.61,1.32-2.38,2.02c-0.94,0.86-1.96,1.58-3.24,1.85c-0.33,0.07-0.72,0.21-0.72,0.59c-0.01,0.34,0.29,0.58,0.64,0.67
				c0.87,0.56,1.65,0.47,2.46-0.26c1.2-1.09,2.35-2.22,3.65-3.18c0.74-0.55,1.43-1.17,2.14-1.77C-0.52,25.09-0.53,25.05-0.82,24.81z
				 M-60.2,41.63c0.85-0.41,1.58-0.99,2.24-1.65c0.37-0.35,0.76-0.68,1.11-1.05c0.86-0.88,1.79-1.7,2.47-2.74
				c0.36-0.35,0.7-0.71,0.9-1.19c0.68-0.71,1.04-1.59,1.33-2.51c0.34-0.46,0.55-0.98,0.71-1.52c0.42-0.85,0.72-1.75,1.04-2.64
				c0.52-1.29,1.03-2.58,1.55-3.87c0.33-0.72,0.65-1.43,0.99-2.15c0.6-1.27,1.19-2.53,2.17-3.57c0.59-0.63,1.17-1.28,1.71-1.96
				c0.56-0.71,0.37-1.44-0.42-1.88c-0.3-0.16-0.61-0.26-0.95-0.32c-1.08-0.21-2.16-0.13-3.24,0.01c-1.73,0.21-3.4,0.64-5.01,1.32
				c-0.75,0.16-1.37,0.65-2.1,0.85c-0.05,0.03-0.09,0.06-0.14,0.09c-0.04,0.03-0.08,0.07-0.12,0.1c-0.11,0.03-0.24,0.04-0.34,0.1
				c-1.43,0.75-2.75,1.65-3.92,2.76c-0.91,0.86-1.77,1.79-2.01,3.11c-0.08,0.22-0.18,0.45-0.1,0.69c-0.1,1.13,0.48,2.01,1.1,2.86
				c0.49,0.67,1.09,1.25,1.56,1.93c1.18,1.74,1.89,3.64,1.72,5.78c0,0.23,0,0.45-0.01,0.68c-0.37,1.48-1.19,2.67-2.41,3.58
				c-0.98,0.77-1.96,1.55-2.94,2.32c-0.46,0.36-1.03,0.55-1.43,1c-0.18,0.23-0.47,0.44-0.3,0.77c0.16,0.3,0.48,0.31,0.78,0.3
				C-62.78,42.78-61.43,42.42-60.2,41.63z M-40.27,53.5c-0.05,0.04-0.09,0.08-0.14,0.11c-0.61,0.42-1.15,0.92-1.58,1.51
				c-0.11,0.08-0.24,0.14-0.32,0.25c-0.98,1.25-1.84,2.59-2.6,3.99c-0.54,0.99-1.16,1.94-2.38,2.22c-0.3,0-0.58-0.08-0.85-0.2
				c-0.65-0.28-1.05-0.87-1.61-1.27c-0.31-0.64-0.87-1.07-1.39-1.51c-1.18-1.01-3.28-0.94-4.44,0.08c-0.21,0.18-0.27,0.3-0.07,0.52
				c0.13,0.14,0.42,0.28,0.19,0.53c-0.28,0.28-0.45-0.02-0.63-0.18c-0.14-0.13-0.32-0.36-0.48-0.13c-0.29,0.41-0.77,0.54-1.11,0.85
				c-1.32,1.21-2.78,2.23-4.29,3.2c-1.31,0.84-1.25,2.53,0.06,3.4c0.96,0.64,2.03,0.94,3.18,0.97c1.58,0.04,3.02-0.39,4.41-1.14
				c2.07-1.11,4.2-2.08,6.45-2.77c0.55-0.28,1.09-0.57,1.64-0.85c0.14-0.07,0.28-0.14,0.42-0.21c1.74-0.95,3.7-1.49,5.21-2.87
				c0.38-0.35,0.8-0.64,1.19-0.96c1.21-1.02,2.54-1.87,3.88-2.69c0.86-0.4,1.72-0.8,2.58-1.2c0.72-0.24,1.44-0.47,2.16-0.71
				c0.86-0.13,1.65-0.49,2.47-0.73c1.43-0.42,2.82-0.97,4.13-1.67c1.04-0.55,2.1-1.07,2.9-1.97c0.76-0.54,1.3-1.27,1.81-2.03
				c0.94-0.99,1.76-2.06,2.23-3.36c0.23-0.64,0.03-0.85-0.62-0.93c-1.35-0.16-2.36,0.4-3.1,1.44c-0.81,1.14-1.97,1.59-3.23,1.89
				c-1.66,0.39-3.36,0.35-5.04,0.49c-1.04,0.09-2.06,0.3-2.99,0.82c-0.6,0.33-1.24,0.6-1.76,1.07c-1.27,0.71-2.57,1.38-3.79,2.16
				c-0.85,0.54-1.76,1.03-2.4,1.86C-40.22,53.48-40.25,53.49-40.27,53.5z M-21.06,32.63c0.45-0.12,0.92-0.21,1.35-0.38
				c1-0.39,2.09-0.53,3.05-1.05c0.5,0,0.94-0.26,1.41-0.38c0.88-0.21,1.77-0.45,2.55-0.89c1.63-0.91,3.25-1.82,4.91-2.68
				c0.73-0.37,1.44-0.8,1.99-1.43c1.34-1.21,2.63-2.47,3.45-4.12c1.08-1.84,1.52-3.31-0.25-5.32c-0.53-0.59-0.78-1.28-0.54-2.07
				c0.12-0.39,0.29-0.77,0.45-1.15c0.19-0.45,0.03-0.72-0.42-0.84c-0.62-0.16-1.24-0.2-1.86-0.01c-0.14,0.02-0.27,0.03-0.41,0.05
				c-1.42,0.25-2.57,1.06-3.69,1.89c-1.18,0.88-2.45,1.49-3.95,1.51c-1.19,0.12-2.38,0.28-3.57,0.34c-1.81,0.1-3.53,0.39-5.13,1.36
				c-1.67,1.01-3.36,1.98-5.19,2.69c-3.37,1.3-6.5,1.13-9.37-1.25c-0.68-0.56-1.37-1.15-2.25-1.36c-1.25-0.3-2.46-0.1-3.64,0.36
				c-2.78,1.09-4.47,3.38-4.53,6.17c-0.07,0.16-0.17,0.32-0.21,0.48c-0.36,1.55-0.91,3.04-1.52,4.51c-0.17,0.41-0.39,0.82-0.44,1.28
				c-0.06,0.05-0.13,0.1-0.16,0.16c-0.56,1.37-1.28,2.67-1.92,4.01c-0.29,0.5-0.59,1-0.88,1.51c-0.6,0.78-1.23,1.53-1.74,2.37
				c-0.1,0.16-0.33,0.33-0.18,0.52c0.17,0.21,0.44,0.11,0.66,0.01c0.96-0.4,1.94-0.62,2.98-0.65c0.53-0.01,1.06-0.09,1.58-0.19
				c2.31-0.45,3.97-1.97,5.64-3.47c0.78-0.56,1.41-1.27,2.1-1.92c1.82-1.77,3.62-3.56,5.61-5.15c0.29-0.23,0.6-0.44,0.96-0.18
				c0.36,0.25,0.29,0.6,0.14,0.95c-0.37,0.9-0.94,1.67-1.56,2.42c-0.59,0.72-1.33,1.28-1.95,1.96c-0.64,0.4-1.21,0.9-1.77,1.41
				c-0.1,0.06-0.22,0.1-0.3,0.17c-1.34,1.15-2.48,2.48-3.35,4.02c-0.53,0.93-0.82,1.96-0.73,3.06c0.09,1.15,0.72,1.72,1.63,1.5
				c1.33-0.33,2.46-1.06,3.55-1.83c1.24-0.87,2.43-1.81,3.7-2.63c1.39-0.9,2.92-1.55,4.27-2.51c0.83-0.43,1.67-0.85,2.5-1.28
				c1.14-0.38,2.28-0.73,3.45-1.03c1.1-0.28,2.24-0.46,3.27-0.97c0.04,0,0.09,0.01,0.13,0.01C-21.16,32.7-21.11,32.69-21.06,32.63z
				 M-68.15,65.43c-0.51,0.08-1,0.18-1.43,0.49c-0.13,0.03-0.27,0.05-0.4,0.1c-1.11,0.41-2.25,0.57-3.42,0.51
				c-1.11-0.06-2.07-0.37-2.73-1.37c-0.39-0.6-0.69-1.24-1.02-1.87c-0.67-1.27-1.74-1.59-2.93-0.8c-0.75,0.5-1.19,1.25-1.59,2.01
				c-0.62,1.16-1.19,2.35-2.35,3.12c-1,0.65-2.1,1.07-3.19,1.53c-0.84,0.36-1.76,0.6-2.42,1.3c-0.28,0.21-0.65,0.34-0.81,0.79
				c2.09,0,4.12,0,6.15,0c4.15,0,8.3,0,12.45,0c0.59,0,1.18,0,1.78,0c1.93,0.01,3.85,0.01,5.78,0.02c1.14,0,1.19-0.01,0.97-1.11
				c-0.14-0.67-0.21-1.4-0.7-1.95c0.05-0.54-0.32-0.9-0.58-1.3c-0.16-0.42-0.48-0.74-0.83-0.97
				C-66.25,65.36-67.13,64.95-68.15,65.43z M-37.23-55.27c-0.06,0.01-0.13,0.03-0.19,0.04c-2.17,0.15-4.22-0.36-6.22-1.17
				c-0.57-0.23-1.18-0.43-1.84-0.35c-1.18,0.14-2.68,2.07-2.55,3.39c0.08,0.86,0.42,1.42,1.26,1.52c1.2,0.14,2.37,0.39,3.52,0.71
				c0.54,0.17,1.08,0.34,1.62,0.51c1.12,0.48,2.3,0.88,3.18,1.76c0.76,0.77,1.65,0.92,2.65,0.83c1.79-0.16,3.45-0.63,4.76-1.96
				c0.68-0.69,0.82-1.43,0.36-2.27c-0.86-1.59-2.14-2.65-3.95-3c-0.07-0.01-0.14-0.01-0.21-0.02
				C-35.62-55.45-36.42-55.43-37.23-55.27z M-49.52,43.43c0.62-0.24,1.25-0.48,1.87-0.72c0.77-0.29,1.44-0.73,1.99-1.35
				c0.37-0.42,0.68-0.96,0.45-1.51c-0.21-0.48-0.78-0.4-1.22-0.35c-1.49,0.16-2.97,0.34-4.45,0.54c-0.86,0.11-1.68,0.36-2.46,0.76
				c-0.82,0.23-1.58,0.61-2.36,0.95c-1.57,0.64-3.1,1.36-4.73,1.86c-2.56,0.78-5.14,0.94-7.77,0.51c-1.26-0.21-2.52-0.16-3.78-0.08
				c-0.9,0.06-1.78,0.28-2.6,0.73c-0.96,0.52-1.68,1.24-1.74,2.36c-0.09,1.67-0.31,3.34-0.27,5.02c0.01,0.55-0.01,1.1-0.05,1.65
				c-0.09,1.03-0.54,1.98-0.54,3.02c-0.38,0.84-0.19,1.72-0.2,2.59c0.49,1.65,1.58,2.86,2.84,3.95c0.46,0.39,0.99,0.74,1.59,0.66
				c1.84-0.25,3.61-0.77,5.17-1.85c1.44-0.79,2.6-1.91,3.63-3.16c0.64-0.78,1.12-1.66,1.35-2.66c0.18-0.3,0.29-0.63,0.33-0.98
				c0.17-0.62,0.33-1.24,0.5-1.86c0.28-0.67,0.37-1.39,0.76-2.03c0.77-1.26,1.96-2.02,3.16-2.78c2.09-1.33,4.19-2.65,6.28-3.98
				C-51.03,44.28-50.32,43.78-49.52,43.43z M16.65,67.56c0.11,0.01,0.22,0.02,0.33,0.03c0.27,0.19,0.6,0.18,0.91,0.23
				c1.3,0.24,2.36,1.22,1.59,2.97c-0.18,0.41-0.03,0.48,0.34,0.47c0.69-0.01,1.38-0.02,2.07,0c0.27,0.01,0.44-0.09,0.59-0.3
				c0.68-0.97,1.41-1.9,2.04-2.9c0.72-1.15,1.28-2.39,2.11-3.48c0.47-0.61,1.06-1.13,1.41-1.82c0.34-0.67,0.73-1.36,0.44-2.17
				c-0.05-0.63-0.25-0.83-0.86-0.82c-0.42,0.01-0.79,0.15-1.15,0.34c-1.3,0.51-2.47,1.3-3.76,1.84c-2.08,0.87-3.74,0.81-5.33-1.1
				c-0.8-0.96-1.78-0.91-2.46,0.11c-0.56,0.83-1.09,1.69-1.85,2.37c-1.02,0.9-2.3,1.34-3.57,1.63c-1.78,0.4-3.41,0.96-4.51,2.52
				c-0.38,0.21-0.76,0.42-1.15,0.64c-0.43,0.13-0.82,0.37-1.28,0.45c-1.73,0.32-3.47,0.51-5.21,0.08c-0.51-0.13-0.9,0.01-1.2,0.4
				c-0.5,0.63-0.97,1.28-1.45,1.93c-0.15,0.2-0.07,0.28,0.15,0.29c0.41,0,0.83,0,1.24,0c3.25,0,6.51,0,9.76-0.01
				c0.19,0,0.45,0.11,0.56-0.18c0.17-0.44,0.34-0.88,0.51-1.31c0.64-0.42,1.2-0.94,1.78-1.44c1.67-1.01,3.49-1.36,5.42-1.19
				c0.64,0.27,1.33,0.23,1.99,0.38C16.3,67.64,16.47,67.61,16.65,67.56z M-38.4,66.99c0.04-0.04,0.07-0.08,0.11-0.11
				c0.6-0.79,1.28-1.53,1.69-2.46c0.53-0.82,0.92-1.7,1.14-2.64c0.23-1-0.24-1.4-1.21-1.06c-1.38,0.49-2.67,1.17-3.84,2.06
				c-0.94,0.71-1.85,1.46-2.77,2.2c-0.81,0.62-1.62,1.26-2.57,1.67c-0.83,0.36-1.67,0.71-2.5,1.07c-0.23,0.05-0.47,0.09-0.69,0.16
				c-3.05,0.91-6.15,1.56-9.34,1.63c-0.85,0.02-1.35,0.55-1.71,1.26c-0.18,0.35-0.13,0.49,0.29,0.49c3.02-0.01,6.04-0.01,9.06-0.02
				c1.54,0.01,3.09,0.01,4.63,0.02c0.2,0,0.39-0.02,0.57-0.11c1.5-0.46,3.03-0.82,4.34-1.73c1.02-0.7,2.03-1.41,2.76-2.43
				L-38.4,66.99z M2.54,67.02c0.42-0.14,0.82-0.31,1.09-0.69c0.4-0.14,0.61-0.49,0.88-0.77c1.14-1.15,2.43-1.97,4.07-2.26
				c1.71-0.3,2.99-1.22,3.55-2.92c0.43-1.31,1.25-2.26,2.47-2.88c0.25-0.13,0.45-0.31,0.61-0.55c0.61-0.94,0.39-1.87-0.12-2.74
				c-0.56-0.95-1.52-1.33-2.55-1.16c-1.96,0.32-3.9,0.78-5.77,1.49C6,54.72,5.3,55.1,4.61,55.47c-2.08,1.11-3.41,3.08-5.21,4.5
				c-0.9,0.43-1.8,0.88-2.71,1.29c-0.86,0.39-1.17,0.88-1.02,1.81c0.27,1.71,1.21,3.04,2.38,4.25c0.18,0.19,0.42,0.32,0.67,0.37
				c1.22,0.24,2.37-0.02,3.47-0.57c0.07-0.01,0.14-0.01,0.21-0.02C2.44,67.07,2.49,67.05,2.54,67.02z M14.85,40.45
				c-0.31-0.23-0.69-0.21-1.04-0.3c-1.01-0.54-2.05-0.57-3.12-0.18c-0.47,0.16-0.92,0.37-1.29,0.7c-0.3,0.07-0.51,0.29-0.75,0.46
				c-1.15,0.84-2.4,1.51-3.77,1.93c-0.4,0.12-0.82,0.19-1.06-0.23c-0.24-0.42-0.07-0.85,0.21-1.2c0.68-0.83,1.55-1.4,2.6-1.66
				c1.07-0.27,2.02-0.76,2.9-1.42c1.41-0.87,2.69-1.93,4.01-2.94c1.05-0.81,1.76-1.89,2.25-3.13c0.96-1.62,1.27-3.3,0.49-5.08
				c-0.36-0.58-0.8-1.09-1.42-1.39c-1.01-0.48-2.04-0.93-3.07-1.39c-1.86-0.76-3.74-0.67-5.61-0.11c-1.98,0.59-3.85,1.52-5.82,2.15
				c-0.63,0.2-1.22,0.54-1.77,0.93c-1.94,1.4-3.64,3.07-5.34,4.74c-1.05,1.04-1.93,2.23-2.95,3.3c-1.17,1.22-2.44,2.36-3.64,3.56
				c-0.53,0.53-0.96,1.15-0.59,1.95c0.33,0.71,0.64,1.43,0.92,2.17c0.2,1.68-0.77,2.8-1.91,3.77c-1.21,1.04-2.5,1.98-3.55,3.2
				c-0.54,0.49-1.08,0.97-1.63,1.46c-0.93,0.83-1.98,1.48-3.11,2.01c-1.52,0.72-3.13,1.18-4.72,1.73c-1.16,0.4-2.32,0.79-3.04,1.91
				c-0.29,0.44-0.27,0.66,0.22,0.87c0.65,0.28,1.3,0.24,1.97,0.05c1.12-0.33,2.28-0.3,3.4-0.09c2.13,0.39,4.23,0.91,6.41,0.99
				c0.72,0.03,1.45,0.07,2.16,0.15c1.25,0.15,2.51,0.3,3.76,0.27c1.89-0.03,3.72,0.22,5.55,0.67c1.4,0.35,2.83,0.44,4.21-0.21
				c1.02-0.48,1.8-1.26,2.64-1.96c0.71-0.62,1.44-1.22,2.13-1.86c0.98-0.92,2.04-1.71,3.29-2.26c1.4-0.61,2.85-1.13,4.15-1.97
				c1.94-0.9,3.93-1.7,5.95-2.42c0.81-0.29,1.44-0.87,2.01-1.5c0.44-0.47,0.88-0.93,1.32-1.4c0.62-0.57,1.26-1.12,1.87-1.71
				c0.3-0.28,0.56-0.61,0.8-0.94c0.85-1.22,0.47-2.3-0.96-2.91C18.27,40.49,16.54,40.62,14.85,40.45z M-28.53,63.91
				c-0.04,1.14,0.49,1.55,1.58,1.23c0.81-0.24,1.55-0.67,2.33-0.99c0.3,0,0.59,0,0.89,0c0.88,0.01,1.33,0.46,1.36,1.35
				c0.02,0.61-0.21,1.16-0.37,1.72c-0.84,1.54-2.03,2.8-3.43,4.01c3.05,0,5.97,0,8.89,0c0.87,0,1.74,0,2.61,0
				c2.37,0.01,4.74,0.01,7.11,0.02c0.26,0,0.45-0.1,0.62-0.28c0.95-1.04,1.59-2.28,2.23-3.53c0.27-0.53,0.26-1.06,0.04-1.6
				c-0.42-1.04-1.06-1.93-1.93-2.65c-0.36-0.3-0.76-0.46-1.2-0.6c-1.73-0.56-3.53-0.77-5.32-1.09c-2.3-0.4-4.6-0.3-6.9-0.27
				c-0.78-0.01-1.56-0.02-2.34-0.04c-0.17,0.01-0.33,0.01-0.5,0.02c-0.03-0.01-0.07-0.02-0.1-0.03c-0.04-0.03-0.09-0.06-0.13-0.08
				c-0.07-0.01-0.14-0.01-0.22-0.02c-0.72-0.11-1.46-0.22-2.18-0.11c-1.08,0.17-2.17,0.39-2.59,1.62c-0.2,0.24-0.26,0.54-0.34,0.83
				c-0.08,0.07-0.11,0.15-0.1,0.25C-28.53,63.77-28.53,63.84-28.53,63.91z M-82.02,44.25c0.27-0.39,0.07-0.72-0.17-1.02
				c-1.04-1.29-2.09-2.56-2.76-4.1c-0.15-0.34-0.45-0.39-0.8-0.27c-0.69,0.22-1.25,0.67-1.79,1.12c-1.1,0.92-2.17,1.89-3.22,2.87
				c-1.01,0.94-2,1.91-2.8,3.04c-0.55,0.54-1.03,1.13-1.41,1.79c-0.14,0.14-0.3,0.26-0.42,0.42c-1.14,1.5-2.29,3.01-3.41,4.53
				c-0.8,1.08-1.55,2.19-2.64,3.01c-0.69,0.52-1.38,1.05-1.96,1.71c-0.2,0.23-0.43,0.44-0.33,0.77c0.1,0.36,0.47,0.21,0.7,0.32
				c0.1,0.05,0.26-0.02,0.4-0.04c1.27-0.12,2.44-0.61,3.63-1.01c1.15-0.39,2.16-1.02,3.13-1.73c0.82-0.61,1.57-1.31,2.43-1.87
				c1.24-0.8,2.66-1.08,4.04-1.48c1.78-0.52,3.66-0.9,4.38-2.98c0.26-0.51,0.55-1,0.84-1.49C-83.44,46.65-82.56,45.55-82.02,44.25z
				 M-81.12,60.22c0.46-0.65,0.87-1.32,1.12-2.09c0.49-1.01,0.75-2.1,1.05-3.17c0.33-1.19,0.48-2.43,0.56-3.66
				c0.09-1.42,0.16-2.87-0.44-4.23c-0.07-0.54-0.43-0.92-0.77-1.29c-0.63-0.7-1.37-0.67-1.95,0.08c-0.77,1-1.18,2.16-1.55,3.34
				c-0.93,1.88-1.62,3.84-2.28,5.83c-0.5,1.51-1.34,2.79-2.73,3.68c-0.76,0.48-1.56,0.91-2.24,1.52c-0.13,0.05-0.26,0.08-0.38,0.15
				c-1.75,0.97-3.35,2.13-4.72,3.6c-0.73,0.78-1.48,1.56-1.25,2.78c0.26,0.97,1.04,1.17,1.88,1.2c1.93,0.08,3.8-0.33,5.66-0.79
				c1.01-0.25,1.97-0.62,2.83-1.17C-84.08,64.56-82.49,62.48-81.12,60.22z M-5.66-1.88c0.78-1.64,1.27-3.38,1.64-5.15
				C-3.84-7.86-3.7-8.7-3.77-9.56c-0.05-0.67-0.39-0.99-1.05-1c-0.4-0.01-0.79,0.06-1.15,0.23c-1.44,0.68-2.84,1.45-4.45,1.67
				c-0.75,0.13-1.49,0.25-2.24,0.38c-0.64,0.11-1.28,0.2-1.91,0.35c-1.43,0.34-2.89,0.55-4.27,1.06c-0.97,0.12-1.86,0.49-2.72,0.93
				c-2.14,0.78-3.96,1.86-4.25,4.42c-0.23,0.94-0.57,1.86-0.73,2.82c-0.26,0.36-0.33,0.8-0.44,1.21c-0.94,3.21-2.62,6.01-4.76,8.56
				c-0.91,1.08-1.73,2.25-2.55,3.4c-0.5,0.7-0.45,1.45,0.01,2.16c0.47,0.73,1.12,1.29,1.86,1.7c1.86,1.05,5.31,0.5,7.06-1.05
				c0.93-0.82,1.91-1.59,2.84-2.41c1.22-1.06,2.48-2.07,3.6-3.24c0.76-0.66,1.48-1.36,1.95-2.28c0.47-0.93,0.92-1.87,1.37-2.81
				c0.37-0.53,0.74-1.06,1.35-1.36c0.99-0.49,1.98-0.97,2.93-1.53c1.88-1.11,3.59-2.41,4.84-4.24C-6.21-1.02-5.94-1.45-5.66-1.88z
				 M-61.99,58.94c-0.15,0.16-0.12,0.37-0.12,0.56c-0.01,0.78,0.25,0.98,0.97,0.73c0.72-0.24,1.36-0.62,1.86-1.21
				c0.18-0.21,0.38-0.45,0.64-0.5c0.76-0.15,1.37-0.6,2.01-0.96c1.26-0.69,2.58-1.17,4.01-1.21c1.18-0.03,2.22,0.47,3.22,1.03
				c0.27,0.2,0.55,0.4,0.82,0.6c1.23,0.95,1.98,0.85,2.8-0.4c0.55-0.83,1.06-1.69,1.59-2.53c0.27-0.4,0.54-0.8,0.81-1.19
				c0.28-0.35,0.54-0.72,0.84-1.06c1.04-1.22,2.19-2.29,3.72-2.9c0.93-0.37,1.92-0.56,2.81-1.03c0.61-0.22,1.14-0.56,1.65-0.94
				c0.33-0.17,0.66-0.34,1-0.51c2.37-1.16,4.92-1.79,7.48-2.32c1.98-0.41,3.26-1.46,4.07-3.29c0.92-2.1,2.5-3.39,4.89-3.51
				c0.75-0.04,1.49-0.16,2.14-0.59c2.16-1.43,4.17-3.04,5.82-5.06c0.29-0.36,0.19-0.58-0.15-0.74c-0.61-0.29-1.25-0.48-1.91-0.57
				c-1.06-0.02-2.03,0.29-2.95,0.79c-2.01,1.05-4.21,1.61-6.31,2.43c-1.19,0.44-2.37,0.91-3.5,1.5c-0.13,0.03-0.27,0.04-0.4,0.09
				c-2.13,0.84-4.36,1.36-6.53,2.05c-1.13,0.35-2.24,0.73-3.28,1.31c-1.91,1.08-3.48,2.61-5.24,3.88c-0.16,0.11-0.33,0.21-0.49,0.32
				c-0.99,0.71-2.07,1.27-3.3,1.33c-1.21,0.06-2.39,0.16-3.56,0.5c-1.61,0.46-3.22,0.91-4.72,1.66c-0.19-0.03-0.34,0.05-0.51,0.12
				c-1.09,0.42-2.11,0.97-3.13,1.52c-1.12,0.61-2.2,1.3-3.11,2.22c-0.94,0.96-1.44,2.19-2.05,3.36
				C-60.87,55.88-61.6,57.34-61.99,58.94z M-75.48-23.26c-0.66-0.61-1.47-0.87-2.33-0.77c-1.06,0.12-2.06,0.46-3.06,0.85
				c-1.57,0.62-3.1,1.39-4.82,1.52c-0.2,0-0.41,0-0.61,0c-0.07,0-0.14,0-0.21,0c-0.31-0.06-0.62-0.11-0.92-0.2
				c-1.27-0.35-2.17-1.26-3.08-2.13c-0.65-0.62-1.33-1.15-2.21-1.41c-1.1-0.32-2.2-0.4-3.33-0.22c-1.51,0.24-2.9,0.76-4.1,1.71
				c-1.98,1.58-3.64,3.55-5.95,4.72c-0.49,0.25-0.5,0.67-0.09,1.13c0.62,0.7,1.11,1.48,1.52,2.31c0.25,0.91,0.72,1.75,0.85,2.69
				c0.15,0.61,0.29,1.22,0.45,1.83c0.35,1.32,1.08,2.4,2.33,2.95c1.53,0.66,3.17,1.03,4.79,1.41c1.02,0.26,1.97,0.7,2.94,1.08
				c0.74,0.47,1.56,0.75,2.36,1.07c1.97,0.79,3.75,0.06,5.48-0.79c1.73-0.85,3.4-1.79,5.12-2.66c1.58-0.8,3.31-1.28,4.76-2.33
				c0.77-0.55,1.5-1.14,1.87-2.06c0.24-0.39,0.48-0.78,0.72-1.17c0.48-0.77,0.75-1.59,0.7-2.51c-0.1-1.71-0.51-3.34-1.34-4.84
				C-74.12-21.92-74.61-22.76-75.48-23.26z M-87.13-42.31c-0.21,0.61-0.39,1.23-0.09,1.86c0.32,0.58,0.82,0.92,1.44,1.1
				c0.81,0.23,1.63,0.07,2.45,0.11c0.9,0.12,1.81,0.14,2.7,0.38c1.6,0.48,3.21,0.96,4.81,1.44c0.78,0.23,1.55,0.26,2.32-0.05
				c1.08-0.42,2.05-1.01,2.87-1.83c1.28-1.28,2.13-2.84,2.82-4.48c0.57-1.35,0.9-2.77,0.62-4.27c-0.35-1.83-1.44-2.81-3.31-2.8
				c-2.13,0.01-4.19-0.32-6.22-0.98c-1.74-0.57-3.51-0.8-5.36-0.61c-2.48,0.26-4.31,1.97-4.71,4.34
				C-87.11-46.18-87.04-44.24-87.13-42.31z M-12.31-55.24c2.96-0.06,5.18-0.97,7.36-2.59c1.07-0.79,0.95-1.63-0.28-2.05
				c-1.34-0.46-2.71-0.81-4.08-1.18c-1.13-0.31-2.25-0.29-3.2,0.47c-1.07,0.85-1.99,1.85-2.54,3.14c-0.27,0.62-0.11,1.09,0.39,1.52
				C-13.93-55.32-13.05-55.26-12.31-55.24z M-82.28,26.09c0,0.16,0,0.26,0,0.36c0.03,0.98,0.5,1.35,1.46,1.09
				c1.21-0.32,2.26-0.93,3.07-1.89c0.76-0.91,1.46-1.86,2.06-2.88c0.58-0.99,1.13-1.99,1.43-3.11c0.1-0.38,0.25-0.89-0.1-1.17
				c-0.39-0.32-0.79,0.05-1.11,0.29c-2.2,1.63-4.29,3.4-6.07,5.5C-81.97,24.79-82.39,25.39-82.28,26.09z M-61.96-68.43
				c-0.03,0.46,0.05,0.72,0.17,0.97c0.69,1.47,2.05,2.41,2.93,3.73c0.14,0.21,0.38,0.18,0.59,0.08c0.89-0.44,1.71-0.99,2.33-1.77
				c0.38-0.47,0.31-1.18-0.11-1.63c-0.4-0.43-0.83-0.83-1.3-1.2c-1.01-0.78-2-1.59-3-2.39c-0.38-0.31-0.74-0.19-0.94,0.19
				C-61.66-69.76-61.83-69.01-61.96-68.43z M-14.98,12.23c-0.84-0.02-1.81-0.04-2.75,0.25c-0.72,0.22-1.31,0.63-1.76,1.23
				c-0.15,0.2-0.22,0.43-0.12,0.67c0.11,0.25,0.35,0.2,0.56,0.23c0.53,0.06,0.97-0.18,1.39-0.43c0.68-0.4,1.41-0.51,2.17-0.4
				c0.56,0.08,1.12,0.21,1.67,0.39c1.22,0.4,2.4,0.31,3.51-0.39c0.21-0.13,0.38-0.29,0.38-0.56c0-0.29-0.22-0.4-0.44-0.5
				c-0.16-0.07-0.33-0.12-0.5-0.16C-12.18,12.22-13.52,12.21-14.98,12.23z M5.52,20.75c-1.08,0.19-2.19,0.51-3.11,1.29
				c-0.12,0.1-0.21,0.24-0.29,0.37c-0.26,0.43-0.16,0.85,0.26,1.11c0.32,0.2,0.66,0.22,1.02,0.15c1.22-0.24,2.11-0.99,2.92-1.88
				c0.58-0.62,0.27-0.85-0.39-1.01C5.84,20.76,5.71,20.77,5.52,20.75z M30.15,64.63c-0.01-0.72-0.41-0.98-1.04-0.66
				c-1.11,0.57-1.73,1.59-2.29,2.63c-0.24,0.43,0.13,0.61,0.45,0.61C28.77,67.19,30.04,66.34,30.15,64.63z"/>
			<path class="st36" d="M32.76,21.24c-1.46,1.54-2.7,3.22-3.68,5.1c-0.43,0.82-1,1.5-1.9,1.85c-0.46,0.17-0.94,0.27-1.39,0.11
				c-2.29-0.83-4.33-0.34-6.21,1.1c-0.09,0.07-0.2,0.13-0.3,0.19c-0.75,0.4-1,0.26-1.13-0.56c-0.13-0.79-0.07-1.63-0.58-2.32
				c0.61-0.31,1.23-0.61,1.84-0.92c1.35-0.67,1.22-0.41,0.29-1.43c-0.39-0.42-0.77-0.57-1.35-0.41c-1.17,0.31-2.34,0.14-3.49-0.22
				c-1.2-0.37-1.98-1.33-2.88-2.11c-0.92-0.79-1.84-1.54-3.14-1.54c0.05-1.25,0.44-2.43,0.67-3.64c0.34-1.8,0.63-3.61,1.19-5.36
				c0.2-0.63,0.39-1.28,0.99-1.69c0.45-0.31,0.91-0.33,1.4-0.12c0.68,0.29,1.27,0.73,1.82,1.2c1.77,1.53,3.79,2.29,6.14,2.38
				c2.13,0.08,4.23,0.46,6.14,1.51c0.19,0.77,0.62,1.39,1.16,1.95c0.29,0.3,0.55,0.65,0.22,1.03c-0.26,0.3-0.16,0.46,0.06,0.69
				c0.2,0.21,0.54,0.37,0.53,0.68c-0.01,0.57,0.31,0.48,0.64,0.37c0.96-0.33,1.94-0.48,2.95-0.56
				C32.76,19.42,32.76,20.33,32.76,21.24z M28.73,19.02c0.07-0.49-0.39-0.72-0.67-1c-0.26-0.25-0.54,0.06-0.78,0.21
				c-0.2,0.12-0.41,0.23-0.6,0.37c-0.71,0.53-1.44,1.03-2,1.72c-0.27,0.33-0.51,0.68-0.83,0.99c-0.37,0.35-0.89,0.43-1.23,0.79
				c-0.51,0.55-1.18,0.85-1.84,1.15c-1.16,0.52-1.16,0.5-0.22,1.4c0.23,0.22,0.44,0.35,0.72,0.14c0.57-0.45,1.25-0.8,1.74-1.3
				c0.73-0.74,1.51-1.44,2.16-2.26c0.39-0.5,0.86-0.96,1.61-0.96c0.42,0,0.86-0.13,1.22-0.36C28.31,19.69,28.75,19.57,28.73,19.02z"
				/>
			<path class="st36" d="M19.25,3.7c0.66-2.65,1.89-4.91,4.29-6.4c1.64-1.01,3.45-1.4,5.33-1.56c1.3-0.11,2.59,0.01,3.89,0
				c0,2.25,0,4.51,0,6.76c-1.39,0.03-2.78-0.06-4.17,0.22C27.1,3.01,25.64,3.4,24.26,4c-0.93,0.41-1.84,0.45-2.81,0.33
				C20.67,4.24,20.02,3.77,19.25,3.7z"/>
			<path class="st37" d="M21.73,48.26c0.24-0.4,0.64-0.62,0.97-0.91c0.88-0.76,1.52-1.68,1.91-2.77c0.2-0.56,0.57-1.03,0.92-1.5
				c0.04-0.04,0.08-0.09,0.11-0.13c0.03-0.04,0.07-0.08,0.1-0.12c0.16,0.01,0.3-0.07,0.44-0.12c0.63-0.21,1.13-0.69,1.8-0.84
				c1.57-0.36,3.15-0.58,4.76-0.34c0,0.4,0,0.79,0,1.19c-1.64,0.04-3.24,0.34-4.79,0.87c-0.69,0.23-1.34,0.56-1.84,1.12
				c-0.86,0.94-0.37,2.67,0.29,3.69c1.62,2.52,3.88,4.41,6.34,6.07c0,1.98,0,3.95,0,5.93c-0.12,0-0.24,0-0.36,0
				c-0.42-0.96-0.95-1.82-2.05-2.12c-0.78-0.21-1.56-0.09-2.33,0.04c-0.15,0.03-0.31,0.05-0.46,0.08c-0.42-0.15-0.15-0.47-0.09-0.63
				c0.36-0.99,0.42-2.07,0.33-3.05c-0.11-1.16-0.27-2.37-0.86-3.45C25.69,48.94,24.4,48.05,21.73,48.26z"/>
			<path class="st36" d="M32.76,54.44c-2.47-1.65-4.72-3.54-6.34-6.07c-0.66-1.02-1.15-2.74-0.29-3.69
				c0.51-0.56,1.15-0.88,1.84-1.12c1.55-0.52,3.15-0.82,4.79-0.87C32.76,46.61,32.76,50.53,32.76,54.44z"/>
			<path class="st37" d="M17.55,33.45c1.05-1.09,2.03-2.26,3.39-2.99c1.2-0.64,2.43-0.93,3.79-0.47c0.79,0.27,1.62,0.43,2.49,0.32
				c1-0.13,1.66-0.65,2.07-1.54c0.08-0.18,0.19-0.34,0.29-0.51c1.06,0,2.11-0.21,3.18-0.15c0,1.15,0,2.29,0,3.44
				c-0.29-0.01-0.59-0.05-0.88-0.06c-0.9-0.04-1.82,0.01-2.65,0.37c-0.79,0.34-1.51,0.83-2.12,1.47c-0.86,0.91-1.93,1.46-3.17,1.68
				c-0.75,0.13-1.52,0.27-2.24,0.51c-1.36,0.45-2.66,1.05-3.87,1.81c-0.51,0.32-1.02,0.66-1.33,1.21c-0.07,0-0.14,0-0.21,0
				c-0.05-0.02-0.1-0.04-0.16-0.06c-0.37-0.11-0.78-0.17-0.92-0.63c0.8-0.58,1.55-1.24,2.41-1.71c1.68-0.93,3.49-1.6,5.26-2.35
				c0.52-0.22,1.04-0.48,1.46-0.88c0.26-0.25,0.43-0.54,0.31-0.9c-0.12-0.35-0.48-0.41-0.78-0.44c-0.73-0.06-1.45,0.02-2.15,0.27
				c-0.92,0.34-1.85,0.67-2.74,1.09C18.54,33.15,18.08,33.43,17.55,33.45z"/>
			<path class="st36" d="M16.5,38.54c0.31-0.55,0.82-0.89,1.33-1.21c1.21-0.76,2.52-1.36,3.87-1.81c0.72-0.24,1.49-0.38,2.24-0.51
				c1.25-0.22,2.31-0.77,3.17-1.68c0.61-0.64,1.33-1.14,2.12-1.47c0.83-0.36,1.75-0.4,2.65-0.37c0.29,0.01,0.58,0.06,0.88,0.06
				c0,0.12,0,0.24,0,0.36c-1.28,0.84-2.36,1.88-3.34,3.04c-0.16,0.19-0.37,0.35-0.55,0.53c-0.5,0.18-0.88,0.54-1.11,0.97
				c-0.28,0.51-0.6,0.94-1.05,1.3c-0.31,0.25-0.47,0.61-0.22,1.03c-0.11,0.18-0.22,0.37-0.33,0.55c-0.57,0.93-1.28,1.14-2.25,0.66
				c-1.32-0.65-2.62-1.33-4.1-1.61c-0.9-0.17-1.71,0.18-2.56,0.24C16.97,38.64,16.73,38.68,16.5,38.54z"/>
			<path class="st37" d="M19.25,3.7c0.77,0.08,1.42,0.54,2.2,0.64c0.97,0.12,1.89,0.08,2.81-0.33c1.38-0.6,2.84-0.99,4.33-1.29
				c1.39-0.27,2.78-0.19,4.17-0.22c0,0.87,0,1.74,0,2.61C31.84,4.95,30.92,4.95,30,5c-0.93,0.05-1.88,0.12-2.69,0.69
				c-0.36,0.25-0.53,0.53-0.41,0.99c0.18,0.72,0.55,1.33,0.92,1.95c0.41,0.71,0.74,1.46,0.91,2.27c-0.74,0.53-1.54,0.83-2.47,0.59
				c-0.19-0.3-0.33-0.63-0.35-0.99c-0.05-0.85-0.44-1.58-0.83-2.29c-0.71-1.3-1.98-1.78-3.3-2.15c-1.04-0.29-2.08-0.57-3.12-0.85
				C18.76,4.68,19.04,4.2,19.25,3.7z"/>
			<path class="st36" d="M32.4,60.36c0.12,0,0.24,0,0.36,0c0,3.2,0,6.4,0,9.61c-1.24,0-1.48,0.21-1.54,1.27c-2.21,0-4.42,0-6.73,0
				c0.56-0.81,1.15-1.49,1.94-1.95c1.15-0.68,2.36-1.27,3.36-2.19C31.77,65.28,32.79,63.1,32.4,60.36z"/>
			<path class="st36" d="M28.71,10.91c-0.17-0.81-0.49-1.56-0.91-2.27c-0.36-0.63-0.74-1.24-0.92-1.95
				c-0.12-0.47,0.05-0.74,0.41-0.99C28.12,5.12,29.06,5.06,30,5c0.92-0.05,1.85-0.05,2.76,0.11c0,1.5,0,3,0,4.51
				C31.33,9.8,29.97,10.2,28.71,10.91z"/>
			<path class="st37" d="M32.76,18.51c-1,0.08-1.99,0.23-2.95,0.56c-0.33,0.11-0.65,0.2-0.64-0.37c0.01-0.31-0.33-0.47-0.53-0.68
				c-0.22-0.22-0.32-0.38-0.06-0.69c0.33-0.39,0.07-0.74-0.22-1.03c-0.55-0.56-0.97-1.18-1.16-1.95c0.81,0.02,1.41-0.47,2.03-0.89
				c0.19-0.13,0.38-0.27,0.57-0.4c0.25,0.22,0.49,0.45,0.74,0.67c0.66,0.56,1.36,1.04,2.23,1.22
				C32.76,16.14,32.76,17.32,32.76,18.51z"/>
			<path class="st36" d="M32.76,41.51c-1.61-0.23-3.19-0.02-4.76,0.34c-0.67,0.16-1.17,0.63-1.8,0.84
				c-0.15,0.05-0.28,0.13-0.44,0.12c0.57-0.96,1.24-1.85,1.91-2.74c0.08,0.34,0.36,0.24,0.58,0.25c1.57,0.06,3.05-0.36,4.52-0.83
				C32.76,40.17,32.76,40.84,32.76,41.51z"/>
			<path class="st36" d="M32.76,28.11c-1.06-0.06-2.12,0.15-3.18,0.15c0.88-1.71,1.86-3.35,3.18-4.77
				C32.76,25.03,32.76,26.57,32.76,28.11z"/>
			<path class="st36" d="M28.83,38.66c0.72-1.07,1.76-1.77,2.79-2.48c0.35-0.24,0.75-0.4,1.13-0.6c0,0.91,0,1.82,0,2.73
				c-0.68,0.18-1.36,0.41-2.05,0.53C30.09,38.94,29.42,39.08,28.83,38.66z"/>
			<path class="st36" d="M32.76,14.95c-0.87-0.18-1.57-0.66-2.23-1.22c-0.25-0.22-0.49-0.44-0.74-0.67
				c0.94-0.75,1.76-1.67,2.96-2.03C32.76,12.34,32.76,13.65,32.76,14.95z"/>
			<path class="st37" d="M28.83,38.66c0.59,0.42,1.25,0.28,1.88,0.18c0.69-0.11,1.37-0.35,2.05-0.53c0,0.4,0,0.79,0,1.19
				c-1.47,0.47-2.96,0.89-4.52,0.83c-0.22-0.01-0.5,0.09-0.58-0.25C28.05,39.6,28.38,39.08,28.83,38.66z"/>
			<path class="st37" d="M31.22,71.24c0.06-1.07,0.31-1.27,1.54-1.27c0,0.24,0,0.47,0,0.71C32.23,70.84,31.78,71.18,31.22,71.24z"/>
			<path class="st36" d="M9.53,38.55c-0.88,0.66-1.83,1.15-2.9,1.42c-1.05,0.26-1.91,0.83-2.6,1.66c-0.28,0.35-0.45,0.78-0.21,1.2
				c0.24,0.42,0.66,0.35,1.06,0.23c1.37-0.42,2.61-1.09,3.77-1.93c0.24-0.17,0.45-0.39,0.75-0.46c-0.04,1.44,0,2.88-0.15,4.31
				c-0.09,0.9-0.08,1.83-0.52,2.71c-1.08,2.18-2.87,3.08-5.18,3.19c-1.56,0.07-3.06-0.21-4.53-0.68c-1.85-0.58-3.71-0.95-5.68-0.9
				c-0.88,0.02-1.87-0.01-2.63-0.69c-1.26-1.12-1.58-2.62-1.29-4.15c0.56-2.95,1.89-5.53,4.28-7.46c1.53-1.24,3.19-1.85,5.17-1.02
				c0.96,0.4,1.98,0.66,2.98,0.96c0.24,0.07,0.56,0.21,0.69-0.19c0.04,0.11,0.09,0.22,0.12,0.33c0.49,1.52,1.75,1.83,2.9,0.73
				c0.13-0.12,0.27-0.23,0.4-0.34c0.21,0.21,0.48,0.13,0.72,0.12c0.61-0.01,1.21,0.02,1.78,0.27C8.86,38.02,9.09,38.44,9.53,38.55z"
				/>
			<path class="st37" d="M2.53,36.76c-0.13,0.4-0.45,0.26-0.69,0.19c-1-0.3-2.02-0.56-2.98-0.96C-3.11,35.15-4.77,35.77-6.3,37
				c-2.38,1.93-3.72,4.51-4.28,7.46c-0.29,1.53,0.03,3.02,1.29,4.15c0.76,0.67,1.75,0.71,2.63,0.69c1.96-0.04,3.83,0.32,5.68,0.9
				c1.47,0.46,2.98,0.75,4.53,0.68c2.31-0.11,4.1-1.01,5.18-3.19c0.44-0.89,0.43-1.81,0.52-2.71c0.15-1.43,0.11-2.87,0.15-4.31
				c0.38-0.33,0.82-0.54,1.29-0.7c0.03,0.05,0.09,0.11,0.08,0.15c-0.39,2.22-0.17,4.48-0.44,6.71c-0.12,1-0.36,1.98-0.64,2.96
				c-0.22,0.78-0.78,1.43-0.8,2.27c-1.3,0.84-2.74,1.36-4.15,1.97c-1.24,0.54-2.3,1.34-3.29,2.26c-0.69,0.64-1.42,1.24-2.13,1.86
				c-0.36-0.28-0.41-0.75-0.66-1.1c-0.92-1.27-1.76-2.6-2.93-3.68c-0.78-0.72-1.61-1.39-2.66-1.68c-2.06-0.58-3.89-0.05-5.61,1.14
				c-1.05,0.72-1.78,1.7-2.54,2.69c-0.09,0.12-0.16,0.36-0.32,0.3c-0.51-0.18-0.99,0.13-1.52,0.1c0.07-0.2,0.08-0.37,0.18-0.49
				c0.57-0.68,0.81-1.52,1.13-2.32c0.36-0.91,0.15-1.49-0.67-2.01c-0.68-0.43-1.45-0.61-2.21-0.8c1.05-1.21,2.34-2.16,3.55-3.2
				c1.14-0.98,2.11-2.09,1.91-3.77c0.4-1.2,1.06-2.27,1.71-3.34c1.72-2.81,3.97-5.03,7.1-6.26c1.16-0.46,2.28-0.47,3.45-0.08
				c1.03,0.34,1.98,0.88,3.04,1.13C2.37,35.43,2.45,36.09,2.53,36.76z"/>
			<path class="st37" d="M10.69-4.49c0.32,0.23,0.65,0.45,0.97,0.68c0.04,0.04,0.08,0.08,0.12,0.12c0,0,0.01,0,0.01,0
				c-0.08,0.32-0.2,0.64-0.24,0.97c-0.13,1.09-0.05,2.1,0.9,2.9c0.68,0.57,1.38,1.09,2.17,1.49c0.64,0.33,1.25,0.75,2,0.83
				c-0.15,0.65-0.67,1.04-1.05,1.53c-0.47-0.1-0.88-0.33-1.31-0.54c-0.91-0.44-1.87-0.77-2.89-0.75c-1.38,0.03-2.64,0.57-3.85,1.2
				C6,4.75,4.51,5.62,2.96,6.39C1.61,7.06,0.18,7.54-1.15,8.26c-1.23,0.67-2.29,1.52-2.99,2.76c-1.47,0.36-2.94,0.71-4.48,0.6
				c-0.11-0.31-0.34-0.67-0.62-0.59c-0.86,0.25-1.76-0.01-2.61,0.25c-1.18-0.03-2.37,0.08-3.55-0.11c-0.19-0.03-0.39-0.08-0.57-0.15
				c-0.33-0.12-0.44-0.35-0.22-0.64c0.74-1.02,1.11-2.22,1.71-3.3c0.53-0.94,1.47-1.28,2.4-1.59c1.05-0.35,2.08-0.74,3.08-1.2
				c0.1,0,0.19-0.02,0.24-0.11c0,0,0,0,0,0c0.71-0.03,1.34-0.34,1.96-0.63c1.03-0.48,1.9-1.15,1.82-2.47
				c0.54-0.68,0.8-1.5,1.15-2.28c1.34,0.51,2.75,0.39,4.14,0.41c0.43,0,0.81-0.11,1.16-0.35C3.38-2.4,4.85-4.09,6.35-5.74
				c0.47-0.51,0.72-1.22,1.36-1.58c0.39,0.44,0.81,0.87,1.12,1.38C8.72-5.85,8.59-5.79,8.51-5.68C7.76-4.65,7.02-3.61,6.29-2.57
				C5.45-1.4,4.57-0.25,3.44,0.65c-1.06,0.84-2.2,1.57-3.31,2.35c-1.57-0.86-2.93-0.7-3.94,0.47C-4.3,4.03-4.36,4.42-4.01,4.99
				C-4.35,5.42-4.9,5.52-5.35,5.76c-0.19,0.1-0.41,0.13-0.45,0.4c-0.47-0.04-0.82,0.29-1.25,0.4c-0.12,0.02-0.24,0.02-0.34,0.06
				c-1.78,0.62-3.56,1.23-5.34,1.86c-0.24,0.08-0.47,0.21-0.68,0.35C-13.68,9-13.64,9.19-13.36,9.3c0.14,0.06,0.31,0.07,0.46,0.07
				c1.3,0,2.6,0,3.91,0c0.57,0,1.18-0.07,1.67-0.25c0.91-0.34,1.87-0.58,2.74-1.05c0.19-0.01,0.32-0.14,0.46-0.23
				c0.64-0.08,1.2-0.4,1.77-0.64c2.29-0.98,4.55-2.03,6.82-3.07c0.48-0.22,0.95-0.47,1.39-0.76c2.31-1.56,3.06-4.09,4.02-6.49
				C10.07-3.62,10.09-4.23,10.69-4.49z M2.76,0.6C2.77,0.61,2.79,0.62,2.8,0.63C2.79,0.62,2.77,0.61,2.76,0.6
				C2.72,0.56,2.68,0.52,2.64,0.48C2.6,0.44,2.56,0.4,2.52,0.36C2.48,0.32,2.44,0.29,2.4,0.25C2.36,0.21,2.32,0.17,2.28,0.13
				C2.24,0.09,2.2,0.05,2.16,0.01c0.02-0.34-0.21-0.42-0.47-0.47C1.65-0.5,1.61-0.54,1.57-0.58C1.56-0.59,1.54-0.6,1.53-0.61
				C1.54-0.6,1.56-0.59,1.57-0.58C1.61-0.54,1.65-0.5,1.69-0.47c0.15,0.22-0.06,0.43-0.06,0.67C1.84,0.13,2,0.07,2.17,0.01
				C2.2,0.05,2.24,0.09,2.28,0.13C2.32,0.17,2.36,0.21,2.4,0.25c0.04,0.04,0.08,0.08,0.12,0.12C2.56,0.41,2.6,0.45,2.64,0.49
				C2.68,0.52,2.72,0.56,2.76,0.6z"/>
			<path class="st36" d="M2.28,34.77c-1.06-0.25-2.01-0.79-3.04-1.13c-1.17-0.39-2.29-0.38-3.45,0.08c-3.13,1.23-5.38,3.45-7.1,6.26
				c-0.65,1.07-1.32,2.14-1.71,3.34c-0.27-0.74-0.58-1.46-0.92-2.17c-0.38-0.8,0.05-1.42,0.59-1.95c1.2-1.2,2.47-2.33,3.64-3.56
				c1.02-1.07,1.9-2.26,2.95-3.3c1.7-1.67,3.4-3.34,5.34-4.74c0.55-0.4,1.14-0.73,1.77-0.93c1.98-0.63,3.84-1.56,5.82-2.15
				c1.87-0.56,3.75-0.65,5.61,0.11c0.04,0.11,0.04,0.25,0.11,0.32c1.3,1.39,1.74,3.03,1.68,4.91c-0.06,1.95-0.71,3.52-2.45,4.53
				c-0.98,0.57-1.92,1.24-3.15,1.07c0.45-0.86,1.13-1.55,1.7-2.33c0.76-1.03,1.2-2.14,1.32-3.39c0.09-0.89-0.51-1.85-1.57-1.77
				c-0.65,0.05-1.23,0.19-1.82,0.44c-1.11,0.48-2.1,1.15-3.09,1.83c-1,0.69-1.88,1.51-2.08,2.81C2.36,33.63,2.26,34.19,2.28,34.77z"
				/>
			<path class="st36" d="M-4.14,11.02c0.7-1.24,1.76-2.09,2.99-2.76c1.33-0.72,2.76-1.2,4.11-1.87C4.51,5.62,6,4.75,7.53,3.96
				c1.21-0.62,2.46-1.17,3.85-1.2c1.02-0.02,1.98,0.31,2.89,0.75c0.42,0.21,0.84,0.44,1.31,0.54c-0.64,0.8-1.48,1.36-2.38,1.82
				c-1.6,0.82-2.61,2.1-3.23,3.76c-0.93,2.5-1.55,5.09-2.34,7.63c-0.39,1.25-1.05,1.81-2.34,1.84c-1.33,0.04-2.5,0.49-3.45,1.46
				c-0.48,0.5-1.03,0.92-1.64,1.25c-0.2,0.11-0.39,0.19-0.6,0c-0.19-0.18-0.08-0.36-0.04-0.55c0.14-0.56,0.47-1.04,0.63-1.59
				c0.42-1.5,0.3-2.84-0.96-3.92c-0.09-0.08-0.18-0.16-0.24-0.26c-0.84-1.3-0.91-1.8,0.26-2.79c1.99-1.7,4.24-3,6.54-4.23
				c1.43-0.77,2.84-1.54,3.82-2.9c0.32-0.45,0.67-0.88,0.76-1.44c0.04-0.25,0.03-0.52-0.22-0.7C9.87,3.26,9.62,3.36,9.41,3.51
				C8.65,4.03,7.89,4.56,7.15,5.11C4.86,6.8,2.56,8.46,0.04,9.79C-1.27,10.48-2.72,10.7-4.14,11.02z"/>
			<path class="st36" d="M6.78,54.55c1.87-0.71,3.8-1.17,5.77-1.49c1.02-0.17,1.98,0.22,2.55,1.16c0.51,0.86,0.73,1.79,0.12,2.74
				c-0.16,0.24-0.36,0.42-0.61,0.55c-1.22,0.62-2.04,1.57-2.47,2.88c-0.56,1.71-1.84,2.62-3.55,2.92c-1.63,0.29-2.93,1.11-4.07,2.26
				c-0.27,0.28-0.49,0.63-0.88,0.77c-0.68-0.59-1.55-0.65-2.36-0.84c-1.08-0.26-1.81-1.11-1.56-2c0.18-0.66,0.54-1.26,0.97-1.81
				c0.68-0.87,1.49-1.62,2.1-2.55c0.8-1.21,1.68-2.36,2.85-3.27C6.07,55.51,6.57,55.14,6.78,54.55z"/>
			<path class="st36" d="M21.73,48.26c2.67-0.21,3.96,0.68,5.21,2.97c0.59,1.08,0.76,2.29,0.86,3.45c0.09,0.99,0.03,2.06-0.33,3.05
				c-0.06,0.16-0.33,0.48,0.09,0.63c-1.79,0.5-3.47,1.31-5.2,1.97c-1.06,0.4-2.17,0.37-3.09-0.53c-0.39-0.38-0.8-0.75-1.15-1.18
				c-1.1-1.35-0.93-2.9-0.62-4.4C18.02,51.65,19.65,49.78,21.73,48.26z"/>
			<path class="st36" d="M14.15,67.13c-1.93-0.17-3.75,0.18-5.43,1.19c-0.24,0-0.48,0.02-0.71-0.02c-1.04-0.15-2.12-0.19-3.02-0.83
				c1.1-1.56,2.73-2.12,4.51-2.52c1.27-0.29,2.55-0.72,3.57-1.63c0.76-0.67,1.29-1.53,1.85-2.37c0.69-1.03,1.67-1.08,2.46-0.11
				c1.59,1.91,3.25,1.98,5.33,1.1c1.29-0.54,2.46-1.33,3.76-1.84c-0.02,0.08-0.02,0.16-0.06,0.22c-1.08,1.66-2.61,2.74-4.45,3.41
				c-1.19,0.44-2.46,0.6-3.64,1.08c-0.3,0.12-0.49,0.25-0.56,0.59c-0.07,0.3-0.28,0.56-0.63,0.5c-0.64-0.11-1.22-0.16-1.44,0.64
				c0,0.02-0.07,0.03-0.1,0.03C15.01,66.51,14.64,66.99,14.15,67.13z"/>
			<path class="st36" d="M-5.8,6.16c0.04-0.26,0.26-0.29,0.45-0.4c0.45-0.25,1-0.35,1.34-0.78c0.21,0.1,0.37,0.33,0.62,0.3
				c0.78-0.09,1.6,0,2.31-0.34c0.99-0.48,1.68-0.96,1.19-1.95c1.11-0.78,2.25-1.51,3.31-2.35C4.57-0.25,5.45-1.4,6.29-2.57
				c0.74-1.04,1.48-2.07,2.23-3.11c0.08-0.11,0.21-0.17,0.32-0.26c0.62,0.48,1.24,0.97,1.86,1.45c-0.6,0.26-0.62,0.87-0.83,1.37
				c-0.96,2.4-1.71,4.93-4.02,6.49C5.41,3.66,4.94,3.91,4.46,4.13C2.19,5.17-0.07,6.23-2.36,7.21c-0.57,0.24-1.13,0.56-1.77,0.64
				c0.11-0.14,0.22-0.28,0.31-0.42c0.18-0.28,0.24-0.61,0.1-0.9c-0.15-0.29-0.49-0.35-0.8-0.35C-4.94,6.16-5.37,6.16-5.8,6.16z"/>
			<path class="st36" d="M8.9,52.05c0.02-0.84,0.58-1.49,0.8-2.27c0.28-0.98,0.52-1.96,0.64-2.96c0.26-2.23,0.04-4.49,0.44-6.71
				c0.01-0.04-0.05-0.1-0.08-0.15c1.07-0.39,2.11-0.35,3.12,0.19c-0.16,0.13-0.23,0.3-0.28,0.5c-0.17,0.79-0.29,1.6-0.21,2.4
				c0.22,2.35,1.16,4.22,3.53,5.08c-0.57,0.63-1.2,1.21-2.01,1.5C12.83,50.35,10.84,51.15,8.9,52.05z"/>
			<path class="st36" d="M28.48,60.6c0.29,0.81-0.1,1.49-0.44,2.17c-0.35,0.69-0.94,1.21-1.41,1.82c-0.83,1.09-1.39,2.33-2.11,3.48
				c-0.63,1-1.36,1.93-2.04,2.9c-0.15,0.21-0.32,0.31-0.59,0.3c-0.69-0.02-1.38-0.01-2.07,0c-0.36,0.01-0.52-0.06-0.34-0.47
				c0.78-1.76-0.29-2.73-1.59-2.97c-0.3-0.06-0.64-0.04-0.91-0.23c0.08-0.18,0.19-0.34,0.24-0.53c0.28-1.04,0.91-1.57,2.19-1.76
				c-0.55,0.58-1.04,1.1-1.53,1.62c0.03,0.04,0.07,0.08,0.1,0.12c1.16-0.79,2.5-1.13,3.82-1.46c1.95-0.49,3.48-1.6,4.72-3.15
				C27.09,61.72,27.6,60.97,28.48,60.6z"/>
			<path class="st37" d="M7.97,35.46c1.23,0.16,2.17-0.5,3.15-1.07c1.74-1.02,2.38-2.58,2.45-4.53c0.06-1.88-0.39-3.52-1.68-4.91
				c-0.07-0.08-0.08-0.21-0.11-0.32c1.02,0.46,2.05,0.91,3.07,1.39c0.62,0.3,1.06,0.81,1.42,1.39c0.02,0.28-0.1,0.49-0.28,0.69
				c-1.07,1.16-1.33,3.17-0.21,4.39c-0.49,1.23-1.2,2.32-2.25,3.13c-1.31,1.01-2.59,2.06-4,2.94c-0.44-0.11-0.66-0.52-1.06-0.69
				c-0.57-0.24-1.17-0.28-1.78-0.27c-0.24,0.01-0.51,0.09-0.72-0.12c0.59-0.63,1.19-1.26,1.78-1.89
				C7.84,35.59,7.92,35.55,7.97,35.46L7.97,35.46z"/>
			<path class="st36" d="M18.64,5.22c1.04,0.28,2.08,0.56,3.12,0.85c1.33,0.37,2.6,0.85,3.3,2.15c0.39,0.72,0.78,1.44,0.83,2.29
				c0.02,0.36,0.16,0.69,0.35,0.99c-1.28-0.15-2.58-0.27-3.85-0.47c-1.37-0.21-2.6-0.78-3.62-1.74c-0.88-0.83-1.11-2.09-0.61-3.2
				C18.29,5.79,18.4,5.47,18.64,5.22z"/>
			<path class="st36" d="M14.85,40.45c1.69,0.17,3.42,0.04,5.04,0.73c1.43,0.61,1.8,1.69,0.96,2.91c-0.23,0.34-0.5,0.66-0.8,0.94
				c-0.61,0.58-1.24,1.14-1.87,1.71c-0.41-0.18-0.8-0.42-1.23-0.54c-1.25-0.33-2.69-2.3-2.59-3.65
				C14.41,41.81,14.67,41.15,14.85,40.45z"/>
			<path class="st36" d="M6.94,69.76c-0.17,0.44-0.34,0.88-0.51,1.31c-0.11,0.29-0.37,0.18-0.56,0.18
				c-3.25,0.01-6.51,0.01-9.76,0.01c-0.41,0-0.83,0-1.24,0c-0.22,0-0.3-0.09-0.15-0.29c0.48-0.64,0.95-1.3,1.45-1.93
				c0.3-0.39,0.7-0.52,1.2-0.4c1.74,0.43,3.48,0.24,5.21-0.08c0.45-0.08,0.85-0.32,1.28-0.45c0.01,0.23,0.2,0.31,0.34,0.45
				C4.97,69.28,5.91,69.62,6.94,69.76z"/>
			<path class="st37" d="M6.78,54.55c-0.21,0.59-0.71,0.96-1.16,1.31c-1.17,0.91-2.05,2.05-2.85,3.27c-0.61,0.93-1.42,1.68-2.1,2.55
				c-0.43,0.55-0.79,1.15-0.97,1.81c-0.25,0.89,0.49,1.75,1.56,2c0.81,0.19,1.68,0.26,2.36,0.84c-0.27,0.38-0.67,0.55-1.09,0.69
				c-0.05,0.03-0.1,0.06-0.15,0.09c-0.07,0.01-0.14,0.01-0.21,0.02c-0.58-0.44-1.31-0.52-1.95-0.8c-1.65-0.72-2.32-1.93-1.61-3.6
				c0.37-0.88,0.7-1.78,0.79-2.75c1.8-1.43,3.13-3.4,5.21-4.5C5.3,55.1,6,54.72,6.78,54.55z"/>
			<path class="st37" d="M28.48,60.6c-0.88,0.37-1.39,1.13-1.96,1.83c-1.24,1.55-2.77,2.66-4.72,3.15
				c-1.33,0.33-2.66,0.67-3.82,1.46c-0.03-0.04-0.07-0.08-0.1-0.12c0.49-0.52,0.98-1.03,1.53-1.62c-1.28,0.18-1.91,0.72-2.19,1.76
				c-0.05,0.19-0.16,0.35-0.24,0.53c-0.11-0.01-0.22-0.02-0.33-0.03c-0.13-0.14-0.25-0.28-0.38-0.43c-0.05-0.05-0.1-0.1-0.16-0.15
				c-0.01,0.02-0.02,0.03-0.03,0.05c0.06,0.03,0.12,0.06,0.19,0.09c-0.01,0.14,0.01,0.29-0.14,0.38c-0.66-0.15-1.36-0.11-1.99-0.38
				c0.49-0.14,0.86-0.62,1.44-0.53c0.03,0,0.1-0.01,0.1-0.03c0.22-0.8,0.8-0.75,1.44-0.64c0.35,0.06,0.56-0.2,0.63-0.5
				c0.07-0.34,0.26-0.47,0.56-0.59c1.18-0.48,2.45-0.65,3.64-1.08c1.84-0.68,3.36-1.76,4.45-3.41c0.04-0.06,0.04-0.15,0.06-0.22
				c0.36-0.18,0.74-0.33,1.15-0.34C28.23,59.77,28.43,59.96,28.48,60.6z"/>
			<path class="st36" d="M17.55,33.45c0.53-0.01,0.99-0.3,1.44-0.51c0.89-0.42,1.82-0.75,2.74-1.09c0.7-0.26,1.42-0.33,2.15-0.27
				c0.31,0.02,0.66,0.08,0.78,0.44c0.12,0.36-0.05,0.66-0.31,0.9c-0.42,0.4-0.94,0.66-1.46,0.88c-1.77,0.75-3.58,1.42-5.26,2.35
				c-0.86,0.47-1.61,1.13-2.41,1.71c-0.36-0.8,0-1.47,0.45-2.07C16.26,34.97,16.92,34.22,17.55,33.45z"/>
			<path class="st36" d="M-0.6,59.97c-0.09,0.97-0.41,1.87-0.79,2.75c-0.71,1.68-0.04,2.89,1.61,3.6c0.65,0.28,1.37,0.37,1.95,0.8
				c-1.1,0.55-2.24,0.81-3.47,0.57c-0.25-0.05-0.48-0.18-0.67-0.37c-1.16-1.21-2.1-2.55-2.38-4.25c-0.15-0.92,0.16-1.42,1.02-1.81
				C-2.4,60.85-1.5,60.4-0.6,59.97z"/>
			<path class="st36" d="M16.62,2.51c-0.75-0.08-1.36-0.51-2-0.83c-0.78-0.4-1.49-0.92-2.17-1.49c-0.94-0.8-1.03-1.81-0.9-2.9
				c0.04-0.33,0.16-0.65,0.24-0.97c1.14,0.44,2.15,1.11,3.14,1.82c0.64,0.46,1.26,0.93,1.71,1.6C17.28,0.65,17.29,1.61,16.62,2.51z"
				/>
			<path class="st37" d="M8.84,20.07c1.3,0,2.22,0.75,3.14,1.54c0.9,0.78,1.68,1.73,2.88,2.11c1.15,0.36,2.31,0.53,3.49,0.22
				c0.58-0.15,0.96-0.01,1.35,0.41c0.93,1.02,1.05,0.75-0.29,1.43c-0.61,0.31-1.23,0.61-1.84,0.92c-0.89-1.46-2.3-2.29-3.74-3.07
				c-1.4-0.76-2.83-1.47-4.26-2.18C8.98,21.16,8.71,20.73,8.84,20.07z"/>
			<path class="st37" d="M14.85,40.45c-0.18,0.7-0.44,1.36-0.5,2.11c-0.1,1.35,1.35,3.32,2.59,3.65c0.43,0.11,0.82,0.35,1.23,0.54
				c-0.44,0.47-0.88,0.93-1.32,1.4c-2.37-0.86-3.31-2.73-3.53-5.08c-0.08-0.81,0.04-1.61,0.21-2.4c0.04-0.2,0.12-0.37,0.28-0.5
				C14.16,40.24,14.54,40.22,14.85,40.45z"/>
			<path class="st37" d="M9.14,69.61c0.71-0.64,1.58-0.93,2.5-1.04c1.35-0.17,2.69-0.07,4.02,0.25c0.09,0.28-0.07,0.49-0.22,0.69
				c-0.39,0.53-0.73,1.1-0.94,1.73c-0.43,0-0.87,0-1.3,0c-0.03-0.09-0.09-0.18-0.1-0.27c-0.14-1.08-0.23-1.13-1.31-1.39
				C10.89,69.37,10.02,69.75,9.14,69.61z"/>
			<path class="st37" d="M5.52,20.75c0.19,0.02,0.32,0.01,0.43,0.04c0.66,0.16,0.96,0.39,0.39,1.01c-0.82,0.88-1.7,1.63-2.92,1.88
				c-0.37,0.07-0.7,0.05-1.02-0.15c-0.42-0.26-0.53-0.69-0.26-1.11c0.08-0.13,0.17-0.27,0.29-0.37C3.33,21.26,4.44,20.94,5.52,20.75
				z"/>
			<path class="st36" d="M9.14,69.61c0.88,0.14,1.75-0.24,2.64-0.03c1.08,0.25,1.17,0.31,1.31,1.39c0.01,0.09,0.07,0.18,0.1,0.27
				c-1.66,0.01-3.32,0.01-4.97,0.01c-0.15,0-0.35,0.07-0.42-0.11c-0.08-0.18,0.05-0.35,0.16-0.48C8.3,70.27,8.65,69.86,9.14,69.61z"
				/>
			<path class="st36" d="M30.15,64.63c-0.11,1.71-1.38,2.56-2.89,2.58c-0.32,0-0.69-0.17-0.45-0.61c0.57-1.04,1.19-2.06,2.29-2.63
				C29.74,63.65,30.14,63.92,30.15,64.63z"/>
			<path class="st36" d="M14.49,71.24c0.21-0.63,0.55-1.19,0.94-1.73c0.15-0.2,0.31-0.41,0.22-0.69c0.69,0.27,1.44,0.39,1.96,1
				c0.24,0.29,0.39,0.59,0.27,0.97c-0.1,0.3-0.25,0.49-0.63,0.48C16.33,71.24,15.41,71.25,14.49,71.24z"/>
			<path class="st37" d="M6.94,69.76c-1.03-0.14-1.97-0.48-2.75-1.21c-0.14-0.13-0.34-0.21-0.34-0.45c0.38-0.21,0.76-0.42,1.15-0.64
				c0.91,0.65,1.98,0.68,3.02,0.83c0.23,0.03,0.47,0.01,0.71,0.02C8.15,68.82,7.58,69.34,6.94,69.76z"/>
			<path class="st36" d="M15.78,32.49c-1.11-1.22-0.86-3.23,0.21-4.39c0.18-0.19,0.3-0.41,0.28-0.69
				C17.04,29.19,16.74,30.87,15.78,32.49z"/>
			<path class="st37" d="M26.48,38.78c-0.25-0.41-0.09-0.77,0.22-1.03c0.45-0.37,0.77-0.79,1.05-1.3c0.23-0.43,0.61-0.79,1.11-0.97
				C28.15,36.64,27.16,37.6,26.48,38.78z"/>
			<path class="st36" d="M16.28,67.13c0.13,0.14,0.25,0.29,0.38,0.43c-0.18,0.06-0.35,0.08-0.51-0.05
				C16.28,67.42,16.27,67.27,16.28,67.13L16.28,67.13z"/>
			<path class="st36" d="M25.65,42.94c-0.04,0.04-0.08,0.09-0.11,0.13C25.57,43.02,25.61,42.98,25.65,42.94z"/>
			<path class="st36" d="M2.39,67.1c0.05-0.03,0.1-0.06,0.15-0.09C2.49,67.05,2.44,67.07,2.39,67.1z"/>
			<path class="st36" d="M16.13,38.48c0.05,0.02,0.1,0.04,0.16,0.06C16.23,38.52,16.18,38.5,16.13,38.48z"/>
			<path class="st37" d="M28.73,19.02c0.02,0.55-0.42,0.68-0.73,0.88c-0.36,0.23-0.8,0.36-1.22,0.36c-0.75,0-1.22,0.45-1.61,0.96
				c-0.64,0.83-1.43,1.52-2.16,2.26c-0.48,0.49-1.16,0.85-1.74,1.3c-0.28,0.22-0.49,0.08-0.72-0.14c-0.94-0.91-0.94-0.88,0.22-1.4
				c0.66-0.3,1.33-0.6,1.84-1.15c0.34-0.36,0.86-0.43,1.23-0.79c0.31-0.31,0.56-0.65,0.83-0.99c0.56-0.68,1.29-1.19,2-1.72
				c0.19-0.14,0.4-0.25,0.6-0.37c0.24-0.15,0.52-0.46,0.78-0.21C28.34,18.3,28.79,18.53,28.73,19.02z"/>
			<path class="st35" d="M7.74,35.58c-0.59,0.63-1.19,1.26-1.78,1.89c-0.13,0.11-0.28,0.22-0.4,0.34c-1.15,1.11-2.42,0.79-2.9-0.73
				c-0.04-0.11-0.08-0.22-0.12-0.33c-0.08-0.66-0.17-1.33-0.25-1.99c-0.02-0.57,0.07-1.14,0.16-1.7c0.2-1.3,1.08-2.12,2.08-2.81
				c0.98-0.68,1.98-1.36,3.09-1.83c0.58-0.25,1.17-0.4,1.82-0.44c1.06-0.08,1.65,0.88,1.57,1.77c-0.12,1.25-0.56,2.37-1.32,3.39
				c-0.57,0.77-1.25,1.47-1.7,2.33l0,0C7.87,35.46,7.8,35.5,7.74,35.58z M3.69,36.19c0,0.1,0,0.2,0.01,0.29
				c0.1,0.77,0.4,0.89,1.02,0.44c0.48-0.35,0.84-0.8,1.13-1.32c0.31-0.28,0.48-0.66,0.74-0.98c0.98-1.17,2.06-2.27,2.87-3.58
				c0.3-0.49,0.68-1.07,0.23-1.56c-0.41-0.45-1.04-0.21-1.55,0.03c-1.05,0.49-2.08,1.05-3,1.76c-0.66,0.5-1.27,1.09-1.49,1.93
				c-0.18,0.67-0.09,1.37-0.05,2.06c0,0.19,0,0.37,0,0.56C3.58,35.95,3.59,36.08,3.69,36.19z"/>
			<path class="st35" d="M0.12,2.99c0.49,0.99-0.21,1.47-1.19,1.95C-1.78,5.29-2.61,5.2-3.38,5.28c-0.25,0.03-0.42-0.2-0.62-0.3
				c-0.35-0.56-0.3-0.96,0.19-1.53C-2.81,2.29-1.45,2.13,0.12,2.99z M-1.68,3.09c-0.56,0.06-1.08,0.4-1.48,0.95
				C-3.22,4.13-3.28,4.24-3.2,4.36C-3.12,4.5-2.98,4.54-2.84,4.5c0.5-0.15,1.04-0.2,1.51-0.45c0.23-0.12,0.58-0.2,0.49-0.56
				C-0.92,3.15-1.24,3.1-1.68,3.09z"/>
			<path class="st36" d="M2.17,0.01C2,0.07,1.84,0.13,1.63,0.21c0.01-0.24,0.21-0.45,0.06-0.67l0,0C1.95-0.41,2.19-0.33,2.17,0.01
				C2.16,0.01,2.17,0.01,2.17,0.01z"/>
			<path class="st36" d="M2.28,0.13C2.24,0.09,2.2,0.05,2.17,0.01l0,0C2.2,0.05,2.24,0.09,2.28,0.13L2.28,0.13z"/>
			<path class="st36" d="M2.28,0.13C2.32,0.17,2.36,0.21,2.4,0.25l0,0C2.36,0.21,2.32,0.17,2.28,0.13C2.28,0.13,2.28,0.13,2.28,0.13
				z"/>
			<path class="st36" d="M2.4,0.25c0.04,0.04,0.08,0.08,0.12,0.12l0,0C2.48,0.33,2.44,0.29,2.4,0.25C2.4,0.25,2.4,0.25,2.4,0.25z"/>
			<path class="st36" d="M2.52,0.36C2.56,0.4,2.6,0.44,2.64,0.48l0,0C2.6,0.45,2.56,0.41,2.52,0.36L2.52,0.36z"/>
			<path class="st36" d="M2.64,0.48C2.68,0.52,2.72,0.56,2.76,0.6l0,0C2.72,0.56,2.68,0.52,2.64,0.48C2.64,0.49,2.64,0.48,2.64,0.48
				z"/>
			<path class="st36" d="M2.76,0.6C2.77,0.61,2.79,0.62,2.8,0.63C2.79,0.62,2.77,0.61,2.76,0.6C2.76,0.6,2.76,0.6,2.76,0.6z"/>
			<path class="st36" d="M7.74,35.58c0.06-0.08,0.14-0.12,0.24-0.12C7.92,35.55,7.84,35.59,7.74,35.58z"/>
			<path class="st36" d="M16.28,67.13c-0.06-0.03-0.12-0.06-0.19-0.09c0.01-0.02,0.02-0.03,0.03-0.05
				C16.17,67.03,16.22,67.08,16.28,67.13L16.28,67.13z"/>
			<path class="st36" d="M3.61,35.25c-0.04-0.69-0.12-1.38,0.05-2.06c0.22-0.84,0.83-1.43,1.49-1.93c0.93-0.7,1.95-1.26,3-1.76
				c0.5-0.24,1.14-0.47,1.55-0.03c0.45,0.49,0.08,1.07-0.23,1.56c-0.81,1.31-1.89,2.41-2.87,3.58c-0.27,0.32-0.43,0.7-0.74,0.98
				C5.12,35.43,4.37,35.33,3.61,35.25z"/>
			<path class="st37" d="M3.61,35.25c0.76,0.07,1.51,0.18,2.25,0.35c-0.29,0.51-0.65,0.96-1.13,1.32c-0.62,0.46-0.92,0.33-1.02-0.44
				c-0.01-0.1-0.01-0.19-0.01-0.29c0.02-0.14,0.02-0.27-0.08-0.38C3.61,35.63,3.61,35.44,3.61,35.25z"/>
			<path class="st36" d="M3.61,35.81c0.1,0.11,0.1,0.24,0.08,0.38C3.59,36.08,3.58,35.95,3.61,35.81z"/>
		</g>
	</g>
</g>
<g>
	<g>
		<path class="st43" d="M0.38,60.21c30.99,5.55,65.42,0.19,89.73-16.13l0,0l0,67.59h0c-24.31,16.31-58.74,21.7-89.73,16.15h0
			L0.38,60.21"/>
		<path class="st44" d="M0.38,60.21c30.99,5.55,65.42,0.19,89.73-16.13L24.42,0L0.38,60.21z"/>
	</g>
	<path class="st45" d="M20.03,46.18c4.82,0,8.72,1.81,8.72,4.04c0,1.31-1.35,2.48-3.45,3.21l-4.82-2.87l2.6,3.44
		c-0.95,0.17-1.98,0.25-3.05,0.25c-4.81,0-8.72-1.81-8.72-4.03C11.31,47.99,15.22,46.18,20.03,46.18L20.03,46.18z"/>
	<path class="st45" d="M29.12,37.43c4.82,0,8.72,1.81,8.72,4.04c0,1.31-1.35,2.48-3.45,3.21l-4.82-2.87l2.6,3.44
		c-0.95,0.17-1.98,0.25-3.05,0.25c-4.81,0-8.72-1.81-8.72-4.03C20.4,39.24,24.3,37.43,29.12,37.43L29.12,37.43z"/>
	<path class="st46" d="M56.03,31.58c3.86,0,6.99,1.45,6.99,3.24c0,1.05-1.09,1.99-2.77,2.58l-3.86-2.3l2.09,2.76
		c-0.76,0.13-1.59,0.2-2.45,0.2c-3.86,0-6.99-1.45-6.99-3.23C49.03,33.03,52.17,31.58,56.03,31.58L56.03,31.58z"/>
	<path class="st45" d="M56.03,31.24c3.86,0,6.99,1.45,6.99,3.24c0,1.05-1.09,1.99-2.77,2.58l-3.86-2.3l2.09,2.76
		c-0.76,0.13-1.59,0.2-2.45,0.2c-3.86,0-6.99-1.45-6.99-3.23C49.03,32.69,52.17,31.24,56.03,31.24L56.03,31.24z"/>
	<path class="st45" d="M53.64,56.55c-5.92,0-10.72-2.22-10.72-4.96c0-1.61,1.66-3.05,4.24-3.95l5.92,3.53l-3.2-4.22
		c1.17-0.21,2.43-0.31,3.75-0.31c5.92,0,10.72,2.22,10.72,4.95C64.36,54.33,59.56,56.55,53.64,56.55L53.64,56.55z"/>
	<g>
		<path class="st47" d="M36.64,6.26c3.09,2.74,3.79,10.13,0,10.13C32.84,16.39,33.52,9.62,36.64,6.26L36.64,6.26z"/>
		<path class="st48" d="M32.28,7.52c4.27,2.4,8.14,8.87,4.35,8.87C32.84,16.39,31.11,12.95,32.28,7.52L32.28,7.52z"/>
		<path class="st48" d="M40.98,7.52c-4.27,2.4-8.14,8.87-4.35,8.87C40.42,16.39,42.16,12.95,40.98,7.52L40.98,7.52z"/>
		<path class="st49" d="M36.63,11.28c1.37,0,2.48,0.83,2.48,1.86c0,1.03-1.11,1.86-2.48,1.86s-2.48-0.84-2.48-1.86
			C34.15,12.11,35.26,11.28,36.63,11.28L36.63,11.28z"/>
		<path class="st50" d="M29.93,10.57c4.27,2.41,10.49,5.83,6.7,5.83C32.84,16.39,29.97,14.68,29.93,10.57L29.93,10.57z"/>
		<path class="st50" d="M43.33,10.57c-4.27,2.41-10.49,5.83-6.7,5.83C40.42,16.39,43.3,14.68,43.33,10.57L43.33,10.57z"/>
		<path class="st42" d="M36.64,11.32c3.09,1.37,3.79,5.07,0,5.07C32.84,16.39,33.52,13,36.64,11.32L36.64,11.32z"/>
		<rect x="36.42" y="16.39" class="st51" width="0.41" height="6.55"/>
	</g>
	<g>
		<path class="st47" d="M21.57,41.47c3.09,2.74,3.79,10.13,0,10.13C17.78,51.6,18.46,44.82,21.57,41.47L21.57,41.47z"/>
		<path class="st48" d="M17.22,42.73c4.27,2.4,8.14,8.87,4.35,8.87C17.78,51.6,16.05,48.16,17.22,42.73L17.22,42.73z"/>
		<path class="st48" d="M25.92,42.73c-4.27,2.4-8.14,8.87-4.35,8.87C25.36,51.6,27.09,48.16,25.92,42.73L25.92,42.73z"/>
		<path class="st49" d="M21.57,46.48c1.37,0,2.48,0.83,2.48,1.86c0,1.03-1.11,1.86-2.48,1.86s-2.48-0.84-2.48-1.86
			C19.09,47.31,20.2,46.48,21.57,46.48L21.57,46.48z"/>
		<path class="st50" d="M14.87,45.77c4.27,2.41,10.49,5.83,6.7,5.83C17.78,51.6,14.91,49.89,14.87,45.77L14.87,45.77z"/>
		<path class="st50" d="M28.27,45.77c-4.27,2.41-10.49,5.83-6.7,5.83C25.36,51.6,28.23,49.89,28.27,45.77L28.27,45.77z"/>
		<path class="st42" d="M21.57,46.53c3.09,1.37,3.79,5.07,0,5.07C17.78,51.6,18.46,48.21,21.57,46.53L21.57,46.53z"/>
	</g>
	<g>
		<path class="st47" d="M54.82,24.69c3.09,2.74,3.79,10.13,0,10.13C51.03,34.82,51.71,28.05,54.82,24.69L54.82,24.69z"/>
		<path class="st48" d="M50.47,25.95c4.27,2.4,8.14,8.87,4.35,8.87C51.03,34.82,49.3,31.38,50.47,25.95L50.47,25.95z"/>
		<path class="st48" d="M59.17,25.95c-4.27,2.4-8.14,8.87-4.35,8.87C58.61,34.82,60.34,31.38,59.17,25.95L59.17,25.95z"/>
		<path class="st49" d="M54.82,29.7c1.37,0,2.48,0.83,2.48,1.86c0,1.03-1.11,1.86-2.48,1.86s-2.48-0.84-2.48-1.86
			C52.34,30.54,53.45,29.7,54.82,29.7L54.82,29.7z"/>
		<path class="st50" d="M48.12,28.99c4.27,2.41,10.49,5.83,6.7,5.83C51.03,34.82,48.16,33.11,48.12,28.99L48.12,28.99z"/>
		<path class="st50" d="M61.52,28.99c-4.27,2.41-10.49,5.83-6.7,5.83C58.61,34.82,61.48,33.11,61.52,28.99L61.52,28.99z"/>
		<path class="st42" d="M54.82,29.75c3.09,1.37,3.79,5.07,0,5.07C51.03,34.82,51.71,31.43,54.82,29.75L54.82,29.75z"/>
	</g>
	<path class="st46" d="M35.46,55.13c1.64,0,2.97,0.32,2.97,0.71c0,0.4-1.33,0.71-2.97,0.71c-1.64,0-2.96-0.31-2.96-0.71
		C32.49,55.45,33.82,55.13,35.46,55.13L35.46,55.13z"/>
	<path class="st46" d="M21.57,34.97c1.64,0,2.97,0.32,2.97,0.71c0,0.4-1.33,0.71-2.97,0.71c-1.64,0-2.97-0.31-2.97-0.71
		C18.6,35.29,19.93,34.97,21.57,34.97L21.57,34.97z"/>
	<path class="st46" d="M66.29,39.24c2.57,0,4.65,0.5,4.65,1.11c0,0.61-2.08,1.11-4.65,1.11c-2.57,0-4.65-0.5-4.65-1.11
		C61.64,39.74,63.72,39.24,66.29,39.24L66.29,39.24z"/>
	<path class="st45" d="M26.28,22.01c-3.74,0-6.78-1.4-6.78-3.14c0-1.02,1.05-1.93,2.68-2.5l3.74,2.23l-2.02-2.67
		c0.74-0.13,1.54-0.2,2.37-0.2c3.74,0,6.78,1.4,6.78,3.13C33.06,20.61,30.02,22.01,26.28,22.01L26.28,22.01z"/>
	<g>
		<path class="st48" d="M29.67,29.18c1.79,1.58,2.18,5.83,0,5.83C27.49,35.02,27.88,31.12,29.67,29.18L29.67,29.18z"/>
		<path class="st50" d="M27.16,29.91c2.46,1.39,4.69,5.11,2.5,5.11C27.49,35.02,26.49,33.04,27.16,29.91L27.16,29.91z"/>
		<path class="st50" d="M32.18,29.91c-2.46,1.39-4.69,5.11-2.51,5.11C31.85,35.02,32.85,33.04,32.18,29.91L32.18,29.91z"/>
		<path class="st49" d="M29.67,32.07c0.79,0,1.43,0.48,1.43,1.07c0,0.59-0.64,1.07-1.43,1.07c-0.79,0-1.43-0.48-1.43-1.07
			C28.24,32.55,28.88,32.07,29.67,32.07L29.67,32.07z"/>
		<path class="st42" d="M29.67,32.1c1.79,0.79,2.18,2.92,0,2.92C27.49,35.02,27.88,33.07,29.67,32.1L29.67,32.1z"/>
		<rect x="29.55" y="35.02" class="st51" width="0.23" height="7.15"/>
	</g>
</g>
</svg>
