<?xml version="1.0" encoding="utf-8"?>
<!-- Generator: Adobe Illustrator 23.0.1, SVG Export Plug-In . SVG Version: 6.00 Build 0)  -->
<svg version="1.1" id="Layer_1" xmlns="http://www.w3.org/2000/svg" xmlns:xlink="http://www.w3.org/1999/xlink" x="0px" y="0px"
	 viewBox="0 0 1425 1500" style="enable-background:new 0 0 1425 1500;" xml:space="preserve">
<style type="text/css">
	.st0{fill:url(#SVGID_1_);}
	.st1{fill:url(#SVGID_2_);}
	.st2{fill:url(#SVGID_3_);}
	.st3{fill:url(#SVGID_4_);}
	.st4{fill:url(#SVGID_5_);}
	.st5{fill:url(#SVGID_6_);}
	.st6{fill:#F1F2F2;}
</style>
<linearGradient id="SVGID_1_" gradientUnits="userSpaceOnUse" x1="-1081" y1="1178.5" x2="419" y2="1178.5" gradientTransform="matrix(6.123234e-17 -1 1 6.123234e-17 -466 419)">
	<stop  offset="0" style="stop-color:#1F2756"/>
	<stop  offset="1" style="stop-color:#000000"/>
</linearGradient>
<polygon class="st0" points="1424.5,0 1424.5,1500 0.5,1500 0.5,0 "/>
<path class="st6" d="M841.5,375.65c0,2.09-1.69,3.78-3.78,3.78c-2.09,0-3.78-1.69-3.78-3.78c0-2.09,1.69-3.78,3.78-3.78
	C839.81,371.87,841.5,373.56,841.5,375.65z"/>
<path class="st6" d="M771.73,669.98c0,1.45-1.18,2.63-2.63,2.63c-1.45,0-2.63-1.18-2.63-2.63c0-1.45,1.18-2.63,2.63-2.63
	C770.55,667.36,771.73,668.53,771.73,669.98z"/>
<circle class="st6" cx="102.96" cy="534.85" r="4.43"/>
<path class="st6" d="M180.96,301.08c0,0.73-0.59,1.32-1.32,1.32c-0.73,0-1.32-0.59-1.32-1.32c0-0.73,0.59-1.32,1.32-1.32
	C180.37,299.77,180.96,300.36,180.96,301.08z"/>
<path class="st6" d="M159.19,76.8c0,0.73-0.59,1.32-1.32,1.32c-0.73,0-1.32-0.59-1.32-1.32c0-0.73,0.59-1.32,1.32-1.32
	C158.6,75.48,159.19,76.07,159.19,76.8z"/>
<path class="st6" d="M230.87,252.26c0,1.81-1.47,3.28-3.28,3.28c-1.81,0-3.28-1.47-3.28-3.28s1.47-3.28,3.28-3.28
	C229.4,248.98,230.87,250.45,230.87,252.26z"/>
<path class="st6" d="M75.27,280.27c0,1.01-0.82,1.83-1.83,1.83c-1.01,0-1.83-0.82-1.83-1.83c0-1.01,0.82-1.83,1.83-1.83
	C74.45,278.44,75.27,279.26,75.27,280.27z"/>
<circle class="st6" cx="382.36" cy="699.57" r="2.11"/>
<circle class="st6" cx="189.6" cy="406.14" r="2.71"/>
<circle class="st6" cx="256.82" cy="127.47" r="5.59"/>
<circle class="st6" cx="303.94" cy="130.92" r="3.45"/>
<circle class="st6" cx="832.82" cy="173.26" r="3.29"/>
<path class="st6" d="M955.3,361.79c0,2.09-1.69,3.78-3.78,3.78c-2.09,0-3.78-1.69-3.78-3.78c0-2.09,1.69-3.78,3.78-3.78
	C953.61,358.01,955.3,359.7,955.3,361.79z"/>
<path class="st6" d="M905.38,755.2c0,3.17-2.57,5.75-5.75,5.75c-3.17,0-5.75-2.57-5.75-5.75c0-3.17,2.57-5.75,5.75-5.75
	C902.81,749.45,905.38,752.03,905.38,755.2z"/>
<circle class="st6" cx="406.33" cy="345.56" r="2.89"/>
<path class="st6" d="M134.9,721.42c0,2.83-2.3,5.13-5.13,5.13c-2.83,0-5.13-2.3-5.13-5.13s2.3-5.13,5.13-5.13
	C132.6,716.29,134.9,718.59,134.9,721.42z"/>
<path class="st6" d="M67.38,117.75c0,2.28-1.85,4.13-4.13,4.13c-2.28,0-4.13-1.85-4.13-4.13s1.85-4.13,4.13-4.13
	C65.54,113.62,67.38,115.47,67.38,117.75z"/>
<path class="st6" d="M695.1,119.82c0,1.14-0.92,2.06-2.06,2.06c-1.14,0-2.07-0.92-2.07-2.06s0.92-2.06,2.07-2.06
	C694.17,117.75,695.1,118.68,695.1,119.82z"/>
<path class="st6" d="M898.26,104.12c0,1.21-0.98,2.19-2.19,2.19c-1.21,0-2.19-0.98-2.19-2.19c0-1.21,0.98-2.19,2.19-2.19
	C897.28,101.93,898.26,102.91,898.26,104.12z"/>
<path class="st6" d="M729.75,258.75c0,1.21-0.98,2.19-2.19,2.19s-2.19-0.98-2.19-2.19c0-1.21,0.98-2.19,2.19-2.19
	S729.75,257.55,729.75,258.75z"/>
<circle class="st6" cx="608.8" cy="345.01" r="3.29"/>
<path class="st6" d="M540.27,234.11c0,2.09-1.69,3.78-3.78,3.78c-2.09,0-3.78-1.69-3.78-3.78c0-2.09,1.69-3.78,3.78-3.78
	C538.58,230.33,540.27,232.02,540.27,234.11z"/>
<path class="st6" d="M657.7,180.33c0,2.09-1.69,3.78-3.78,3.78c-2.09,0-3.78-1.69-3.78-3.78c0-2.09,1.69-3.78,3.78-3.78
	C656.01,176.55,657.7,178.24,657.7,180.33z"/>
<path class="st6" d="M339.24,67.13c0,1.21-0.98,2.19-2.19,2.19c-1.21,0-2.19-0.98-2.19-2.19s0.98-2.19,2.19-2.19
	C338.26,64.94,339.24,65.92,339.24,67.13z"/>
<circle class="st6" cx="401.21" cy="225.24" r="3.29"/>
<circle class="st6" cx="447.33" cy="139.56" r="2.89"/>
<circle class="st6" cx="588.8" cy="109.01" r="3.29"/>
<path class="st6" d="M581.27,28.11c0,2.09-1.69,3.78-3.78,3.78c-2.09,0-3.78-1.69-3.78-3.78c0-2.09,1.69-3.78,3.78-3.78
	C579.58,24.33,581.27,26.02,581.27,28.11z"/>
<circle class="st6" cx="442.21" cy="19.24" r="3.29"/>
<circle class="st6" cx="498.42" cy="709.83" r="2.11"/>
<path class="st6" d="M525.59,524.38c0,2.09-1.69,3.78-3.78,3.78c-2.09,0-3.78-1.69-3.78-3.78c0-2.09,1.69-3.78,3.78-3.78
	C523.9,520.6,525.59,522.3,525.59,524.38z"/>
<path class="st6" d="M858.92,518.64c0,2.09-1.69,3.78-3.78,3.78c-2.09,0-3.78-1.69-3.78-3.78c0-2.09,1.69-3.78,3.78-3.78
	C857.23,514.86,858.92,516.55,858.92,518.64z"/>
<path class="st6" d="M964.01,560.67c0,2.09-1.69,3.78-3.78,3.78c-2.09,0-3.78-1.69-3.78-3.78c0-2.09,1.69-3.78,3.78-3.78
	C962.32,556.9,964.01,558.59,964.01,560.67z"/>
<path class="st6" d="M347.22,480.14c0,1.21-0.98,2.19-2.19,2.19c-1.21,0-2.19-0.98-2.19-2.19s0.98-2.19,2.19-2.19
	C346.24,477.95,347.22,478.93,347.22,480.14z"/>
<path class="st6" d="M980.5,192.88c0,1.02-0.83,1.85-1.85,1.85c-1.02,0-1.85-0.83-1.85-1.85c0-1.02,0.83-1.85,1.85-1.85
	C979.67,191.03,980.5,191.86,980.5,192.88z"/>
<path class="st6" d="M1198.5,299.65c0,2.09-1.69,3.78-3.78,3.78c-2.09,0-3.78-1.69-3.78-3.78c0-2.09,1.69-3.78,3.78-3.78
	C1196.81,295.87,1198.5,297.56,1198.5,299.65z"/>
<circle class="st6" cx="1189.82" cy="97.26" r="3.29"/>
<path class="st6" d="M1312.3,285.79c0,2.09-1.69,3.78-3.78,3.78c-2.09,0-3.78-1.69-3.78-3.78c0-2.09,1.69-3.78,3.78-3.78
	C1310.61,282.01,1312.3,283.7,1312.3,285.79z"/>
<path class="st6" d="M1052.1,43.82c0,1.14-0.92,2.06-2.06,2.06c-1.14,0-2.07-0.92-2.07-2.06s0.92-2.06,2.07-2.06
	C1051.17,41.75,1052.1,42.68,1052.1,43.82z"/>
<path class="st6" d="M1255.26,28.12c0,1.21-0.98,2.19-2.19,2.19c-1.21,0-2.19-0.98-2.19-2.19c0-1.21,0.98-2.19,2.19-2.19
	C1254.28,25.93,1255.26,26.91,1255.26,28.12z"/>
<path class="st6" d="M1086.75,182.75c0,1.21-0.98,2.19-2.19,2.19c-1.21,0-2.19-0.98-2.19-2.19s0.98-2.19,2.19-2.19
	C1085.77,180.57,1086.75,181.55,1086.75,182.75z"/>
<path class="st6" d="M1337.5,116.88c0,1.02-0.83,1.85-1.85,1.85s-1.85-0.83-1.85-1.85c0-1.02,0.83-1.85,1.85-1.85
	S1337.5,115.86,1337.5,116.88z"/>
<path class="st6" d="M1184.5,669.65c0,2.09-1.69,3.78-3.78,3.78c-2.09,0-3.78-1.69-3.78-3.78c0-2.09,1.69-3.78,3.78-3.78
	C1182.81,665.87,1184.5,667.56,1184.5,669.65z"/>
<circle class="st6" cx="1175.82" cy="467.26" r="3.29"/>
<path class="st6" d="M1298.3,655.79c0,2.09-1.69,3.78-3.78,3.78c-2.09,0-3.78-1.69-3.78-3.78c0-2.09,1.69-3.78,3.78-3.78
	C1296.61,652.01,1298.3,653.7,1298.3,655.79z"/>
<path class="st6" d="M1038.1,413.82c0,1.14-0.92,2.06-2.06,2.06c-1.14,0-2.07-0.92-2.07-2.06c0-1.14,0.92-2.06,2.07-2.06
	C1037.17,411.75,1038.1,412.68,1038.1,413.82z"/>
<path class="st6" d="M1241.26,398.12c0,1.21-0.98,2.19-2.19,2.19c-1.21,0-2.19-0.98-2.19-2.19c0-1.21,0.98-2.19,2.19-2.19
	C1240.28,395.93,1241.26,396.91,1241.26,398.12z"/>
<path class="st6" d="M1072.75,552.75c0,1.21-0.98,2.19-2.19,2.19c-1.21,0-2.19-0.98-2.19-2.19c0-1.21,0.98-2.19,2.19-2.19
	C1071.77,550.57,1072.75,551.55,1072.75,552.75z"/>
<path class="st6" d="M1323.5,486.88c0,1.02-0.83,1.85-1.85,1.85s-1.85-0.83-1.85-1.85s0.83-1.85,1.85-1.85
	S1323.5,485.86,1323.5,486.88z"/>
<path class="st6" d="M629.5,588.65c0,2.09-1.69,3.78-3.78,3.78c-2.09,0-3.78-1.69-3.78-3.78c0-2.09,1.69-3.78,3.78-3.78
	C627.81,584.87,629.5,586.56,629.5,588.65z"/>
<circle class="st6" cx="567.82" cy="490.26" r="3.29"/>
<path class="st6" d="M690.3,678.79c0,2.09-1.69,3.78-3.78,3.78c-2.09,0-3.78-1.69-3.78-3.78c0-2.09,1.69-3.78,3.78-3.78
	C688.61,675.01,690.3,676.7,690.3,678.79z"/>
<path class="st6" d="M430.1,436.82c0,1.14-0.92,2.06-2.06,2.06c-1.14,0-2.07-0.92-2.07-2.06c0-1.14,0.92-2.06,2.07-2.06
	C429.17,434.75,430.1,435.68,430.1,436.82z"/>
<path class="st6" d="M633.26,421.12c0,1.21-0.98,2.19-2.19,2.19c-1.21,0-2.19-0.98-2.19-2.19c0-1.21,0.98-2.19,2.19-2.19
	C632.28,418.93,633.26,419.91,633.26,421.12z"/>
<path class="st6" d="M464.75,575.75c0,1.21-0.98,2.19-2.19,2.19c-1.21,0-2.19-0.98-2.19-2.19c0-1.21,0.98-2.19,2.19-2.19
	C463.77,573.57,464.75,574.55,464.75,575.75z"/>
<path class="st6" d="M715.5,509.88c0,1.02-0.83,1.85-1.85,1.85c-1.02,0-1.85-0.83-1.85-1.85s0.83-1.85,1.85-1.85
	C714.67,508.03,715.5,508.86,715.5,509.88z"/>
<path class="st6" d="M319.5,832.65c0,2.09-1.69,3.78-3.78,3.78c-2.09,0-3.78-1.69-3.78-3.78c0-2.09,1.69-3.78,3.78-3.78
	C317.81,828.87,319.5,830.56,319.5,832.65z"/>
<circle class="st6" cx="310.82" cy="630.26" r="3.29"/>
<path class="st6" d="M433.3,818.79c0,2.09-1.69,3.78-3.78,3.78c-2.09,0-3.78-1.69-3.78-3.78c0-2.09,1.69-3.78,3.78-3.78
	C431.61,815.01,433.3,816.7,433.3,818.79z"/>
<path class="st6" d="M173.1,576.82c0,1.14-0.92,2.06-2.06,2.06c-1.14,0-2.07-0.92-2.07-2.06c0-1.14,0.92-2.06,2.07-2.06
	C172.17,574.75,173.1,575.68,173.1,576.82z"/>
<path class="st6" d="M376.26,561.12c0,1.21-0.98,2.19-2.19,2.19s-2.19-0.98-2.19-2.19c0-1.21,0.98-2.19,2.19-2.19
	S376.26,559.91,376.26,561.12z"/>
<path class="st6" d="M207.75,715.75c0,1.21-0.98,2.19-2.19,2.19c-1.21,0-2.19-0.98-2.19-2.19c0-1.21,0.98-2.19,2.19-2.19
	C206.77,713.57,207.75,714.55,207.75,715.75z"/>
<path class="st6" d="M458.5,649.88c0,1.02-0.83,1.85-1.85,1.85s-1.85-0.83-1.85-1.85c0-1.02,0.83-1.85,1.85-1.85
	S458.5,648.86,458.5,649.88z"/>
</svg>
