<?xml version="1.0" encoding="utf-8"?>
<!-- Generator: Adobe Illustrator 23.0.1, SVG Export Plug-In . SVG Version: 6.00 Build 0)  -->
<svg version="1.1" id="Layer_1" xmlns="http://www.w3.org/2000/svg" xmlns:xlink="http://www.w3.org/1999/xlink" x="0px" y="0px"
	 viewBox="0 0 103.59 145.48" style="enable-background:new 0 0 103.59 145.48;" xml:space="preserve">
<style type="text/css">
	.st0{fill:#E67BB0;}
	.st1{fill:#91CFA7;}
	.st2{fill:#3488C9;}
	.st3{fill:#86CCC8;}
	.st4{fill:url(#SVGID_1_);}
	.st5{fill:url(#SVGID_2_);}
	.st6{fill:#B86E29;}
</style>
<path class="st3" d="M29.44,146.11c-11.28,0-20.28-1.18-24.64-1.88C2.02,143.78,0,141.41,0,138.59l0-70.98
	c0-0.73,0.14-1.45,0.41-2.12L25.12,3.6c0.64-1.61,1.96-2.83,3.62-3.34C29.29,0.09,29.86,0,30.43,0c1.13,0,2.23,0.34,3.18,0.97
	l67.45,45.27c1.58,1.06,2.53,2.84,2.53,4.75l0,70.73c0,2.02-1.08,3.91-2.82,4.93c-5.21,3.06-23.8,13.32-44.36,17.09
	C47.85,145.31,38.77,146.11,29.44,146.11z M30.43,5c-0.07,0-0.15,0.01-0.22,0.03C30,5.1,29.84,5.25,29.76,5.45L5.05,67.34
	C5.02,67.43,5,67.52,5,67.61l0,70.98c0,0.36,0.25,0.65,0.6,0.71c4.21,0.68,12.9,1.82,23.84,1.82c0,0,0,0,0,0
	c9.03,0,17.8-0.77,26.07-2.29c19.76-3.63,37.71-13.54,42.74-16.49c0.21-0.13,0.35-0.36,0.35-0.62l0-70.73c0-0.24-0.12-0.46-0.32-0.6
	L30.83,5.12C30.71,5.04,30.57,5,30.43,5z"/>
<path class="st3" d="M29.44,144.61c-11.07,0-19.89-1.13-24.4-1.86c-2.05-0.33-3.54-2.08-3.54-4.17l0-70.98c0-0.54,0.1-1.07,0.3-1.57
	L26.51,4.16c0.47-1.19,1.45-2.09,2.67-2.47c1.22-0.38,2.53-0.19,3.6,0.53l67.45,45.27c1.17,0.79,1.87,2.09,1.87,3.5l0,70.73
	c0,1.49-0.8,2.88-2.08,3.64c-5.16,3.02-23.56,13.18-43.88,16.91C46.58,144.02,37.42,144.61,29.44,144.61z M30.43,3.5
	c-0.22,0-0.44,0.03-0.66,0.1c-0.64,0.2-1.16,0.67-1.41,1.3L3.66,66.79c-0.11,0.26-0.16,0.54-0.16,0.82l0,70.98
	c0,1.1,0.78,2.02,1.86,2.19c7.66,1.24,27.9,3.66,50.42-0.48c20-3.67,38.14-13.69,43.23-16.67c0.67-0.39,1.09-1.13,1.09-1.91l0-70.73
	c0-0.74-0.37-1.43-0.98-1.84L31.67,3.88C31.29,3.63,30.87,3.5,30.43,3.5z"/>
</svg>
