<?xml version="1.0" encoding="utf-8"?>
<!-- Generator: Adobe Illustrator 23.0.1, SVG Export Plug-In . SVG Version: 6.00 Build 0)  -->
<svg version="1.1" id="Layer_1" xmlns="http://www.w3.org/2000/svg" xmlns:xlink="http://www.w3.org/1999/xlink" x="0px" y="0px"
	 viewBox="0 0 105.9 141.34" style="enable-background:new 0 0 105.9 141.34;" xml:space="preserve">
<style type="text/css">
	.st0{fill:#E67BB0;}
	.st1{fill:#91CFA7;}
	.st2{fill:#3488C9;}
	.st3{fill:#86CCC8;}
	.st4{fill:url(#SVGID_1_);}
	.st5{fill:url(#SVGID_2_);}
	.st6{fill:#B86E29;}
</style>
<linearGradient id="SVGID_1_" gradientUnits="userSpaceOnUse" x1="0.0469" y1="70.6692" x2="105.8961" y2="70.6692">
	<stop  offset="0" style="stop-color:#1F2856"/>
	<stop  offset="1" style="stop-color:#010101"/>
</linearGradient>
<path class="st4" d="M9.21,141.34c-3.26,0-6.09-2.1-7.06-5.22c-0.21-0.69-0.41-1.38-0.56-2.02c-0.54-2.28-1.23-6.51-1.43-7.75
	c-0.06-0.39-0.09-0.78-0.09-1.17L0.1,47.89c0-0.05,0-0.1-0.01-0.16c-0.15-1.69-0.45-10.9,8.65-26.67
	c4.91-8.5,14.05-15.96,19.06-19.64C29.07,0.49,30.58,0,32.16,0c1.47,0,2.89,0.43,4.11,1.25l66.36,44.53
	c2.04,1.37,3.26,3.66,3.26,6.12v65.99c0,3.57-2.55,6.63-6.07,7.26l-89.31,16.06C10.09,141.3,9.65,141.34,9.21,141.34z M32.16,5
	c-0.51,0-0.99,0.16-1.39,0.45c-4.7,3.45-13.24,10.4-17.69,18.12c-8.52,14.76-8.08,22.84-8,23.71c0.02,0.2,0.03,0.4,0.03,0.61
	l-0.03,77.29c0,0.13,0.01,0.25,0.03,0.38c0.19,1.2,0.86,5.27,1.36,7.38c0.13,0.54,0.3,1.13,0.47,1.71c0.31,1,1.25,1.7,2.28,1.7
	c0.14,0,0.28-0.01,0.42-0.04l89.31-16.06c1.13-0.2,1.96-1.19,1.96-2.34V51.91c0-0.79-0.39-1.53-1.05-1.97L33.49,5.4
	C33.09,5.14,32.64,5,32.16,5z"/>
<linearGradient id="SVGID_2_" gradientUnits="userSpaceOnUse" x1="1.5442" y1="70.6691" x2="104.3961" y2="70.6691">
	<stop  offset="0" style="stop-color:#1F2856"/>
	<stop  offset="1" style="stop-color:#010101"/>
</linearGradient>
<path class="st5" d="M9.21,139.84c-2.54,0-4.85-1.66-5.63-4.17c-0.2-0.65-0.39-1.31-0.53-1.93c-0.53-2.22-1.21-6.41-1.41-7.64
	c-0.05-0.31-0.07-0.62-0.07-0.93L1.6,47.89c0-0.1,0-0.19-0.01-0.29c-0.15-1.61-0.42-10.41,8.45-25.78
	c4.77-8.27,13.74-15.57,18.65-19.19c1.98-1.46,4.7-1.51,6.74-0.14l66.36,44.53c1.63,1.09,2.6,2.92,2.6,4.88v65.99
	c0,2.85-2.03,5.28-4.84,5.78l-89.31,16.06C9.9,139.81,9.55,139.84,9.21,139.84z M32.16,3.5c-0.8,0-1.61,0.25-2.28,0.74
	c-4.79,3.52-13.51,10.62-18.1,18.57C3.02,37.98,3.5,46.5,3.58,47.42c0.01,0.16,0.02,0.31,0.02,0.47l-0.03,77.29
	c0,0.21,0.02,0.41,0.05,0.61c0.19,1.21,0.87,5.34,1.38,7.49c0.14,0.57,0.31,1.19,0.5,1.8c0.58,1.88,2.47,3.04,4.4,2.69l89.31-16.06
	c1.85-0.33,3.19-1.94,3.19-3.81V51.91c0-1.29-0.64-2.5-1.72-3.22L34.32,4.16C33.67,3.72,32.91,3.5,32.16,3.5z"/>
</svg>
