<?xml version="1.0" encoding="utf-8"?>
<!-- Generator: Adobe Illustrator 23.0.1, SVG Export Plug-In . SVG Version: 6.00 Build 0)  -->
<svg version="1.1" id="Layer_1" xmlns="http://www.w3.org/2000/svg" xmlns:xlink="http://www.w3.org/1999/xlink" x="0px" y="0px"
	 viewBox="0 0 103.17 143.45" style="enable-background:new 0 0 103.17 143.45;" xml:space="preserve">
<style type="text/css">
	.st0{fill:#E67BB0;}
	.st1{fill:#91CFA7;}
	.st2{fill:#3488C9;}
	.st3{fill:#86CCC8;}
	.st4{fill:url(#SVGID_1_);}
	.st5{fill:url(#SVGID_2_);}
	.st6{fill:#B86E29;}
</style>
<path class="st1" d="M6.15,142.89c-1.43,0-2.82-0.51-3.92-1.43c-1.4-1.17-2.2-2.88-2.21-4.71l-0.04-68.29
	c0-0.78,0.15-1.55,0.44-2.28L25.3,3.86C26.23,1.55,28.52,0,31.01,0c0.48,0,0.97,0.06,1.44,0.17c7.26,1.77,25.54,6.72,38.61,14.45
	c24.61,14.56,30.82,31,31.82,34.14c0.19,0.6,0.29,1.23,0.29,1.86l0.01,69.61c0,2.97-2.12,5.51-5.04,6.04L7.25,142.79
	C6.89,142.86,6.52,142.89,6.15,142.89L6.15,142.89z M31,5c-0.46,0-0.89,0.29-1.06,0.72L5.06,68.04c-0.05,0.14-0.08,0.28-0.08,0.42
	l0.04,68.29c0,0.34,0.15,0.66,0.41,0.88c0.2,0.17,0.46,0.26,0.72,0.26c0.07,0,0.14-0.01,0.2-0.02l90.88-16.51
	c0.54-0.1,0.93-0.57,0.93-1.12l-0.01-69.62c0-0.12-0.02-0.23-0.05-0.35c-0.9-2.84-6.55-17.71-29.6-31.35
	C56.02,11.53,38.3,6.75,31.26,5.03C31.18,5.01,31.09,5,31,5z"/>
<path class="st1" d="M6.15,141.39c-1.08,0-2.12-0.37-2.97-1.08c-1.06-0.88-1.67-2.18-1.67-3.56L1.48,68.47v0
	c0-0.59,0.11-1.17,0.33-1.72L26.69,4.42c0.85-2.13,3.17-3.33,5.4-2.79c7.19,1.75,25.31,6.65,38.2,14.28
	c24.14,14.29,30.18,30.25,31.15,33.3c0.14,0.46,0.22,0.93,0.22,1.41l0.01,69.61c0,2.24-1.6,4.16-3.81,4.56L6.98,141.32
	C6.71,141.37,6.43,141.39,6.15,141.39z M31,3.5c-1.06,0-2.05,0.64-2.45,1.66L3.67,67.48c-0.12,0.31-0.19,0.64-0.19,0.98l0.04,68.29
	c0,0.79,0.35,1.52,0.95,2.03c0.6,0.5,1.39,0.71,2.16,0.57l90.88-16.51c1.26-0.23,2.17-1.32,2.17-2.6l-0.01-69.61
	c0-0.28-0.04-0.54-0.12-0.8c-0.93-2.93-6.75-18.27-30.26-32.19C56.61,10.14,38.72,5.3,31.62,3.57C31.41,3.52,31.21,3.5,31,3.5z"/>
</svg>
