<?xml version="1.0" encoding="utf-8"?>
<!-- Generator: Adobe Illustrator 23.0.1, SVG Export Plug-In . SVG Version: 6.00 Build 0)  -->
<svg version="1.1" id="Layer_1" xmlns="http://www.w3.org/2000/svg" xmlns:xlink="http://www.w3.org/1999/xlink" x="0px" y="0px"
	 viewBox="0 0 104.06 164" style="enable-background:new 0 0 104.06 164;" xml:space="preserve">
<style type="text/css">
	.st0{fill:#E67BB0;}
	.st1{fill:#91CFA7;}
	.st2{fill:#3488C9;}
	.st3{fill:#86CCC8;}
	.st4{fill:url(#SVGID_1_);}
	.st5{fill:url(#SVGID_2_);}
	.st6{fill:#B86E29;}
</style>
<path class="st0" d="M71.8,164c-1.82,0-3.58-0.54-5.1-1.56L4.06,120.39C1.52,118.68,0,115.83,0,112.77V45.06
	c0-3.23,1.65-6.16,4.41-7.84c3.38-2.05,21.07-12.31,42.46-15.89c0.18-2.93,0.52-7.82,0.86-9.74c0.51-2.82,2.19-6.74,3.59-8.38
	c1.26-1.48,3.36-2.36,5.62-2.36c2.07,0,4.08,0.74,5.66,2.08c2.1,1.79,3.54,5.62,3.58,9.53c0.02,2.05,0.17,4.79,0.33,6.58
	c3.46-0.2,6.86-0.31,10.12-0.31c6.83,0,13.22,0.43,19.55,1.32c4.49,0.63,7.87,4.54,7.87,9.08v68.04c0,1.17-0.22,2.32-0.66,3.41
	l-23.08,57.64c-1.04,2.58-3.15,4.54-5.81,5.36C73.63,163.86,72.71,164,71.8,164z M56.97,5.87c-0.97,0-1.65,0.37-1.85,0.6
	c-0.77,0.9-2.09,3.91-2.47,6.01c-0.34,1.87-0.73,7.88-0.91,11.14l-0.11,2.05l-2.02,0.3C28.29,29.07,10.38,39.44,7,41.49
	c-1.25,0.76-2,2.09-2,3.56v67.71c0,1.39,0.69,2.69,1.85,3.47l62.63,42.05c0.69,0.46,1.49,0.71,2.32,0.71c0.42,0,0.83-0.06,1.24-0.19
	c1.21-0.37,2.17-1.26,2.64-2.44l23.08-57.64c0.2-0.5,0.3-1.02,0.3-1.55V29.14c0-2.07-1.53-3.84-3.57-4.13
	c-6.1-0.86-12.27-1.27-18.86-1.27c-3.83,0-7.85,0.15-11.95,0.44l-1.05,0.07l-0.83-0.71c-0.55-0.51-1.51-1.39-1.62-11.02
	c-0.03-3.01-1.21-5.25-1.82-5.78C58.51,6.02,57.59,5.87,56.97,5.87z"/>
<path class="st0" d="M71.8,162.5c-1.5,0-2.98-0.44-4.27-1.31L4.9,119.14c-2.13-1.43-3.4-3.81-3.4-6.37V45.06
	c0-2.71,1.38-5.16,3.69-6.56c3.43-2.08,21.48-12.54,43.11-15.89c0.13-2.27,0.52-8.59,0.92-10.76c0.46-2.56,2.01-6.22,3.25-7.67
	c1.85-2.16,6.17-2.67,9.17-0.11c1.76,1.5,3.02,4.95,3.06,8.4c0.03,2.68,0.27,6.64,0.5,8.15c11.09-0.74,21.17-0.44,30.79,0.91
	c3.75,0.53,6.58,3.79,6.58,7.6v68.04c0,0.98-0.19,1.94-0.55,2.85l-23.08,57.64c-0.87,2.16-2.64,3.79-4.86,4.48
	C73.32,162.38,72.56,162.5,71.8,162.5z M56.97,4.37c-1.28,0-2.43,0.47-2.99,1.12c-1.02,1.19-2.41,4.52-2.8,6.72
	c-0.45,2.49-0.93,11.24-0.93,11.33l-0.04,0.82l-0.81,0.12C27.79,27.63,9.64,38.14,6.22,40.21c-1.71,1.04-2.72,2.85-2.72,4.85v67.71
	c0,1.89,0.94,3.65,2.51,4.71l62.63,42.05c1.43,0.96,3.19,1.22,4.83,0.71c1.64-0.51,2.96-1.72,3.6-3.31l23.08-57.64
	c0.27-0.67,0.41-1.38,0.41-2.11V29.14c0-2.81-2.09-5.23-4.86-5.62c-9.7-1.36-19.88-1.64-31.12-0.85l-0.43,0.03l-0.37-0.31
	c-0.92-0.85-1.07-7.79-1.09-9.89c-0.04-3.21-1.24-5.95-2.35-6.9C59.3,4.72,58.08,4.37,56.97,4.37z"/>
</svg>
