<?xml version="1.0" encoding="utf-8"?>
<!-- Generator: Adobe Illustrator 23.0.1, SVG Export Plug-In . SVG Version: 6.00 Build 0)  -->
<svg version="1.1" id="Layer_1" xmlns="http://www.w3.org/2000/svg" xmlns:xlink="http://www.w3.org/1999/xlink" x="0px" y="0px"
	 viewBox="0 0 104.01 143.29" style="enable-background:new 0 0 104.01 143.29;" xml:space="preserve">
<style type="text/css">
	.st0{fill:#E67BB0;}
	.st1{fill:#91CFA7;}
	.st2{fill:#3488C9;}
	.st3{fill:#86CCC8;}
	.st4{fill:url(#SVGID_1_);}
	.st5{fill:url(#SVGID_2_);}
	.st6{fill:#B86E29;}
</style>
<path class="st6" d="M70.94,143.29c-0.55,0-1.1-0.05-1.64-0.15c-8.18-1.55-24.47-5.88-41.65-17.39
	C9.46,113.56,2.42,99.19,0.69,95.08C0.23,93.99,0,92.84,0,91.65V24.39c0-4.3,3.07-7.98,7.31-8.74L93.56,0.14
	C94.08,0.05,94.61,0,95.14,0c2.07,0,4.09,0.73,5.69,2.07c2.02,1.69,3.18,4.17,3.18,6.81v64.93c0,1.13-0.21,2.24-0.63,3.29
	l-24.19,60.6C77.84,141.05,74.54,143.29,70.94,143.29z M95.14,5c-0.23,0-0.46,0.02-0.69,0.06L8.19,20.57C6.34,20.91,5,22.51,5,24.39
	v67.26c0,0.52,0.1,1.02,0.3,1.49c1.59,3.79,8.1,17.05,25.13,28.46c16.45,11.02,32,15.15,39.8,16.63c0.23,0.04,0.47,0.07,0.71,0.07
	c1.57,0,3.01-0.98,3.59-2.44l24.2-60.6c0.18-0.46,0.28-0.94,0.28-1.44V8.88c0-1.15-0.51-2.24-1.39-2.98C96.92,5.32,96.04,5,95.14,5z
	"/>
<path class="st6" d="M70.94,141.79c-0.45,0-0.91-0.04-1.36-0.13c-8.07-1.53-24.14-5.8-41.1-17.16
	C10.65,112.55,3.76,98.51,2.07,94.49c-0.38-0.9-0.57-1.86-0.57-2.85V24.39c0-3.57,2.55-6.63,6.07-7.26L93.83,1.62
	c2.15-0.39,4.36,0.2,6.04,1.6c1.68,1.41,2.64,3.47,2.64,5.66v64.93c0,0.94-0.18,1.86-0.53,2.74l-24.2,60.6
	C76.65,139.99,73.9,141.79,70.94,141.79z M95.14,3.5c-0.32,0-0.64,0.03-0.96,0.09L7.93,19.1c-2.56,0.46-4.43,2.69-4.43,5.29v67.26
	c0,0.72,0.14,1.42,0.42,2.07c1.63,3.89,8.31,17.48,25.68,29.12c16.67,11.17,32.44,15.36,40.36,16.86c2.51,0.48,5.02-0.91,5.97-3.29
	l24.2-60.6c0.25-0.64,0.38-1.31,0.38-1.99V8.88c0-1.6-0.7-3.1-1.93-4.13C97.6,3.94,96.39,3.5,95.14,3.5z"/>
</svg>
