<?xml version="1.0" encoding="utf-8"?>
<!-- Generator: Adobe Illustrator 23.0.1, SVG Export Plug-In . SVG Version: 6.00 Build 0)  -->
<svg version="1.1" id="Layer_1" xmlns="http://www.w3.org/2000/svg" xmlns:xlink="http://www.w3.org/1999/xlink" x="0px" y="0px"
	 viewBox="0 0 107.43 143.76" style="enable-background:new 0 0 107.43 143.76;" xml:space="preserve">
<style type="text/css">
	.st0{fill:#E67BB0;}
	.st1{fill:#91CFA7;}
	.st2{fill:#3488C9;}
	.st3{fill:#86CCC8;}
	.st4{fill:url(#SVGID_1_);}
	.st5{fill:url(#SVGID_2_);}
	.st6{fill:#B86E29;}
</style>
<path class="st2" d="M74.64,142.82c-2.18,0-4.29-0.64-6.1-1.86L4.82,98.01C1.8,95.97,0,92.59,0,88.95v-63c0-5.3,3.79-9.82,9-10.75
	L93.28,0.17C93.92,0.06,94.57,0,95.21,0c5.06,0,9.42,3.43,10.6,8.34c1.09,4.53,1.62,8.37,1.62,11.73l0,5.34
	c0.01,46.51-0.02,66.17-0.09,67.83c-0.01,0.61-0.41,15.86-7.47,26.68c-6.95,10.66-13.95,17.12-18.6,20.66
	C79.37,142.02,77.02,142.82,74.64,142.82z M95.21,5c-0.35,0-0.7,0.03-1.05,0.09L9.88,20.12C7.05,20.62,5,23.08,5,25.95v63
	c0,1.97,0.98,3.81,2.61,4.91l63.72,42.95c0.98,0.66,2.12,1.01,3.3,1.01c1.31,0,2.56-0.42,3.61-1.22c4.33-3.3,10.88-9.34,17.44-19.41
	c6.2-9.51,6.66-23.95,6.66-24.1l0.01-0.12c0.06-1.06,0.08-23.79,0.08-67.55l0-5.34c0-2.96-0.48-6.42-1.48-10.56
	C100.31,6.86,97.95,5,95.21,5z"/>
<path class="st2" d="M74.64,141.32c-1.83,0-3.67-0.53-5.26-1.61L5.65,96.76c-2.6-1.75-4.15-4.67-4.15-7.81v-63
	c0-4.57,3.27-8.47,7.77-9.27L93.55,1.65c4.9-0.88,9.65,2.22,10.81,7.05c1.06,4.41,1.57,8.14,1.57,11.38l0,5.34
	c0.01,46.25-0.02,66.12-0.09,67.77h0c-0.01,0.63-0.43,15.51-7.23,25.92c-6.84,10.48-13.7,16.82-18.25,20.29
	C78.67,140.67,76.66,141.32,74.64,141.32z M95.21,3.5c-0.43,0-0.87,0.04-1.31,0.12L9.62,18.64c-3.54,0.63-6.12,3.7-6.12,7.3v63
	c0,2.47,1.22,4.77,3.27,6.15l63.72,42.95c2.64,1.78,6.12,1.67,8.66-0.26c4.43-3.37,11.11-9.54,17.79-19.79
	c6.48-9.93,6.9-24.73,6.9-24.88l0-0.08c0.09-1.65,0.08-51.3,0.08-67.64l0-5.34c0-3.08-0.5-6.65-1.52-10.91
	C101.6,5.8,98.57,3.5,95.21,3.5z"/>
</svg>
