<?xml version="1.0" encoding="utf-8"?>
<!-- Generator: Adobe Illustrator 23.0.1, SVG Export Plug-In . SVG Version: 6.00 Build 0)  -->
<svg version="1.1" id="Layer_1" xmlns="http://www.w3.org/2000/svg" xmlns:xlink="http://www.w3.org/1999/xlink" x="0px" y="0px"
	 viewBox="0 0 433.89 301.38" style="enable-background:new 0 0 433.89 301.38;" xml:space="preserve">
<style type="text/css">
	.st0{fill:#FFFFFF;}
</style>
<g>
	<path class="st0" d="M130.83,37.84L299.29,0v63.29l-168.46,40.67V37.84z M133.52,105.98L300.9,65.31V3.1l2.15,2.02v61.94
		l-167.38,40.67L133.52,105.98z M179.44,72.98V55.61l6.73-1.48v-3.91l-17.24,4.17v3.77l6.6-1.62v17.37L179.44,72.98z M208.39,66.25
		v-7.14c1.21-0.27,2.42-0.4,3.37-0.67c1.35-0.27,2.29-0.54,3.23-0.81v7l3.77-0.94v-7.54c1.21-0.54,2.69-1.21,4.17-2.02l-0.94-2.96
		l-4.71,2.42c-1.62,0.54-3.37,0.94-5.52,1.48c-0.94,0.27-2.15,0.54-3.37,0.67V45.38l-3.9,0.81V67.2L208.39,66.25z M218.76,52.11
		v-9.16l-3.77,0.94v9.83C216.34,53.32,217.69,52.79,218.76,52.11z M255.39,55.08v-3.77l-10.23,2.56v-3.91l7.27-1.75v-3.23
		l-7.27,1.62v-6.2l9.56-2.15v-3.77l-13.33,3.1v20.87L255.39,55.08z"/>
	<path class="st0" d="M54.63,186.43l10.54-5.69c2.12,4.59,5.78,6.63,11.81,6.63c6.88-0.17,10.45-2.97,8.58-7.05
		c-0.93-1.87-2.63-2.55-8.24-3.4c-3.91-0.68-8.33-1.36-12.32-3.82c-6.12-3.74-9.18-10.88-7.65-18.1
		c1.53-7.82,8.07-13.59,16.91-15.04c11.38-1.61,20.73,2.97,26.17,13.08l-10.45,5.95c-3.06-5.78-7.56-8.07-13.93-7.05
		c-3.82,0.59-6.46,2.63-6.8,5.52c-1.27,5.27,3.57,6.46,10.03,7.48c6.29,1.02,15.55,2.38,17.93,12.49c1.36,5.69,0.42,10.96-2.63,14.7
		c-3.57,4.67-9.86,7.22-17.5,7.31C66.69,199.43,58.62,194.75,54.63,186.43z"/>
	<path class="st0" d="M140.35,151.85h-18.01v-12.06h48.17v12.06h-18.1v47.58h-12.06V151.85z"/>
	<path class="st0" d="M186.83,169.69c0-16.4,13.34-29.65,29.74-29.65c16.31,0,29.65,13.34,29.65,29.65
		c0,16.4-13.34,29.74-29.65,29.74C200.17,199.43,186.83,186.17,186.83,169.69z M234.24,169.69c0-9.69-7.99-17.59-17.67-17.59
		c-9.77,0-17.76,7.9-17.76,17.59c0,9.77,7.99,17.67,17.76,17.67C226.25,187.36,234.24,179.46,234.24,169.69z"/>
	<path class="st0" d="M268.48,139.95h20.22c8.5,0,20.56,7.9,20.56,22.51c0,7.99-3.57,14.53-9.77,18.27l9.26,18.69h-11.98
		l-7.99-16.14l-8.33,0.08v16.06h-11.98L268.48,139.95L268.48,139.95z M290.48,171.3c0.08,0,6.71-0.34,6.71-8.84
		c0-7.99-6.2-10.54-8.5-10.54h-8.24v19.37L290.48,171.3L290.48,171.3z"/>
	<path class="st0" d="M345.62,178.95l-20.65-38.91h13.68l13.17,24.89l14.02-24.89h13.76l-21.92,39.08v20.31h-12.06V178.95z"/>
	<path class="st0" d="M0,271.64c0-16.4,13.34-29.65,29.74-29.65c16.31,0,29.65,13.34,29.65,29.65c0,16.4-13.34,29.74-29.65,29.74
		C13.34,301.38,0,288.13,0,271.64z M47.41,271.64c0-9.69-7.99-17.59-17.67-17.59c-9.77,0-17.76,7.9-17.76,17.59
		c0,9.77,7.99,17.67,17.76,17.67C39.42,289.31,47.41,281.41,47.41,271.64z"/>
	<path class="st0" d="M81.65,241.99h37.72v12.06H93.63v16.82h16.74v10.71H93.63v19.8H81.65V241.99z"/>
	<path class="st0" d="M181.98,271.64c0-16.48,13.34-29.82,29.74-29.82c7.9,0,15.46,3.14,21.07,8.84l-8.33,8.67
		c-3.23-3.48-7.82-5.44-12.74-5.44c-9.77,0-17.76,7.9-17.76,17.76c0,9.77,7.99,17.67,17.76,17.67c4.93,0,9.6-2.04,13-5.61l8.41,8.58
		c-5.69,5.86-13.34,9.09-21.41,9.09C195.32,301.38,181.98,288.04,181.98,271.64z"/>
	<path class="st0" d="M270.94,241.65h10.88l21.33,59.73h-12.66l-4.16-11.72h-19.8l-4.25,11.72h-12.66L270.94,241.65z M282.41,278.95
		l-6.03-16.82l-6.12,16.82H282.41z"/>
	<path class="st0" d="M342.99,278.52l-5.95,6.88v15.97h-11.98v-59.22h11.98v24.89l21.07-24.89h15.04l-22.94,27.87l20.22,31.35
		h-12.57L342.99,278.52z"/>
	<path class="st0" d="M394.47,241.91h37.55v11.98h-25.57v15.63h19.29v10.71h-19.29v9.09h27.44v12.06h-39.42L394.47,241.91
		L394.47,241.91z"/>
</g>
</svg>
