<?xml version="1.0" encoding="utf-8"?>
<!-- Generator: Adobe Illustrator 23.0.1, SVG Export Plug-In . SVG Version: 6.00 Build 0)  -->
<svg version="1.1" id="Layer_1" xmlns="http://www.w3.org/2000/svg" xmlns:xlink="http://www.w3.org/1999/xlink" x="0px" y="0px"
	 viewBox="0 0 148.78 226.72" style="enable-background:new 0 0 148.78 226.72;" xml:space="preserve">
<style type="text/css">
	.st0{fill:#E06624;}
	.st1{fill:#197B1E;}
</style>
<path class="st0" d="M121.01,53.44c-0.07,1.66,0.87,3.02,1.4,4.48c3.97,11,1.43,20.61-6.31,28.98c-3.7,4-6.59,8.55-9.75,12.91
	c-8.42,11.64-16.78,23.33-25.43,34.8c-7.8,10.35-15.6,20.71-23.52,30.99c-7.15,9.28-14.6,18.32-22.2,27.24
	c-7.86,9.24-15.76,18.46-24.76,26.63c-2.58,2.34-5.42,4.38-8.15,6.55c-0.51,0.41-1.1,0.96-1.78,0.59c-0.7-0.38-0.51-1.19-0.43-1.82
	c0.66-4.88,2.04-9.59,3.28-14.34c2.97-11.35,6.95-22.38,10.96-33.38c4.47-12.24,9.1-24.44,14.35-36.39
	c4.2-9.58,8.24-19.24,12.78-28.66C48.7,96.99,55.67,81.7,66.25,68.63c4.94-6.1,9.79-12.34,15.24-18.04
	c4.35-4.56,10.06-5.9,16.02-6.5c3.47-0.35,6.96-0.48,10.44-0.71C112.72,46.2,117.68,48.77,121.01,53.44z"/>
<path class="st1" d="M121.01,53.44c-3.34-4.67-8.29-7.23-13.05-10.05c0.59-0.35,0.93-0.76,1.01-1.54
	c1.19-10.41,3.5-20.58,6.78-30.53c1.1-3.33,2.34-6.53,4.36-9.43c1.27-1.82,3.42-2.47,5.58-1.25c1.96,1.11,0.71,2.76,0.23,3.96
	c-2.85,7.17-5.88,14.26-8.41,21.56c-0.35,1-0.65,1.98-0.62,3.46c2.05-2.02,3.31-4.15,4.51-6.27c1.42-2.5,3.24-4.54,5.34-6.5
	c5.1-4.75,10.47-9.27,14.76-14.83c0.91-1.18,1.54-1.17,2.54-0.11c2.66,2.81,2.3,4.89-1.05,8.6c-4.52,5-9.75,9.25-14.5,13.99
	c-2.61,2.6-4.46,5.78-6.9,8.5c-0.52,0.58-1.23,1.42-0.55,2.19c0.63,0.71,1.61,0.24,2.34-0.08c4.51-2.02,8.35-5.08,12.15-8.12
	c3.17-2.54,6.45-4.93,9.66-7.41c1.29-0.99,2.17-0.65,3.09,0.55c1.11,1.45,0.11,1.91-0.89,2.69c-4.63,3.58-9.45,6.89-14.23,10.26
	c-3.03,2.13-5.04,5.15-6.4,8.82c2.29-1.49,4.6-2.94,6.86-4.47c2.65-1.8,5.22-3.71,7.89-5.47c0.71-0.47,1.71-1.54,2.54-0.27
	c0.84,1.29-0.05,2.2-1.14,2.83c-4.82,2.83-9.16,6.3-13.4,9.93c-2.8,2.39-5.02,5.3-7.38,8.08C121.84,52.86,121.39,53.12,121.01,53.44
	z"/>
</svg>
