<?xml version="1.0" encoding="utf-8"?>
<!-- Generator: Adobe Illustrator 23.0.1, SVG Export Plug-In . SVG Version: 6.00 Build 0)  -->
<svg version="1.1" id="Layer_1" xmlns="http://www.w3.org/2000/svg" xmlns:xlink="http://www.w3.org/1999/xlink" x="0px" y="0px"
	 viewBox="0 0 55 83.81" style="enable-background:new 0 0 55 83.81;" xml:space="preserve">
<style type="text/css">
	.st0{fill:#E06624;}
	.st1{fill:#197B1E;}
</style>
<g>
	<path class="st0" d="M44.73,19.75c-0.02,0.61,0.32,1.11,0.52,1.66c1.47,4.07,0.53,7.62-2.33,10.71c-1.37,1.48-2.44,3.16-3.6,4.77
		c-3.11,4.3-6.2,8.62-9.4,12.87c-2.89,3.83-5.77,7.66-8.69,11.45c-2.64,3.43-5.4,6.77-8.21,10.07c-2.91,3.41-5.83,6.82-9.15,9.85
		c-0.95,0.86-2,1.62-3.01,2.42c-0.19,0.15-0.41,0.35-0.66,0.22C-0.07,83.63,0,83.33,0.03,83.1c0.24-1.8,0.75-3.55,1.21-5.3
		c1.1-4.2,2.57-8.27,4.05-12.34c1.65-4.53,3.37-9.04,5.3-13.45c1.55-3.54,3.05-7.11,4.73-10.59c2.68-5.56,5.25-11.21,9.17-16.04
		c1.83-2.26,3.62-4.56,5.63-6.67c1.61-1.68,3.72-2.18,5.92-2.4c1.28-0.13,2.57-0.18,3.86-0.26C41.67,17.08,43.5,18.03,44.73,19.75z"
		/>
	<path class="st1" d="M44.73,19.75c-1.23-1.73-3.07-2.67-4.83-3.72c0.22-0.13,0.34-0.28,0.37-0.57c0.44-3.85,1.29-7.61,2.51-11.29
		c0.41-1.23,0.87-2.42,1.61-3.49c0.47-0.67,1.27-0.91,2.06-0.46c0.73,0.41,0.26,1.02,0.08,1.46c-1.05,2.65-2.17,5.27-3.11,7.97
		c-0.13,0.37-0.24,0.73-0.23,1.28c0.76-0.75,1.22-1.54,1.67-2.32c0.52-0.92,1.2-1.68,1.98-2.4c1.89-1.76,3.87-3.43,5.45-5.48
		c0.34-0.44,0.57-0.43,0.94-0.04c0.98,1.04,0.85,1.81-0.39,3.18c-1.67,1.85-3.6,3.42-5.36,5.17c-0.96,0.96-1.65,2.14-2.55,3.14
		c-0.19,0.21-0.45,0.53-0.2,0.81c0.23,0.26,0.59,0.09,0.87-0.03c1.67-0.74,3.09-1.88,4.49-3c1.17-0.94,2.38-1.82,3.57-2.74
		c0.48-0.37,0.8-0.24,1.14,0.2c0.41,0.54,0.04,0.71-0.33,0.99c-1.71,1.32-3.49,2.55-5.26,3.79c-1.12,0.79-1.86,1.9-2.36,3.26
		c0.85-0.55,1.7-1.09,2.54-1.65c0.98-0.66,1.93-1.37,2.92-2.02c0.26-0.17,0.63-0.57,0.94-0.1c0.31,0.48-0.02,0.81-0.42,1.05
		c-1.78,1.05-3.39,2.33-4.95,3.67c-1.03,0.89-1.85,1.96-2.73,2.99C45.04,19.54,44.88,19.64,44.73,19.75z"/>
</g>
</svg>
