<?xml version="1.0" encoding="utf-8"?>
<!-- Generator: Adobe Illustrator 23.0.1, SVG Export Plug-In . SVG Version: 6.00 Build 0)  -->
<svg version="1.1" id="Layer_1" xmlns="http://www.w3.org/2000/svg" xmlns:xlink="http://www.w3.org/1999/xlink" x="0px" y="0px"
	 viewBox="0 0 89.73 128.26" style="enable-background:new 0 0 89.73 128.26;" xml:space="preserve">
<style type="text/css">
	.st0{fill:#EBB6D3;}
	.st1{fill:#B6B9AA;}
	.st2{fill:#F0F3F9;}
	.st3{fill:#DEE6F4;}
	.st4{fill:#FAA919;}
	.st5{fill:#F28195;}
	.st6{fill:#EF4F70;}
	.st7{fill:#EAC0D3;}
	.st8{fill:#CDA6C0;}
	.st9{fill:#FBF7C3;}
	.st10{fill:#EBF1C3;}
	.st11{fill:#ACA3CF;}
	.st12{fill:#EBE60E;}
	.st13{fill:#36C5F3;}
	.st14{fill:#90CEA6;}
	.st15{fill:#8E4C26;}
	.st16{fill:#DC3D3E;}
	.st17{fill:#E3D2A6;}
	.st18{clip-path:url(#SVGID_2_);}
	.st19{fill:#FFFFFF;}
	.st20{opacity:0.3;}
	.st21{fill:#C0272D;}
	.st22{fill:#C7892B;}
	.st23{fill:#F0B12F;}
	.st24{fill:#B47B2C;}
	.st25{fill:#DB9F32;}
	.st26{opacity:0.56;fill:#7F5522;}
	.st27{fill:none;}
	.st28{fill:#F5BB53;}
	.st29{fill:#8C5D25;}
	.st30{fill:#A2712A;}
	.st31{fill:none;stroke:#A2712A;stroke-width:0.5;stroke-linejoin:round;stroke-miterlimit:10;}
	.st32{fill:#81A781;}
	.st33{fill:#F8F2E9;}
	.st34{clip-path:url(#SVGID_4_);}
	.st35{fill:#8ED5E9;}
	.st36{fill:#24A9E1;}
	.st37{fill:#3388C8;}
	.st38{fill-rule:evenodd;clip-rule:evenodd;fill:#E594BF;}
	.st39{fill-rule:evenodd;clip-rule:evenodd;fill:#F1D0E3;}
	.st40{fill-rule:evenodd;clip-rule:evenodd;fill:#EEDFED;}
	.st41{fill-rule:evenodd;clip-rule:evenodd;fill:#FFF584;}
	.st42{fill-rule:evenodd;clip-rule:evenodd;fill:#FFFFFF;}
	.st43{fill:#85CCC8;}
	.st44{fill:#BDE3DF;}
	.st45{fill-rule:evenodd;clip-rule:evenodd;fill:#99A96C;}
	.st46{opacity:0.28;fill-rule:evenodd;clip-rule:evenodd;fill:#727964;}
	.st47{fill-rule:evenodd;clip-rule:evenodd;fill:#E5E1DC;}
	.st48{fill-rule:evenodd;clip-rule:evenodd;fill:#F2F0ED;}
	.st49{fill-rule:evenodd;clip-rule:evenodd;fill:#F9F8D3;}
	.st50{fill-rule:evenodd;clip-rule:evenodd;fill:#F6F5F3;}
	.st51{fill-rule:evenodd;clip-rule:evenodd;fill:#74AA6D;}
	.st52{fill:#FFF2D3;}
	.st53{fill:#EEE2C9;}
	.st54{fill:#F5E5C5;}
	.st55{fill:#B76E29;}
	.st56{fill:#FBB458;}
	.st57{fill:#4CB75A;}
	.st58{fill:#F79A2F;}
	.st59{fill:#F89A2F;}
	.st60{fill:#F89B2F;}
	.st61{fill:url(#SVGID_5_);}
	.st62{fill:url(#SVGID_6_);}
	.st63{clip-path:url(#SVGID_8_);fill:url(#SVGID_9_);}
	.st64{clip-path:url(#SVGID_8_);}
	.st65{fill:url(#SVGID_10_);}
	.st66{opacity:0.14;fill:#FFFFFF;}
	.st67{fill:url(#SVGID_11_);}
	.st68{opacity:0.14;clip-path:url(#SVGID_8_);fill:#FFFFFF;}
	.st69{fill:#F1F1F1;}
	.st70{opacity:0.4;}
	.st71{fill:url(#SVGID_12_);}
	.st72{fill:url(#SVGID_13_);}
	.st73{fill:url(#SVGID_14_);}
	.st74{fill:url(#SVGID_15_);}
</style>
<g>
	<path class="st14" d="M66.11,16.53C54.14,8.5,39.72,3.13,24.46,0.4L0.42,60.61l89.74-16.14C86.09,34.24,78.08,24.56,66.11,16.53z"
		/>
	<polygon class="st15" points="90.16,70.53 0.42,86.67 0.42,69 90.16,52.86 	"/>
	<polygon class="st16" points="90.16,85.47 0.42,101.61 0.42,90.9 90.16,74.76 	"/>
	<polygon class="st17" points="90.16,74.76 0.42,90.9 0.42,86.67 90.16,70.53 	"/>
	<g>
		<defs>
			<path id="SVGID_1_" d="M66.11,16.53C54.14,8.5,39.72,3.13,24.46,0.4L0.42,60.61l89.74-16.14C86.09,34.24,78.08,24.56,66.11,16.53
				z"/>
		</defs>
		<clipPath id="SVGID_2_">
			<use xlink:href="#SVGID_1_"  style="overflow:visible;"/>
		</clipPath>
		<g class="st18">
			<polygon class="st19" points="76.34,35.42 46.04,4.73 10.02,26.03 40.32,56.72 			"/>
			<g>
				<g class="st20">
					<polygon class="st21" points="11.92,27.95 10.02,26.03 46.04,4.73 47.93,6.65 					"/>
					<polygon class="st21" points="15.7,31.79 13.81,29.87 49.82,8.57 51.72,10.49 					"/>
					<polygon class="st21" points="19.49,35.62 17.6,33.7 53.61,12.4 55.51,14.32 					"/>
					<polygon class="st21" points="23.28,39.46 21.39,37.54 57.4,16.24 59.29,18.16 					"/>
					<polygon class="st21" points="27.07,43.29 25.17,41.38 61.19,20.08 63.08,21.99 					"/>
					<polygon class="st21" points="30.85,47.13 28.96,45.21 64.97,23.91 66.87,25.83 					"/>
					<polygon class="st21" points="34.64,50.97 32.75,49.05 68.76,27.75 70.66,29.67 					"/>
					<polygon class="st21" points="38.43,54.8 36.54,52.88 72.55,31.58 74.44,33.5 					"/>
				</g>
				<g class="st20">
					<polygon class="st21" points="41.53,7.39 43.78,6.06 74.09,36.75 71.84,38.08 					"/>
					<polygon class="st21" points="37.03,10.06 39.28,8.73 69.59,39.41 67.33,40.75 					"/>
					<polygon class="st21" points="32.53,12.72 34.78,11.39 65.08,42.08 62.83,43.41 					"/>
					<polygon class="st21" points="28.03,15.38 30.28,14.05 60.58,44.74 58.33,46.07 					"/>
					<polygon class="st21" points="23.53,18.04 25.78,16.71 56.08,47.4 53.83,48.73 					"/>
					<polygon class="st21" points="19.03,20.71 21.28,19.38 51.58,50.06 49.33,51.4 					"/>
					<polygon class="st21" points="14.52,23.37 16.77,22.04 47.08,52.73 44.83,54.06 					"/>
					<polygon class="st21" points="10.02,26.03 12.27,24.7 42.58,55.39 40.32,56.72 					"/>
				</g>
			</g>
		</g>
	</g>
	<polygon class="st17" points="90.13,89.54 0.42,105.84 0.42,101.61 90.16,85.47 	"/>
	<polygon class="st15" points="90.17,111.35 0.46,127.65 0.42,105.84 90.13,89.54 	"/>
	<g>
		<polygon class="st22" points="57.16,19.64 56.81,21.85 54.93,22.94 55.22,20.84 55.19,20.78 		"/>
		<polygon class="st23" points="56.81,21.85 56.46,24.06 54.63,25.12 54.93,22.94 		"/>
		<polygon class="st22" points="56.46,24.06 56.11,26.27 54.32,27.31 54.63,25.12 		"/>
		<polygon class="st23" points="56.11,26.27 55.76,28.48 54.02,29.49 54.02,29.49 54.32,27.31 		"/>
		<polygon class="st23" points="55.19,20.78 55.22,20.84 54.93,22.94 53.07,24.01 53.33,21.85 53.33,21.85 		"/>
		<polygon class="st22" points="54.93,22.94 54.63,25.12 52.81,26.17 53.07,24.01 		"/>
		<polygon class="st23" points="54.63,25.12 54.32,27.31 52.55,28.33 52.81,26.17 		"/>
		<polygon class="st22" points="54.32,27.31 54.02,29.49 54.02,29.49 52.29,30.49 52.55,28.33 		"/>
		<polygon class="st22" points="53.33,21.85 53.33,21.85 53.07,24.01 51.07,25.16 51.25,23.05 		"/>
		<polygon class="st23" points="53.07,24.01 52.81,26.17 50.89,27.28 51.07,25.16 		"/>
		<polygon class="st22" points="52.81,26.17 52.55,28.33 50.71,29.39 50.89,27.28 		"/>
		<polygon class="st23" points="52.55,28.33 52.29,30.49 50.54,31.5 50.71,29.39 		"/>
		<polygon class="st23" points="51.25,23.05 51.07,25.16 49.19,26.25 49.31,24.17 		"/>
		<polygon class="st22" points="51.07,25.16 50.89,27.28 49.06,28.34 49.19,26.25 		"/>
		<polygon class="st23" points="50.89,27.28 50.71,29.39 48.93,30.42 49.06,28.34 		"/>
		<polygon class="st22" points="50.71,29.39 50.54,31.5 48.8,32.5 48.93,30.42 		"/>
		<polygon class="st22" points="49.31,24.17 49.19,26.25 47.23,27.38 47.28,25.34 		"/>
		<polygon class="st23" points="49.19,26.25 49.06,28.34 47.17,29.43 47.23,27.38 		"/>
		<polygon class="st22" points="49.06,28.34 48.93,30.42 47.11,31.47 47.17,29.43 		"/>
		<polygon class="st23" points="48.93,30.42 48.8,32.5 47.06,33.51 47.06,33.51 47.11,31.47 		"/>
		<polygon class="st23" points="47.28,25.34 47.23,27.38 45.31,28.49 45.3,26.48 		"/>
		<polygon class="st22" points="47.23,27.38 47.17,29.43 45.31,30.5 45.31,28.49 		"/>
		<polygon class="st23" points="47.17,29.43 47.11,31.47 45.31,32.51 45.31,30.5 		"/>
		<polygon class="st22" points="47.11,31.47 47.06,33.51 47.06,33.51 45.32,34.52 45.31,32.51 		"/>
		<polygon class="st23" points="45.31,32.51 45.32,34.52 43.58,35.52 43.58,33.51 		"/>
		<polygon class="st22" points="45.31,30.5 45.31,32.51 43.58,33.51 43.58,31.5 43.58,31.5 		"/>
		<polygon class="st23" points="45.31,28.49 45.31,30.5 43.58,31.5 43.58,31.5 43.58,29.49 		"/>
		<polygon class="st22" points="45.3,26.48 45.31,28.49 43.58,29.49 43.58,27.48 		"/>
		<polygon class="st24" points="43.58,33.51 43.58,35.52 41.84,34.52 41.84,34.51 41.84,32.51 43.57,33.51 		"/>
		<polygon class="st25" points="43.58,31.5 43.58,33.51 43.57,33.51 41.84,32.51 41.84,30.5 		"/>
		<polygon class="st24" points="43.58,29.49 43.58,31.5 41.84,30.5 41.84,28.49 43.57,29.49 		"/>
		<polygon class="st25" points="43.58,27.48 43.58,29.49 43.57,29.49 41.84,28.49 41.84,26.48 43.57,27.48 		"/>
		<polygon class="st25" points="41.84,32.51 41.84,34.51 41.84,34.52 40.09,33.51 40.09,33.51 40,31.45 		"/>
		<polygon class="st24" points="41.84,30.5 41.84,32.51 40,31.45 39.91,29.38 		"/>
		<polygon class="st25" points="41.84,28.49 41.84,30.5 39.91,29.38 39.82,27.32 		"/>
		<polygon class="st24" points="41.84,26.48 41.84,28.49 39.82,27.32 39.73,25.26 		"/>
		<polygon class="st24" points="40,31.45 40.09,33.51 40.09,33.51 38.36,32.51 38.36,32.51 38.23,30.42 		"/>
		<polygon class="st25" points="39.91,29.38 40,31.45 38.23,30.42 38.1,28.34 		"/>
		<polygon class="st24" points="39.82,27.32 39.91,29.38 38.1,28.34 37.97,26.25 		"/>
		<polygon class="st25" points="39.73,25.26 39.82,27.32 37.97,26.25 37.84,24.17 		"/>
		<polygon class="st25" points="38.23,30.42 38.36,32.51 38.36,32.51 36.61,31.5 36.36,29.34 		"/>
		<polygon class="st24" points="38.1,28.34 38.23,30.42 36.36,29.34 36.11,27.19 		"/>
		<polygon class="st25" points="37.97,26.25 38.1,28.34 36.11,27.19 35.86,25.03 		"/>
		<polygon class="st24" points="37.84,24.17 37.97,26.25 35.86,25.03 35.61,22.88 		"/>
		<polygon class="st24" points="36.36,29.34 36.61,31.5 34.87,30.5 34.52,28.28 		"/>
		<polygon class="st25" points="36.11,27.19 36.36,29.34 34.52,28.28 34.18,26.07 		"/>
		<polygon class="st24" points="35.86,25.03 36.11,27.19 34.18,26.07 33.83,23.86 		"/>
		<polygon class="st25" points="35.61,22.88 35.86,25.03 33.83,23.86 33.48,21.65 		"/>
		<polygon class="st26" points="43.58,27.48 43.58,27.97 33.56,22.18 33.48,21.65 		"/>
		<polygon class="st26" points="43.58,27.48 43.57,27.97 57.08,20.17 57.16,19.64 		"/>
		<g>
			<polyline class="st27" points="36.61,31.5 36.61,31.5 36.36,29.34 36.11,27.19 35.86,25.03 35.61,22.88 			"/>
			<polyline class="st27" points="40.09,33.51 40,31.45 39.91,29.38 39.82,27.32 39.73,25.26 			"/>
			<polyline class="st27" points="38.36,32.51 38.23,30.42 38.1,28.34 37.97,26.25 37.84,24.17 			"/>
			<polyline class="st27" points="45.32,34.52 45.31,32.51 45.31,30.5 45.31,28.49 45.3,26.48 			"/>
			<polyline class="st27" points="54.02,29.49 54.32,27.31 54.63,25.12 54.93,22.94 55.22,20.84 			"/>
			<polyline class="st27" points="52.29,30.5 52.29,30.49 52.55,28.33 52.81,26.17 53.07,24.01 53.33,21.85 			"/>
			<polyline class="st27" points="50.54,31.5 50.71,29.39 50.89,27.28 51.07,25.16 51.25,23.05 			"/>
			<polyline class="st27" points="48.8,32.51 48.8,32.5 48.93,30.42 49.06,28.34 49.19,26.25 49.31,24.17 			"/>
			<polyline class="st27" points="47.06,33.51 47.11,31.47 47.17,29.43 47.23,27.38 47.28,25.34 47.28,25.32 			"/>
		</g>
		<g>
			<polygon class="st28" points="43.58,25.49 57.5,17.45 47.06,11.4 33.13,19.44 			"/>
			<polyline class="st24" points="33.13,21.45 43.57,27.48 43.58,25.49 33.13,19.44 33.09,21.5 			"/>
			<polygon class="st22" points="57.5,17.45 57.5,19.44 43.57,27.48 43.58,25.49 			"/>
		</g>
		<polygon class="st29" points="39.52,15.75 40.67,15.09 40.68,12.43 39.49,11.75 		"/>
		<polygon class="st30" points="40.68,11.06 39.49,11.75 40.68,12.43 49.98,17.75 50.01,23.76 51.25,23.05 51.25,17.02 		"/>
		<line class="st31" x1="40.19" y1="15.37" x2="50.54" y2="21.47"/>
	</g>
	<polygon class="st32" points="90.17,111.35 90.16,44.47 0.42,60.61 0.42,69 83.42,54.08 83.35,112.59 	"/>
</g>
</svg>
