<?xml version="1.0" encoding="utf-8"?>
<!-- Generator: Adobe Illustrator 23.0.1, SVG Export Plug-In . SVG Version: 6.00 Build 0)  -->
<svg version="1.1" id="Layer_1" xmlns="http://www.w3.org/2000/svg" xmlns:xlink="http://www.w3.org/1999/xlink" x="0px" y="0px"
	 viewBox="0 0 92.89 127.16" style="enable-background:new 0 0 92.89 127.16;" xml:space="preserve">
<style type="text/css">
	.st0{fill:#EBB6D3;}
	.st1{fill:#B6B9AA;}
	.st2{fill:#F0F3F9;}
	.st3{fill:#DEE6F4;}
	.st4{fill:#FAA919;}
	.st5{fill:#F28195;}
	.st6{fill:#EF4F70;}
	.st7{fill:#EAC0D3;}
	.st8{fill:#CDA6C0;}
	.st9{fill:#FBF7C3;}
	.st10{fill:#EBF1C3;}
	.st11{fill:#ACA3CF;}
	.st12{fill:#EBE60E;}
	.st13{fill:#36C5F3;}
	.st14{fill:#90CEA6;}
	.st15{fill:#8E4C26;}
	.st16{fill:#DC3D3E;}
	.st17{fill:#E3D2A6;}
	.st18{clip-path:url(#SVGID_2_);}
	.st19{fill:#FFFFFF;}
	.st20{opacity:0.3;}
	.st21{fill:#C0272D;}
	.st22{fill:#C7892B;}
	.st23{fill:#F0B12F;}
	.st24{fill:#B47B2C;}
	.st25{fill:#DB9F32;}
	.st26{opacity:0.56;fill:#7F5522;}
	.st27{fill:none;}
	.st28{fill:#F5BB53;}
	.st29{fill:#8C5D25;}
	.st30{fill:#A2712A;}
	.st31{fill:none;stroke:#A2712A;stroke-width:0.5;stroke-linejoin:round;stroke-miterlimit:10;}
	.st32{fill:#81A781;}
	.st33{fill:#F8F2E9;}
	.st34{clip-path:url(#SVGID_4_);}
	.st35{fill:#8ED5E9;}
	.st36{fill:#24A9E1;}
	.st37{fill:#3388C8;}
	.st38{fill-rule:evenodd;clip-rule:evenodd;fill:#E594BF;}
	.st39{fill-rule:evenodd;clip-rule:evenodd;fill:#F1D0E3;}
	.st40{fill-rule:evenodd;clip-rule:evenodd;fill:#EEDFED;}
	.st41{fill-rule:evenodd;clip-rule:evenodd;fill:#FFF584;}
	.st42{fill-rule:evenodd;clip-rule:evenodd;fill:#FFFFFF;}
	.st43{fill:#85CCC8;}
	.st44{fill:#BDE3DF;}
	.st45{fill-rule:evenodd;clip-rule:evenodd;fill:#99A96C;}
	.st46{opacity:0.28;fill-rule:evenodd;clip-rule:evenodd;fill:#727964;}
	.st47{fill-rule:evenodd;clip-rule:evenodd;fill:#E5E1DC;}
	.st48{fill-rule:evenodd;clip-rule:evenodd;fill:#F2F0ED;}
	.st49{fill-rule:evenodd;clip-rule:evenodd;fill:#F9F8D3;}
	.st50{fill-rule:evenodd;clip-rule:evenodd;fill:#F6F5F3;}
	.st51{fill-rule:evenodd;clip-rule:evenodd;fill:#74AA6D;}
	.st52{fill:#FFF2D3;}
	.st53{fill:#EEE2C9;}
	.st54{fill:#F5E5C5;}
	.st55{fill:#B76E29;}
	.st56{fill:#FBB458;}
	.st57{fill:#4CB75A;}
	.st58{fill:#F79A2F;}
	.st59{fill:#F89A2F;}
	.st60{fill:#F89B2F;}
	.st61{fill:url(#SVGID_5_);}
	.st62{fill:url(#SVGID_6_);}
	.st63{clip-path:url(#SVGID_8_);fill:url(#SVGID_9_);}
	.st64{clip-path:url(#SVGID_8_);}
	.st65{fill:url(#SVGID_10_);}
	.st66{opacity:0.14;fill:#FFFFFF;}
	.st67{fill:url(#SVGID_11_);}
	.st68{opacity:0.14;clip-path:url(#SVGID_8_);fill:#FFFFFF;}
	.st69{fill:#F1F1F1;}
	.st70{opacity:0.4;}
	.st71{fill:url(#SVGID_12_);}
	.st72{fill:url(#SVGID_13_);}
	.st73{fill:url(#SVGID_14_);}
	.st74{fill:url(#SVGID_15_);}
</style>
<g>
	<linearGradient id="SVGID_2_" gradientUnits="userSpaceOnUse" x1="3.637979e-12" y1="84.8583" x2="3.1508" y2="84.8583">
		<stop  offset="0" style="stop-color:#1F2756"/>
		<stop  offset="1" style="stop-color:#000000"/>
	</linearGradient>
	<path style="fill:url(#SVGID_2_);" d="M3.15,127.17c-2.3-5.78-3.34-11.73-3.12-17.67l-0.03,0V44.08l0.03-1.53
		c-0.22,5.94,0.83,11.89,3.12,17.67V127.17z"/>
	<linearGradient id="SVGID_4_" gradientUnits="userSpaceOnUse" x1="48.0216" y1="44.0793" x2="48.0216" y2="127.1686">
		<stop  offset="0" style="stop-color:#1F2756"/>
		<stop  offset="1" style="stop-color:#000000"/>
	</linearGradient>
	<polygon style="fill:url(#SVGID_4_);" points="3.15,127.17 92.89,111.03 92.89,44.08 3.15,60.22 	"/>
	<g>
		<defs>
			<path id="SVGID_7_" d="M3.15,60.22l89.74-16.14L27.21,0C2.89,16.31-5.12,39.42,3.15,60.22z"/>
		</defs>
		<clipPath id="SVGID_5_">
			<use xlink:href="#SVGID_7_"  style="overflow:visible;"/>
		</clipPath>
		
			<linearGradient id="SVGID_6_" gradientUnits="userSpaceOnUse" x1="-597.8621" y1="416.8712" x2="-597.8621" y2="354.3594" gradientTransform="matrix(0.4047 -0.6467 0.8621 0.5394 -46.9933 -547.8085)">
			<stop  offset="0" style="stop-color:#1F2756"/>
			<stop  offset="1" style="stop-color:#000000"/>
		</linearGradient>
		<polygon style="clip-path:url(#SVGID_5_);fill:url(#SVGID_6_);" points="61.22,98.39 97.56,40.32 20.16,-8.11 -16.18,49.95 		"/>
		<g style="clip-path:url(#SVGID_5_);">
			
				<linearGradient id="SVGID_8_" gradientUnits="userSpaceOnUse" x1="-787.53" y1="411.8934" x2="-787.53" y2="362.2494" gradientTransform="matrix(0.3206 -0.9472 0.9472 0.3206 -53.7998 -829.7174)">
				<stop  offset="0" style="stop-color:#1F2756"/>
				<stop  offset="0.1243" style="stop-color:#202E5C"/>
				<stop  offset="0.3056" style="stop-color:#21426D"/>
				<stop  offset="0.5218" style="stop-color:#246188"/>
				<stop  offset="0.7628" style="stop-color:#278EAE"/>
				<stop  offset="1" style="stop-color:#2BC0DA"/>
			</linearGradient>
			<path style="fill:url(#SVGID_8_);" d="M46.36,5.51c1.75,0.62,2.59,2.69,2.52,4.55c-0.07,1.86-0.84,3.6-1.34,5.39
				c-0.5,1.79-0.72,3.81,0.21,5.41c1.35,2.33,4.77,3.19,5.46,5.79c0.33,1.26-0.1,2.58-0.19,3.88c-0.13,1.81,0.39,3.61,0.49,5.42
				c0.1,1.81-0.36,3.86-1.9,4.84c-2.32,1.47-5.78-0.24-7.96,1.42c-2.55,1.94-1.05,6.61-3.49,8.69c-1.3,1.11-3.24,1.01-4.88,0.52
				c-1.64-0.48-3.2-1.29-4.9-1.41c-3.22-0.23-6.72,4.66-7.03,7.87l59.25-1.38c6.04-17.86,9.13,1.47,14.13-16.71L46.36,5.51z"/>
			<path class="st66" d="M48.54,4.87c1.16,2.17,1.5,4.76,0.95,7.16c-0.34,1.48-1,2.87-1.33,4.35c-0.33,1.48-0.29,3.16,0.65,4.35
				c0.57,0.72,1.41,1.18,2.16,1.73c1.34,0.98,2.43,2.29,3.16,3.78c-0.1-1.39-1.12-2.51-2.11-3.48s-2.08-1.98-2.43-3.33
				c-0.32-1.23,0.05-2.52,0.49-3.71c0.55-1.48,1.23-2.9,1.66-4.42c0.43-1.51,0.6-3.16,0.1-4.65c-0.76-0.66-1.63-1.31-2.52-1.78
				C49.07,4.73,48.78,4.72,48.54,4.87z"/>
		</g>
		<g style="clip-path:url(#SVGID_5_);">
			
				<linearGradient id="SVGID_9_" gradientUnits="userSpaceOnUse" x1="-590.3231" y1="440.4896" x2="-590.3231" y2="412.7322" gradientTransform="matrix(0.5305 -0.8477 0.8477 0.5305 28.1496 -684.6785)">
				<stop  offset="0" style="stop-color:#1F2756"/>
				<stop  offset="0.1243" style="stop-color:#202E5C"/>
				<stop  offset="0.3056" style="stop-color:#21426D"/>
				<stop  offset="0.5218" style="stop-color:#246188"/>
				<stop  offset="0.7628" style="stop-color:#278EAE"/>
				<stop  offset="1" style="stop-color:#2BC0DA"/>
			</linearGradient>
			<path style="fill:url(#SVGID_9_);" d="M66.84,18.17c-3.24,3.47-4.35,8.78-2.76,13.25c0.81,2.29,2.29,4.56,1.85,6.95
				c-0.25,1.35-1.09,2.51-1.77,3.71c-0.68,1.2-1.24,2.6-0.85,3.93c0.37,1.26,1.52,2.17,1.86,3.44c0.48,1.75-0.71,3.47-1.4,5.15
				c-1.3,3.2,3.89,3.07,6.07,5.75c10.89-11.07,25.07-11.25,32.07-25.11L66.84,18.17z"/>
			<path class="st66" d="M67.92,21.35c-1.64,2.41-2.06,5.62-1.1,8.37c0.81,2.31,2.54,4.42,2.37,6.86c-0.11,1.62-1.06,3.05-1.92,4.43
				c-0.86,1.38-1.68,2.93-1.5,4.55c0.09,0.8,0.42,1.55,0.63,2.33c0.21,0.78,0.29,1.64-0.09,2.35c0.6-0.55,0.76-1.31,0.73-2.12
				c-0.04-0.81-0.24-1.62-0.21-2.43c0.06-1.58,0.96-3,1.92-4.26c0.96-1.26,2.04-2.48,2.55-3.98c0.49-1.43,0.41-2.99,0.24-4.49
				c-0.17-1.5-0.44-3.01-0.31-4.51c0.13-1.51,0.71-3.05,1.92-3.96c-0.57-1.33-1.45-2.62-2.54-3.57c-0.4-0.35-0.86-0.67-1.38-0.73
				C68.7,20.14,68.21,20.91,67.92,21.35z"/>
		</g>
		<path style="opacity:0.14;clip-path:url(#SVGID_5_);fill:#FFFFFF;" d="M33.47,97.12c0.65-2.12,2.38-3.87,4.49-4.56
			c1.11-0.36,2.3-0.44,3.43-0.75c1.84-0.5,3.5-1.65,4.63-3.18c1.02-1.39,1.59-3.04,2.41-4.56c0.82-1.51,2.01-2.97,3.67-3.44
			c1.04-0.29,2.16-0.16,3.22-0.41c1.29-0.31,2.43-1.19,3.02-2.37c-0.7,1.08-2.14,1.4-3.43,1.39c-1.29,0-2.61-0.22-3.84,0.18
			c-1.33,0.44-2.33,1.56-3.09,2.74c-0.76,1.18-1.35,2.47-2.23,3.56c-1.27,1.57-3.14,2.66-5.13,2.99c-2.21,0.37-4.48-0.16-6.71,0.09
			c-3.23,0.36-6.22,2.48-7.62,5.42C28.61,95.11,31.24,96.02,33.47,97.12z"/>
		<g style="clip-path:url(#SVGID_5_);">
			<path class="st69" d="M74.72,55.45c-0.1,0.18-0.32,0.24-0.5,0.14c-0.18-0.1-0.24-0.32-0.14-0.5c0.1-0.18,0.32-0.24,0.5-0.14
				C74.75,55.05,74.82,55.27,74.72,55.45z"/>
			<circle class="st69" cx="63.1" cy="76.91" r="0.22"/>
			<path class="st69" d="M54.95,55.89c-0.18,0.33-0.6,0.45-0.93,0.27c-0.33-0.18-0.45-0.6-0.27-0.93c0.18-0.33,0.6-0.45,0.93-0.27
				C55.01,55.14,55.13,55.56,54.95,55.89z"/>
			<path class="st69" d="M51.59,81.53c-0.07,0.12-0.22,0.17-0.35,0.1c-0.12-0.07-0.17-0.22-0.1-0.35c0.07-0.12,0.22-0.17,0.35-0.1
				C51.62,81.25,51.66,81.41,51.59,81.53z"/>
			<circle class="st69" cx="1.1" cy="38.62" r="0.43"/>
			<circle class="st69" cx="5.37" cy="28.52" r="0.72"/>
			<circle class="st69" cx="21.37" cy="11.74" r="0.77"/>
			<path class="st69" d="M18.71,22.42c-0.03,0.06-0.11,0.08-0.17,0.05c-0.06-0.03-0.08-0.11-0.05-0.17
				c0.03-0.06,0.11-0.08,0.17-0.05C18.72,22.28,18.74,22.36,18.71,22.42z"/>
			<path class="st69" d="M25.25,20.61c-0.09,0.15-0.28,0.21-0.43,0.12c-0.15-0.09-0.21-0.28-0.12-0.43
				c0.09-0.15,0.28-0.21,0.43-0.12C25.28,20.26,25.33,20.46,25.25,20.61z"/>
			<path class="st69" d="M16.34,38.43c-0.11,0.2-0.36,0.27-0.56,0.16c-0.2-0.11-0.27-0.36-0.16-0.56c0.11-0.2,0.36-0.27,0.56-0.16
				C16.38,37.98,16.46,38.23,16.34,38.43z"/>
			<path class="st69" d="M10.7,15.68c-0.05,0.09-0.16,0.12-0.24,0.07c-0.09-0.05-0.12-0.16-0.07-0.24c0.05-0.09,0.16-0.12,0.24-0.07
				C10.72,15.49,10.75,15.6,10.7,15.68z"/>
			<circle class="st69" cx="8.03" cy="56.07" r="0.21"/>
			<circle class="st69" cx="26.42" cy="34.39" r="0.26"/>
			<circle class="st69" cx="33.32" cy="11.22" r="0.54"/>
			<circle class="st69" cx="37.16" cy="13.73" r="0.33"/>
			<circle class="st69" cx="50.98" cy="18.15" r="0.68"/>
			<circle class="st69" cx="80.12" cy="42.18" r="0.32"/>
			<g class="st70">
				<path class="st69" d="M68.5,65.18c-0.16,0.29-0.53,0.4-0.82,0.24s-0.4-0.53-0.24-0.82s0.53-0.4,0.82-0.24
					C68.56,64.52,68.66,64.89,68.5,65.18z"/>
				<path class="st69" d="M81.68,63.96c-0.1,0.18-0.32,0.24-0.5,0.14c-0.18-0.1-0.24-0.32-0.14-0.5c0.1-0.18,0.32-0.24,0.5-0.14
					C81.71,63.56,81.77,63.78,81.68,63.96z"/>
				<path class="st69" d="M58.95,95.05c-0.15,0.27-0.49,0.37-0.76,0.22c-0.27-0.15-0.37-0.49-0.22-0.76
					c0.15-0.27,0.49-0.37,0.76-0.22C59,94.44,59.1,94.78,58.95,95.05z"/>
				<circle class="st69" cx="24.03" cy="27.88" r="0.28"/>
				<path class="st69" d="M17.67,1.5c-0.11,0.19-0.35,0.26-0.55,0.16c-0.19-0.11-0.26-0.35-0.16-0.55c0.11-0.19,0.35-0.26,0.55-0.16
					C17.71,1.06,17.78,1.3,17.67,1.5z"/>
				<path class="st69" d="M70.93,31.17c-0.05,0.1-0.18,0.13-0.27,0.08c-0.1-0.05-0.13-0.18-0.08-0.27c0.05-0.1,0.18-0.13,0.27-0.08
					C70.95,30.95,70.98,31.07,70.93,31.17z"/>
				<path class="st69" d="M88.93,39.38c-0.06,0.1-0.19,0.14-0.29,0.08s-0.14-0.19-0.08-0.29c0.06-0.1,0.19-0.14,0.29-0.08
					S88.99,39.27,88.93,39.38z"/>
				<path class="st69" d="M67.35,44.6c-0.06,0.1-0.19,0.14-0.29,0.08s-0.14-0.19-0.08-0.29c0.06-0.1,0.19-0.14,0.29-0.08
					S67.4,44.5,67.35,44.6z"/>
				<circle class="st69" cx="67.22" cy="48.38" r="0.32"/>
			</g>
			<path class="st69" d="M91.75,50.78c-0.05,0.09-0.16,0.12-0.24,0.07c-0.09-0.05-0.12-0.16-0.07-0.24s0.16-0.12,0.24-0.07
				C91.77,50.59,91.8,50.7,91.75,50.78z"/>
		</g>
	</g>
	<linearGradient id="SVGID_10_" gradientUnits="userSpaceOnUse" x1="92.8924" y1="53.0893" x2="23.6242" y2="53.0893">
		<stop  offset="0" style="stop-color:#1F2756"/>
		<stop  offset="0.1243" style="stop-color:#202E5C"/>
		<stop  offset="0.3056" style="stop-color:#21426D"/>
		<stop  offset="0.5218" style="stop-color:#246188"/>
		<stop  offset="0.7628" style="stop-color:#278EAE"/>
		<stop  offset="1" style="stop-color:#2BC0DA"/>
	</linearGradient>
	<path class="st65" d="M23.62,56.54c0,0,0.39,6.5,5.49,5.45s8.02-3.81,9.97-4.19s6.38,2.82,9.45,1.64c3.08-1.19,3.08-5.16,7.35-5.16
		s9.68,4.5,17.03,2.25c7.35-2.25,14.48-7.05,17.03-7.05c2.55,0,2.96,0.98,2.96,0.98v-6.37L23.62,56.54z"/>
	<g>
		<linearGradient id="SVGID_11_" gradientUnits="userSpaceOnUse" x1="3.1508" y1="107.9736" x2="92.8924" y2="107.9736">
			<stop  offset="0" style="stop-color:#1F2756"/>
			<stop  offset="0.2335" style="stop-color:#214671"/>
			<stop  offset="0.7415" style="stop-color:#2895B5"/>
			<stop  offset="1" style="stop-color:#2BC0DA"/>
		</linearGradient>
		<polygon class="st67" points="92.89,111.03 92.89,90.06 10.28,104.92 10.28,125.89 		"/>
		<linearGradient id="SVGID_12_" gradientUnits="userSpaceOnUse" x1="3.1508" y1="80.0121" x2="92.8924" y2="80.0121">
			<stop  offset="0" style="stop-color:#1F2756"/>
			<stop  offset="0.2335" style="stop-color:#214671"/>
			<stop  offset="0.7415" style="stop-color:#2895B5"/>
			<stop  offset="1" style="stop-color:#2BC0DA"/>
		</linearGradient>
		<polygon class="st71" points="92.89,83.07 92.89,62.1 10.28,76.96 10.28,97.92 		"/>
		<linearGradient id="SVGID_13_" gradientUnits="userSpaceOnUse" x1="3.1508" y1="126.5276" x2="10.2807" y2="126.5276">
			<stop  offset="0" style="stop-color:#1F2756"/>
			<stop  offset="0.2335" style="stop-color:#214671"/>
			<stop  offset="0.7415" style="stop-color:#2895B5"/>
			<stop  offset="1" style="stop-color:#2BC0DA"/>
		</linearGradient>
		<polygon class="st72" points="10.28,125.91 10.28,125.89 3.15,127.17 		"/>
	</g>
</g>
</svg>
