<?xml version="1.0" encoding="utf-8"?>
<!-- Generator: Adobe Illustrator 23.0.1, SVG Export Plug-In . SVG Version: 6.00 Build 0)  -->
<svg version="1.1" id="Layer_1" xmlns="http://www.w3.org/2000/svg" xmlns:xlink="http://www.w3.org/1999/xlink" x="0px" y="0px"
	 viewBox="0 0 89.73 149.26" style="enable-background:new 0 0 89.73 149.26;" xml:space="preserve">
<style type="text/css">
	.st0{fill:#EBB6D3;}
	.st1{fill:#B6B9AA;}
	.st2{fill:#F0F3F9;}
	.st3{fill:#DEE6F4;}
	.st4{fill:#FAA919;}
	.st5{fill:#F28195;}
	.st6{fill:#EF4F70;}
	.st7{fill:#EAC0D3;}
	.st8{fill:#CDA6C0;}
	.st9{fill:#FBF7C3;}
	.st10{fill:#EBF1C3;}
	.st11{fill:#ACA3CF;}
	.st12{fill:#EBE60E;}
	.st13{fill:#36C5F3;}
	.st14{fill:#90CEA6;}
	.st15{fill:#8E4C26;}
	.st16{fill:#DC3D3E;}
	.st17{fill:#E3D2A6;}
	.st18{clip-path:url(#SVGID_2_);}
	.st19{fill:#FFFFFF;}
	.st20{opacity:0.3;}
	.st21{fill:#C0272D;}
	.st22{fill:#C7892B;}
	.st23{fill:#F0B12F;}
	.st24{fill:#B47B2C;}
	.st25{fill:#DB9F32;}
	.st26{opacity:0.56;fill:#7F5522;}
	.st27{fill:none;}
	.st28{fill:#F5BB53;}
	.st29{fill:#8C5D25;}
	.st30{fill:#A2712A;}
	.st31{fill:none;stroke:#A2712A;stroke-width:0.5;stroke-linejoin:round;stroke-miterlimit:10;}
	.st32{fill:#81A781;}
	.st33{fill:#F8F2E9;}
	.st34{clip-path:url(#SVGID_4_);}
	.st35{fill:#8ED5E9;}
	.st36{fill:#24A9E1;}
	.st37{fill:#3388C8;}
	.st38{fill-rule:evenodd;clip-rule:evenodd;fill:#E594BF;}
	.st39{fill-rule:evenodd;clip-rule:evenodd;fill:#F1D0E3;}
	.st40{fill-rule:evenodd;clip-rule:evenodd;fill:#EEDFED;}
	.st41{fill-rule:evenodd;clip-rule:evenodd;fill:#FFF584;}
	.st42{fill-rule:evenodd;clip-rule:evenodd;fill:#FFFFFF;}
	.st43{fill:#85CCC8;}
	.st44{fill:#BDE3DF;}
	.st45{fill-rule:evenodd;clip-rule:evenodd;fill:#99A96C;}
	.st46{opacity:0.28;fill-rule:evenodd;clip-rule:evenodd;fill:#727964;}
	.st47{fill-rule:evenodd;clip-rule:evenodd;fill:#E5E1DC;}
	.st48{fill-rule:evenodd;clip-rule:evenodd;fill:#F2F0ED;}
	.st49{fill-rule:evenodd;clip-rule:evenodd;fill:#F9F8D3;}
	.st50{fill-rule:evenodd;clip-rule:evenodd;fill:#F6F5F3;}
	.st51{fill-rule:evenodd;clip-rule:evenodd;fill:#74AA6D;}
	.st52{fill:#FFF2D3;}
	.st53{fill:#EEE2C9;}
	.st54{fill:#F5E5C5;}
	.st55{fill:#B76E29;}
	.st56{fill:#FBB458;}
	.st57{fill:#4CB75A;}
	.st58{fill:#F79A2F;}
	.st59{fill:#F89A2F;}
	.st60{fill:#F89B2F;}
	.st61{fill:url(#SVGID_5_);}
	.st62{fill:url(#SVGID_6_);}
	.st63{clip-path:url(#SVGID_8_);fill:url(#SVGID_9_);}
	.st64{clip-path:url(#SVGID_8_);}
	.st65{fill:url(#SVGID_10_);}
	.st66{opacity:0.14;fill:#FFFFFF;}
	.st67{fill:url(#SVGID_11_);}
	.st68{opacity:0.14;clip-path:url(#SVGID_8_);fill:#FFFFFF;}
	.st69{fill:#F1F1F1;}
	.st70{opacity:0.4;}
	.st71{fill:url(#SVGID_12_);}
	.st72{fill:url(#SVGID_13_);}
	.st73{fill:url(#SVGID_14_);}
	.st74{fill:url(#SVGID_15_);}
</style>
<g>
	<path class="st0" d="M89.73,21.4C58.74,15.85,24.31,21.21,0,37.53l65.69,44.08L89.73,21.4z"/>
	<g>
		<ellipse class="st1" cx="50.18" cy="43.03" rx="15.53" ry="4.76"/>
		<g>
			<path class="st2" d="M51.44,42.11c-0.78-0.24-1.6-0.43-2.29-0.87c-0.94-0.6-1.56-1.61-1.88-2.68c-0.32-1.07-0.36-2.2-0.36-3.32
				c0.01-1.54,0.11-3.08,0.3-4.6c-2.6,1.12-5.16,2.48-7.13,4.51c-1.19,1.22-2.14,2.71-2.67,4.33c-0.89-1.7-1.06-3.94,0.11-6.86
				c3.84-9.6,10.21-13,10.21-13c1.13,4.97,8.29,5.85,13.43,11.25c5.15,5.41-1.66,12.56-1.66,12.56s-2.58,0.48-5.45,0.86
				c-0.07-0.37-0.24-0.73-0.49-1.01C53.02,42.67,52.22,42.35,51.44,42.11z"/>
			<path class="st3" d="M47.39,44.74c-2.18-0.24-7.95-1.37-9.97-5.27c0.52-1.61,1.48-3.11,2.67-4.33c1.98-2.03,4.53-3.39,7.13-4.51
				c-0.19,1.53-0.29,3.06-0.3,4.6c-0.01,1.12,0.04,2.25,0.36,3.32c0.32,1.07,0.94,2.08,1.88,2.68c0.69,0.44,1.51,0.63,2.29,0.87
				c0.78,0.24,1.58,0.56,2.13,1.17c0.25,0.28,0.42,0.64,0.49,1.01C51.56,44.63,48.84,44.9,47.39,44.74z"/>
		</g>
	</g>
	<g>
		<path class="st4" d="M50.36,5.97c0.91,0,1.65-0.43,1.65-1.59c0-1.16-0.74-4.38-1.65-4.38c-0.91,0-1.65,3.22-1.65,4.38
			C48.71,5.54,49.45,5.97,50.36,5.97z"/>
		<polygon class="st5" points="53.08,23.52 47.66,25.72 47.66,30.33 53.08,28.13 		"/>
		<path class="st6" d="M53.08,32.74v-4.61l-5.42,2.2v3.23c0.73,0.08,1.91,0.18,2.94,0.18L53.08,32.74z"/>
		<polygon class="st6" points="53.08,18.92 47.66,21.12 47.66,25.72 53.08,23.52 		"/>
		<path class="st5" d="M50.98,33.74c0.73-0.02,1.49-0.13,2.11-0.24v-0.76l-2.48,1C50.73,33.74,50.86,33.74,50.98,33.74z"/>
		<path class="st5" d="M53.08,9.11V8.69c0,0-0.51-0.84-2.61-0.84c-2.27,0-2.81,0.84-2.81,0.84v0.42v2.79l5.42-2.2V9.11z"/>
		<polygon class="st5" points="53.08,14.31 47.66,16.51 47.66,21.12 53.08,18.92 		"/>
		<polygon class="st6" points="53.08,9.7 47.66,11.9 47.66,16.51 53.08,14.31 		"/>
	</g>
	<polygon class="st7" points="0.28,37.53 65.69,81.61 65.69,149.26 0.28,105.18 	"/>
	<polygon class="st8" points="89.73,21.4 65.69,81.61 65.69,149.26 89.73,89.05 	"/>
	<g>
		<polygon class="st9" points="9.94,56.61 9.94,80.97 65.69,118.38 65.69,94.02 		"/>
	</g>
	<g>
		<polygon class="st9" points="9.94,87.5 9.94,111.85 65.69,149.26 65.69,124.91 		"/>
	</g>
	<g>
		<polygon class="st10" points="65.69,94.02 65.69,118.38 85.31,69.23 85.31,44.88 		"/>
	</g>
	<g>
		<polygon class="st10" points="65.69,124.73 65.69,149.09 85.31,99.94 85.31,75.59 		"/>
	</g>
	<path class="st11" d="M71.66,52.38L71.66,52.38c-0.31,0.36-0.85,0.41-1.21,0.1l-3.25-2.75c-0.36-0.31-0.41-0.85-0.1-1.21l0,0
		c0.31-0.36,0.85-0.41,1.21-0.1l3.25,2.75C71.92,51.47,71.96,52.01,71.66,52.38z"/>
	<path class="st12" d="M65.16,55.91L65.16,55.91c0.47-0.08,0.91,0.23,1,0.69l0.75,4.19c0.08,0.47-0.23,0.91-0.69,1l0,0
		c-0.47,0.08-0.91-0.23-1-0.69l-0.75-4.19C64.38,56.44,64.69,55.99,65.16,55.91z"/>
	<path class="st13" d="M29.53,34.7L29.53,34.7c-0.44-0.19-0.64-0.69-0.45-1.13l1.68-3.91c0.19-0.44,0.69-0.64,1.13-0.45l0,0
		c0.44,0.19,0.64,0.69,0.45,1.13l-1.68,3.91C30.47,34.68,29.96,34.89,29.53,34.7z"/>
	<path class="st11" d="M69.9,40.46L69.9,40.46c-0.44-0.19-0.64-0.69-0.45-1.13l1.68-3.91c0.19-0.44,0.69-0.64,1.13-0.45h0
		c0.44,0.19,0.64,0.69,0.45,1.13l-1.68,3.91C70.84,40.44,70.33,40.65,69.9,40.46z"/>
	<path class="st11" d="M18.68,43.25L18.68,43.25c-0.41-0.24-0.55-0.76-0.31-1.17l2.13-3.68c0.24-0.41,0.76-0.55,1.17-0.31l0,0
		c0.41,0.24,0.55,0.76,0.31,1.17l-2.13,3.68C19.62,43.34,19.09,43.48,18.68,43.25z"/>
	<path class="st12" d="M33.2,39.03L33.2,39.03c0.26,0.4,0.15,0.93-0.25,1.19l-3.56,2.32c-0.4,0.26-0.93,0.15-1.19-0.25v0
		c-0.26-0.4-0.15-0.93,0.25-1.19l3.56-2.32C32.41,38.52,32.95,38.63,33.2,39.03z"/>
	<path class="st13" d="M49.18,54.88L49.18,54.88c-0.05,0.47-0.47,0.82-0.94,0.77l-4.24-0.41c-0.47-0.05-0.82-0.47-0.77-0.94l0,0
		c0.05-0.47,0.47-0.82,0.94-0.77l4.24,0.41C48.88,53.99,49.23,54.41,49.18,54.88z"/>
	<path class="st13" d="M71.07,29.86L71.07,29.86c-0.05,0.47-0.47,0.82-0.94,0.77l-4.24-0.41c-0.47-0.05-0.82-0.47-0.77-0.94v0
		c0.05-0.47,0.47-0.82,0.94-0.77l4.24,0.41C70.77,28.97,71.12,29.39,71.07,29.86z"/>
	<path class="st11" d="M64.56,69.52L64.56,69.52c-0.05,0.47-0.47,0.82-0.94,0.77l-4.24-0.41c-0.47-0.05-0.82-0.47-0.77-0.94l0,0
		c0.05-0.47,0.47-0.82,0.94-0.77l4.24,0.41C64.26,68.63,64.6,69.05,64.56,69.52z"/>
	<path class="st6" d="M57.3,63.2L57.3,63.2c0.24,0.41,0.1,0.94-0.31,1.17L53.3,66.5c-0.41,0.24-0.94,0.1-1.17-0.31v0
		c-0.24-0.41-0.1-0.94,0.31-1.17l3.68-2.13C56.54,62.65,57.06,62.79,57.3,63.2z"/>
	<path class="st6" d="M14.77,36.64L14.77,36.64c0.14,0.45-0.11,0.94-0.56,1.08l-4.06,1.27c-0.45,0.14-0.94-0.11-1.08-0.56l0,0
		c-0.14-0.45,0.11-0.94,0.56-1.08l4.06-1.27C14.15,35.93,14.63,36.19,14.77,36.64z"/>
	<path class="st12" d="M80.11,36.64L80.11,36.64c0.14,0.45-0.11,0.94-0.56,1.08l-4.06,1.27c-0.45,0.14-0.94-0.11-1.08-0.56v0
		c-0.14-0.45,0.11-0.94,0.56-1.08l4.06-1.27C79.49,35.93,79.97,36.19,80.11,36.64z"/>
	<path class="st6" d="M63.69,51.31L63.69,51.31c0.14,0.45-0.11,0.94-0.56,1.08l-4.06,1.27c-0.45,0.14-0.94-0.11-1.08-0.56l0,0
		c-0.14-0.45,0.11-0.94,0.56-1.08l4.06-1.27C63.06,50.61,63.54,50.86,63.69,51.31z"/>
	<path class="st12" d="M26.18,34.54L26.18,34.54c-0.41,0.24-0.94,0.1-1.17-0.31l-2.13-3.68c-0.24-0.41-0.1-0.94,0.31-1.17h0
		c0.41-0.24,0.94-0.1,1.17,0.31l2.13,3.68C26.73,33.78,26.59,34.3,26.18,34.54z"/>
	<path class="st11" d="M55.55,57.18L55.55,57.18c-0.41,0.24-0.94,0.1-1.17-0.31l-2.13-3.68c-0.24-0.41-0.1-0.94,0.31-1.17l0,0
		c0.41-0.24,0.94-0.1,1.17,0.31l2.13,3.68C56.1,56.42,55.96,56.95,55.55,57.18z"/>
	<path class="st6" d="M76.99,31.01L76.99,31.01c-0.41,0.24-0.94,0.1-1.17-0.31l-2.13-3.68c-0.24-0.41-0.1-0.94,0.31-1.17l0,0
		c0.41-0.24,0.94-0.1,1.17,0.31l2.13,3.68C77.54,30.25,77.4,30.77,76.99,31.01z"/>
	<path class="st6" d="M28.1,50.38L28.1,50.38c-0.41,0.24-0.94,0.1-1.17-0.31l-2.13-3.68c-0.24-0.41-0.1-0.94,0.31-1.17h0
		c0.41-0.24,0.94-0.1,1.17,0.31l2.13,3.68C28.66,49.62,28.51,50.14,28.1,50.38z"/>
</g>
</svg>
