<?xml version="1.0" encoding="utf-8"?>
<!-- Generator: Adobe Illustrator 23.0.1, SVG Export Plug-In . SVG Version: 6.00 Build 0)  -->
<svg version="1.1" id="Layer_1" xmlns="http://www.w3.org/2000/svg" xmlns:xlink="http://www.w3.org/1999/xlink" x="0px" y="0px"
	 viewBox="0 0 1144.3 338.4" style="enable-background:new 0 0 1144.3 338.4;" xml:space="preserve">
<style type="text/css">
	.st0{fill-rule:evenodd;clip-rule:evenodd;fill:#7C8A54;}
	.st1{fill-rule:evenodd;clip-rule:evenodd;fill:#9AAB6D;}
	.st2{fill-rule:evenodd;clip-rule:evenodd;fill:#4D5242;}
	.st3{fill-rule:evenodd;clip-rule:evenodd;fill:#E6E2DD;}
	.st4{fill-rule:evenodd;clip-rule:evenodd;fill:#F2F0ED;}
	.st5{fill-rule:evenodd;clip-rule:evenodd;fill:#FAF8D3;}
	.st6{fill-rule:evenodd;clip-rule:evenodd;fill:#F7F6F4;}
	.st7{fill-rule:evenodd;clip-rule:evenodd;fill:#FFFFFF;}
</style>
<g>
	<g>
		<path class="st0" d="M250.3,82.4c1.6-6.9,3.7-13.6,6-20.1c-2.5,5.7-4.8,11.4-6.8,17.5c-0.3-0.8-0.6-1.6-1-2.4
			c0-5.9,1.2-11.6,2.2-17.4c-1.4,4.5-2.8,8.9-4,13.8c-0.5-0.9-1.1-1.8-1.7-2.6c0.5,1.3,1,2.6,1.3,3.9c-0.7,2.9-1.3,6-1.8,9.3
			c-0.1-0.2-0.2-0.3-0.3-0.5c0.3-3.8,0.7-7.5,1.3-11.3c-0.4,1.5-1.1,4.5-1.1,4.5c-0.2-5.2-1.5-10.1-3-14.9c0.8,5.3,1.4,10.7,0.4,16
			c-0.3,0.3-0.6,0.6-0.9,0.9c-1.1-1.3-2.3-2.5-3.5-3.7c0.5-1.3,1.1-2.7,1.8-4c-1,1.1-1.8,2.2-2.5,3.4c-1.4-1.2-3-2.3-4.7-3.4
			c1.5,1.3,3,2.6,4.3,4c-0.3,0.6-0.7,1.3-1,2c-0.2-0.5-0.4-1-0.6-1.5c0.2,0.6,0.3,1.2,0.5,1.8c-0.2,0.5-0.4,1-0.6,1.5
			c-0.8-0.5-1.7-1-2.5-1.5c0.1,1.5,0,2.9-0.3,4.3c-0.3-1-0.6-2.1-1-3.1c-0.2-6.5,1-12.8,2.2-19.1c-0.7,2.2-1.3,4.3-2,6.5l0.1-0.6
			c-1.1,2.7-2,5.4-2.6,8.1c-0.6-1-1.2-2-1.8-2.9c0.6,1.5,1.1,3,1.5,4.5c-0.3,1.6-0.5,3.3-0.7,4.9c-0.2,0.9-0.3,1.8-0.5,2.8
			c-0.2-1.4-0.4-2.9-0.6-4.3c0.1-0.6,0.1-1.3,0.3-1.9c-0.2-5.2-1.5-10.1-3-14.9c0.3,2.2,0.6,4.5,0.8,6.8l-0.1-0.4
			c-1.8,2.7-3.1,5.4-4,8.3c-0.3-0.3-0.6-0.6-0.9-0.8c0.5-1.5,1.2-3,2-4.4c-1.1,1.2-2,2.5-2.7,3.8c-0.1-0.1-0.3-0.2-0.4-0.3
			c0.2-4.3,1.2-8.2,2.3-12c-1.9,3-3.6,6.3-4.8,10c-0.7-0.5-1.4-1-2.2-1.4c0.7,0.6,1.4,1.2,2.1,1.8c-0.5,1.6-1.4,4.9-2.1,7.4
			c-0.2-0.5-0.4-1.1-0.6-1.6c0.1-1.8,0.5-3.8,1-5.7c-0.6,1.1-1.2,2.4-1.7,3.9c-0.1-0.3-0.3-0.6-0.4-0.9c0-3.5,0.3-7,0.7-10.5
			c-1,2.4-1.8,4.8-2.4,7.3c-0.4-0.7-0.9-1.4-1.4-2.1c0.4,1,0.8,2.1,1.1,3.1c-0.3,1.5-0.6,3-0.8,4.5c-0.7-2.5-1.6-4.9-2.6-7.3
			c-0.2-1-0.5-2-0.7-3c-1.6,2.5-2.9,5.1-3.9,7.7c-0.7-0.7-1.4-1.3-2.1-1.9c0.3-4.1,1.2-7.8,2.3-11.4c-1.9,2.9-3.5,6.1-4.7,9.6
			c-0.5-0.4-1.1-0.7-1.6-1c0.5,0.4,1,0.9,1.5,1.3c-1.5,4.3-2.1,8.5-2.5,11.8c-0.7-3.5-0.4-7.3,0.6-11.2c-0.5,0.9-1,1.9-1.4,3
			c0-3.5,0.3-7,0.7-10.5c-2,4.8-3.2,9.8-3.6,15c-0.4-2-1-4-1.7-5.9c-0.4-2.1-0.8-4.3-1.4-6.4c-2.9,4.5-4.7,9.2-5.6,14.1
			c-1.2-7.8,0.1-13.9,1.9-19.8c-3.9,6.1-6.7,13.2-7.1,22.8c-1-3.8-0.8-8,0.4-12.3c-1.8,3-3,7.5-3.6,13.6c0-1-0.1-1.9-0.2-2.8
			c1.7-7.6,3.9-14.9,6.4-22c-2.5,5.9-5,11.8-7.1,18.2c-0.7-3-1.7-6-3-8.8c1.8,11.1-0.6,20-1.9,30.6c-0.8-9.9-0.4-19.7,1.1-29.5
			c-2.1,7.9-3.8,16-4.1,24.6c-1.4-7.1-3.7-14.2-6.7-21.3c1.5,5.5,2.1,11,1.5,16.4c-1-3-2.8-6.3-5.2-9.8c-1-7.8,0.5-15.2,1.9-22.7
			c-2.6,8.5-5.3,16.9-6.7,28.4c-0.3-2.7-0.4-6,0.4-11.2c-0.2-5.2-1.5-10.1-3-14.9c0.8,5.3,1.4,10.7,0.4,16c-2.9,2.9-4.8,6.3-6.3,9.7
			c0-5.8,0.9-11.4,3.7-16.4c-4.1,4.6-5.7,10.1-6.3,16.1c-0.9-6.5-3.2-11.9-6.3-16.4c2.2,5.6,3.3,11.4,1.9,17.5
			c-3.4-6.8-7.8-12.9-14.9-17.2c4.7,3.8,8.5,8.2,9.7,14.6c-2.6-3.3-5.7-6.2-9.7-8.2c0.3,2.5-0.4,4.8-1.1,7.1c-1-6.4-0.8-12.7,0-19
			c-2.7,6.6-4,13.4-3.8,20.5c-0.6-6-1.5-11.9-3-17.9c-2.9,4.5-4.7,9.2-5.6,14.1c-0.4-2.7-0.5-5.1-0.4-7.5c1.2-4.4,2.6-8.8,4.2-13
			c-1.3,3-2.6,6.1-3.8,9.2c0.4-3,1.2-5.7,2-8.5c-3.9,6.1-6.7,13.2-7.1,22.8c-1-3.8-0.8-8,0.4-12.3c-1.8,3-3,7.5-3.6,13.6
			c-0.1-4.3,0.7-10,1.3-14.3c-0.8,2.8-1.4,5.6-2,8.5c-0.7-3.3-1.8-6.5-3.2-9.7c1.2,7.2,0,13.7,0,20.9C91.7,87,89.8,81.5,87.5,76
			c1.3,5,2,10,1.6,14.9c-0.2,0.2-0.3,0.3-0.5,0.5c-1-2.5-2.4-5.2-4.3-7.9c1.6-7.3,3.8-14.4,6.3-21.3c-2.5,5.8-5,11.8-7,18
			c-0.4-6.9,0.9-13.5,2.1-20.3c-2.6,8.5-5.3,16.9-6.7,28.4c-0.5-4.5,0-10.9,0.8-15.7c-0.2,0.8-0.4,1.5-0.6,2.3
			c-0.4-4.4-1.6-8.5-2.8-12.7c0.8,5.3,1.4,10.7,0.4,16c-1.9,1.9-3.4,4-4.6,6.1c-0.4-1.2-0.8-2.3-1.3-3.5c0.5-3.3,1.5-6.4,3.2-9.4
			c-1.9,2.1-3.2,4.4-4.2,6.8c-0.3-0.8-0.6-1.5-1-2.3c0.3,1,0.5,2,0.7,3c-0.9,2.5-1.5,5.1-1.8,7.8c-0.1-0.2-0.2-0.3-0.3-0.5
			c-0.5-3.3-1.5-6.3-2.7-9c0-5.9,1.2-11.6,2.2-17.4c-1.4,4.5-2.8,8.9-4,13.8c-0.5-0.9-1.1-1.8-1.7-2.6c0.5,1.3,1,2.6,1.3,3.9
			c-0.7,2.9-1.3,6-1.9,9.3c-0.2-0.4-0.5-0.8-0.7-1.2c0-1.7,0.2-3.7,0.6-6.1c-0.2-5.2-1.5-10.1-3-14.9c0.8,5.3,1.3,10.7,0.4,16
			c-0.3,0.3-0.6,0.6-0.9,0.9c-1.1-1.3-2.3-2.5-3.5-3.7c0.5-1.3,1.1-2.7,1.8-4c-1,1.1-1.8,2.2-2.5,3.4c-1.4-1.2-3-2.3-4.7-3.4
			c1.5,1.3,3,2.6,4.3,4c-0.7,1.2-1.3,2.5-1.7,3.8c-0.8-0.5-1.7-1-2.6-1.5c0.2,1.5,0,2.9-0.3,4.3c-0.4-1.4-0.9-2.8-1.4-4.1
			c-0.1-4,0.2-8.1,0.6-12.1c-1.1,2.7-2,5.4-2.6,8.1c-0.6-1-1.2-2-1.9-2.9c0.6,1.5,1.1,3,1.5,4.5c-0.7,3.5-1,7.1-0.8,10.8
			c-0.6-6-1.5-11.9-3-17.9c-1.7,2.7-3.1,5.4-4,8.3c-0.6-0.6-1.3-1.3-2-1.9c0.2-4.3,1.2-8.2,2.3-12c-1.9,3-3.6,6.3-4.8,10
			c-0.7-0.5-1.4-1-2.2-1.4c0.7,0.6,1.4,1.2,2.1,1.8c-0.5,1.6-0.9,3.2-1.3,5c-0.3-0.1-0.5-0.3-0.8-0.4c0.2,1.8-0.1,3.5-0.6,5.2
			c-0.3-3.1,0-6.3,0.9-9.7c-0.8,1.4-1.5,3-2,5c-0.1-4.2,0.1-8.3,0.6-12.5c-1.7,4.2-2.8,8.5-3.4,12.9c-0.7-2.5-1.6-4.9-2.6-7.3
			c-0.2-1-0.4-2-0.7-3c-2.9,4.5-4.7,9.2-5.6,14.1C15,75,16.4,68.9,18.1,63C14.2,69,11.4,76.2,11,85.8c-1-3.8-0.8-8,0.4-12.3
			c-1.8,3-3,7.5-3.6,13.6c-0.2-5.5-1.7-10.6-3.9-15.5c0.8,5.1,0.9,10.2,0,15.3L4,110.4c142.3,0,284.6,0,426.9,0
			c2.8-12.1,6-17.4,9.3-20.9c-4.9,3.7-8.3,8.8-9.7,16c0.9-15.6,4.5-29.8,9.3-43.3c-5.3,12.2-10.1,24.8-11.9,39.9
			c-0.8-9.9-0.4-19.7,1.1-29.5c-2.1,7.9-3.8,16-4.1,24.6c-1.3-7.1-3.7-14.2-6.7-21.3c1.5,5.5,2.1,11,1.5,16.4c-1-3-2.8-6.3-5.2-9.8
			c-1-7.8,0.5-15.2,1.9-22.7c-2.7,8.5-5.4,16.9-6.7,28.4c-0.3-2.7-0.4-6,0.4-11.2c-0.2-5.2-1.5-10.1-3-14.9c0.8,5.3,1.4,10.7,0.4,16
			c-2.9,2.9-4.8,6.3-6.3,9.7c0-5.8,0.9-11.4,3.7-16.4c-4.1,4.6-5.7,10.1-6.3,16.1c-0.9-6.5-3.2-11.9-6.3-16.4
			c2.2,5.6,3.3,11.4,1.9,17.5c-3.4-6.8-7.8-12.9-14.9-17.2c4.7,3.8,8.5,8.2,9.7,14.6c-2.6-3.3-5.7-6.2-9.7-8.2
			c0.3,2.5-0.4,4.8-1.1,7.1c-1-6.4-0.8-12.7,0-19c-2.7,6.6-4,13.4-3.8,20.5c-0.6-6-1.5-11.9-3-17.9c-2.9,4.5-4.7,9.2-5.6,14.1
			c-1.3-7.8,0.1-13.9,1.9-19.8c-3.9,6.1-6.7,13.2-7.1,22.8c-1-3.8-0.8-8,0.4-12.3c-1.8,3-3,7.5-3.6,13.6c0-1-0.1-1.9-0.2-2.8
			c1.6-7.6,3.9-14.9,6.4-22c-2.6,5.9-5,11.8-7.1,18.2c-0.7-3-1.8-6-3-8.8c1.8,11.1-0.6,20-1.9,30.6c-0.8-9.9-0.4-19.7,1.1-29.5
			c-2.1,7.9-3.8,16-4.1,24.6c-1.4-7.1-3.8-14.2-6.7-21.3c1.5,5.5,2.2,11,1.5,16.4c-1-3-2.8-6.3-5.2-9.8c-1-7.8,0.5-15.2,1.9-22.7
			c-2.6,8.5-5.3,16.9-6.7,28.4c-0.3-2.7-0.4-6,0.4-11.2c-0.2-5.2-1.5-10.1-3-14.9c0.8,5.3,1.4,10.7,0.4,16c-2.9,2.9-4.8,6.3-6.3,9.7
			c0-5.8,0.9-11.4,3.7-16.4c-4.1,4.6-5.7,10.1-6.3,16.1c-0.9-6.5-3.2-11.9-6.4-16.4c2.2,5.6,3.4,11.4,1.9,17.5
			c-3.5-6.8-7.8-12.9-15-17.2c4.7,3.8,8.5,8.2,9.7,14.6c-2.7-3.3-5.7-6.2-9.7-8.2c0.3,2.5-0.4,4.8-1.1,7.1c-1-6.4-0.8-12.7,0-19
			c-2.7,6.6-4,13.4-3.7,20.5c-0.6-6-1.5-11.9-3-17.9c-2.9,4.5-4.7,9.2-5.6,14.1c-0.4-2.7-0.5-5.1-0.5-7.5c1.3-4.4,2.7-8.8,4.2-13
			c-1.3,3-2.6,6.1-3.8,9.2c0.4-3,1.1-5.7,2-8.5c-3.9,6.1-6.7,13.2-7.1,22.8c-1-3.8-0.8-8,0.4-12.3c-1.8,3-3,7.5-3.6,13.6
			c-0.1-4.3,0.7-10,1.4-14.3c-0.8,2.8-1.4,5.6-2,8.5c-0.7-3.3-1.8-6.5-3.2-9.7c1.2,7.2,0,13.7,0,20.9c-1.4-5.5-3.3-10.9-5.6-16.4
			c1.3,5,2,10,1.6,14.9c-0.2,0.2-0.4,0.3-0.5,0.5c-1-2.5-2.5-5.2-4.3-7.9c1.6-7.3,3.8-14.4,6.3-21.3c-2.5,5.8-5,11.8-7,18
			c-0.4-6.9,0.9-13.5,2.1-20.3c-2.6,8.5-5.3,16.9-6.7,28.4c-0.5-4.5,0-10.9,0.8-15.7c-0.2,0.8-0.4,1.5-0.6,2.3
			c-0.4-4.4-1.6-8.5-2.8-12.7c0.8,5.3,1.4,10.7,0.4,16c-1.9,1.9-3.3,4-4.6,6.1c-0.4-1.2-0.8-2.3-1.3-3.5c0.5-3.3,1.5-6.4,3.2-9.4
			c-1.9,2.1-3.2,4.4-4.2,6.8c-0.3-0.8-0.6-1.5-1-2.3c0.3,1,0.5,2,0.7,3c-0.9,2.5-1.5,5.1-1.8,7.8c-0.1-0.2-0.2-0.3-0.3-0.5
			C250.9,85,250.7,83.7,250.3,82.4L250.3,82.4z M236.6,81c-0.2-0.4-0.3-0.8-0.5-1.3c0.2-1.1,0.5-2.2,0.9-3.3c1,1.3,2,2.7,2.7,4.1
			c-0.5,0.6-0.9,1.3-1.4,1.9C237.8,82,237.2,81.4,236.6,81L236.6,81z M199.4,75.3c0.6,0.7,1.2,1.4,1.8,2.2c-0.4,1.2-0.7,2.4-1,3.6
			c-0.2-0.2-0.4-0.3-0.6-0.5C199.4,78.7,199.4,77,199.4,75.3L199.4,75.3z M70.6,87.3c-0.1,0.2-0.2,0.4-0.3,0.7c0-1.2,0-2.4,0.1-3.6
			C70.6,85.4,70.6,86.4,70.6,87.3L70.6,87.3z M53.3,76.4c1,1.3,2,2.7,2.8,4.1c-0.5,0.6-1,1.3-1.4,1.9c-0.8-0.7-1.5-1.4-2.4-2
			C52.6,79.1,52.9,77.8,53.3,76.4L53.3,76.4z M36,78.1c-0.4,1.2-0.7,2.3-0.9,3.5c-0.1-0.1-0.3-0.3-0.4-0.4c-0.2-1.8-0.3-3.5-0.3-5.2
			C35,76.7,35.5,77.4,36,78.1L36,78.1z"/>
		<path class="st0" d="M915.4,103.9c1.5-6.5,3.2-9.3,5-11.2c-2.6,2-4.5,4.7-5.2,8.6c0.5-8.4,2.4-16,5-23.3
			c-2.8,6.5-5.4,13.3-6.4,21.5c-0.4-5.3-0.2-10.6,0.6-15.8c-1.1,4.3-2,8.6-2.2,13.2c-0.8-3.8-2-7.6-3.6-11.4c0.8,3,1.1,5.9,0.8,8.8
			c-0.5-1.6-1.5-3.4-2.8-5.2c-0.5-4.2,0.3-8.2,1-12.2c-1.4,4.6-2.9,9.1-3.6,15.2c-0.2-1.5-0.2-3.2,0.2-6c-0.1-2.8-0.8-5.4-1.6-8
			c0.4,2.9,0.7,5.7,0.2,8.6c-1.6,1.6-2.6,3.4-3.4,5.2c0-3.1,0.5-6.1,2-8.8c-2.2,2.5-3.1,5.4-3.4,8.6c-0.5-3.5-1.7-6.4-3.4-8.8
			c1.2,3,1.8,6.1,1,9.4c-1.9-3.6-4.2-6.9-8-9.2c2.5,2,4.5,4.4,5.2,7.8c-1.4-1.8-3-3.3-5.2-4.4c0.1,1.3-0.2,2.6-0.6,3.8
			c-0.5-3.4-0.4-6.8,0-10.2c-1.4,3.5-2.1,7.2-2,11c-0.3-3.2-0.8-6.4-1.6-9.6c-1.6,2.4-2.5,4.9-3,7.6c-0.7-4.2,0.1-7.5,1-10.6
			c-2.1,3.3-3.6,7.1-3.8,12.2c-0.5-2.1-0.4-4.3,0.2-6.6c-1,1.6-1.6,4-1.9,7.3c0-0.5-0.1-1-0.1-1.5c0.9-4.1,2.1-8,3.4-11.8
			c-1.4,3.2-2.7,6.4-3.8,9.8c-0.4-1.6-0.9-3.2-1.6-4.7c1,5.9-0.3,10.7-1,16.4c-0.4-5.3-0.2-10.6,0.6-15.8c-1.1,4.3-2,8.6-2.2,13.2
			c-0.8-3.8-2-7.6-3.6-11.4c0.8,3,1.2,5.9,0.8,8.8c-0.5-1.6-1.5-3.4-2.8-5.2c-0.5-4.2,0.3-8.2,1-12.2c-1.4,4.6-2.9,9.1-3.6,15.2
			c-0.2-1.5-0.2-3.2,0.2-6c-0.1-2.8-0.8-5.4-1.6-8c0.4,2.9,0.7,5.7,0.2,8.6c-1.6,1.6-2.6,3.4-3.4,5.2c0-3.1,0.5-6.1,2-8.8
			c-2.2,2.5-3.1,5.4-3.4,8.6c-0.5-3.5-1.7-6.4-3.4-8.8c1.2,3,1.8,6.1,1,9.4c-1.9-3.6-4.2-6.9-8-9.2c2.5,2,4.5,4.4,5.2,7.8
			c-1.4-1.8-3-3.3-5.2-4.4c0.1,1.3-0.2,2.6-0.6,3.8c-0.5-3.4-0.4-6.8,0-10.2c-1.4,3.5-2.1,7.2-2,11c-0.3-3.2-0.8-6.4-1.6-9.6
			c-1.6,2.4-2.5,4.9-3,7.6c-0.2-1.4-0.3-2.8-0.2-4c0.7-2.4,1.4-4.7,2.2-7c-0.7,1.6-1.4,3.3-2,4.9c0.2-1.6,0.6-3.1,1-4.5
			c-2.1,3.3-3.6,7.1-3.8,12.2c-0.5-2.1-0.4-4.3,0.2-6.6c-1,1.6-1.6,4-1.9,7.3c-0.1-2.3,0.3-5.4,0.7-7.7c-0.4,1.5-0.8,3-1.1,4.6
			c-0.4-1.8-1-3.5-1.7-5.2c0.6,3.9,0,7.4,0,11.2c-0.8-2.9-1.8-5.9-3-8.8c0.8,3,1.2,5.9,0.8,8.8c-0.5-1.6-1.5-3.4-2.8-5.2
			c-0.5-4.2,0.3-8.2,1-12.2c-1.4,4.6-2.9,9.1-3.6,15.2c-0.2-1.5-0.2-3.2,0.2-6c-0.1-2.8-0.8-5.4-1.6-8c0.4,2.9,0.7,5.7,0.2,8.6
			c-0.6,0.6-1,1.2-1.5,1.8c-0.1-1.8,0-3.6,0.3-5.4c-1.2,2.6-2,5.3-2.1,8.3c0-0.3-0.1-0.7-0.1-1c0.1-2.6,0.7-5,2-7.3
			c-1.2,1.3-2,2.8-2.5,4.3c-0.3-1.4-0.8-2.5-1.3-3.3c0.6,2.3,0.7,4.5,0.2,6.6c-1-5.4-0.6-7.2-3.8-12.2c0.5,1.7,0.9,3.4,1.1,5.3
			c-0.2-0.3-0.4-0.6-0.6-0.9c0.2,0.6,0.5,1.3,0.7,1.9c0.1,1.3,0,2.8-0.2,4.3c-0.5-2.7-1.5-5.2-3-7.6c-0.3,1.5-0.7,2.9-0.9,4.4
			c-0.4-0.4-0.8-0.8-1.3-1.2c-0.3-1.6-0.8-3.1-1.4-4.6c0.1,1.3,0.3,2.5,0.3,3.8c-0.3-0.2-0.7-0.5-1-0.7c-0.3,0.2-0.7,0.4-1,0.7
			c0-1.3,0.2-2.5,0.3-3.8c-0.6,1.5-1.1,3-1.4,4.6c-0.4,0.4-0.9,0.8-1.3,1.2c-0.2-1.5-0.5-2.9-0.9-4.4c-1.6,2.4-2.5,4.9-3,7.6
			c-0.2-1.5-0.3-2.9-0.2-4.3c0.2-0.6,0.4-1.3,0.7-1.9c-0.2,0.3-0.4,0.6-0.6,0.9c0.2-1.9,0.6-3.6,1.1-5.3c-2.1,3.3-3.6,7.1-3.8,12.2
			v0c-0.5-2.1-0.4-4.3,0.2-6.6c-0.5,0.9-0.9,2-1.3,3.3c-0.5-1.6-1.3-3-2.5-4.3c1.3,2.3,1.8,4.7,2,7.3c0,0.3-0.1,0.7-0.1,1
			c-0.1-2.9-0.9-5.7-2.1-8.3c0.3,1.8,0.4,3.6,0.3,5.4c-0.5-0.6-0.9-1.2-1.5-1.8c-0.5-2.9-0.2-5.8,0.2-8.6c-0.8,2.6-1.5,5.3-1.6,8
			c0.4,2.8,0.4,4.5,0.2,6c-0.8-6.1-2.2-10.6-3.6-15.2c0.7,4,1.5,8,1,12.2c-1.3,1.8-2.3,3.6-2.8,5.2c-0.4-2.9,0-5.9,0.8-8.8
			c-1.6,3.8-2.9,7.6-3.6,11.4c-0.2-4.6-1.1-9-2.2-13.2c0.8,5.3,1,10.5,0.6,15.8c-1-8.2-3.6-14.9-6.4-21.5c2.6,7.3,4.5,14.9,5,23.3
			c-0.8-3.9-2.6-6.7-5.2-8.6c1.8,1.9,3.5,4.7,5,11.2C825.8,103.9,870.6,103.9,915.4,103.9L915.4,103.9z M811,85.3
			c0.3,0.4,0.7,0.8,1,1.3c-0.1,0.7-0.2,1.3-0.3,2c-0.1-0.1-0.2-0.2-0.3-0.3C811.3,87.3,811.2,86.3,811,85.3L811,85.3z M806.4,85.3
			c-0.2,1-0.3,2-0.4,3c-0.1,0.1-0.2,0.2-0.3,0.3c-0.1-0.7-0.2-1.3-0.3-2C805.7,86.2,806,85.7,806.4,85.3L806.4,85.3z"/>
		<path class="st0" d="M1140.5,103.9h-41.6c-1.5-6.5-3.2-9.3-5-11.2c2.6,2,4.5,4.7,5.2,8.6c-0.5-8.4-2.4-16-5-23.3
			c2.8,6.5,5.5,13.3,6.4,21.5c0.4-5.3,0.2-10.6-0.6-15.8c1.1,4.3,2,8.6,2.2,13.2c0.7-3.8,2-7.6,3.6-11.4c-0.8,3-1.1,5.9-0.8,8.8
			c0.6-1.6,1.5-3.4,2.8-5.2c0.5-4.2-0.3-8.2-1-12.2c1.4,4.6,2.9,9.1,3.6,15.2c0.2-1.5,0.2-3.2-0.2-6c0.1-2.8,0.8-5.4,1.6-8
			c-0.4,2.9-0.7,5.7-0.2,8.6c1.6,1.6,2.6,3.4,3.4,5.2c0-3.1-0.5-6.1-2-8.8c2.2,2.5,3.1,5.4,3.4,8.6c0.5-3.5,1.7-6.4,3.4-8.8
			c-1.2,3-1.8,6.1-1,9.4c1.8-3.6,4.2-6.9,8-9.2c-2.5,2-4.5,4.4-5.2,7.8c1.4-1.8,3.1-3.3,5.2-4.4c-0.1,1.3,0.2,2.6,0.6,3.8
			c0.5-3.4,0.4-6.8,0-10.2c1.4,3.5,2.1,7.2,2,11c0.3-3.2,0.8-6.4,1.6-9.6c1.6,2.4,2.5,4.9,3,7.6c0.7-4.2,0-7.5-1-10.6
			c2.1,3.3,3.6,7.1,3.8,12.2c0.5-2.1,0.4-4.3-0.2-6.6c0.9,1.6,1.6,4,1.9,7.3c0.1-2.9,0.9-5.7,2.1-8.3c-0.4,2.7-0.5,5.5,0,8.2
			L1140.5,103.9z"/>
	</g>
	<g>
		<path class="st1" d="M265.2,132.6c2.9-13,6.4-18.7,10-22.5c-5.2,3.9-8.9,9.4-10.4,17.3c0.9-16.8,4.8-32,10-46.5
			C269.2,94,264,107.5,262,123.8c-0.9-10.6-0.5-21.2,1.2-31.7c-2.3,8.5-4,17.2-4.4,26.5c-1.5-7.6-4-15.3-7.2-22.9
			c1.6,5.9,2.3,11.8,1.6,17.6c-1.1-3.3-3-6.8-5.6-10.5c-1-8.3,0.6-16.4,2-24.4c-2.8,9.2-5.8,18.2-7.2,30.5c-0.3-2.9-0.4-6.4,0.4-12
			c-0.2-5.5-1.6-10.8-3.2-16c0.8,5.7,1.5,11.4,0.4,17.2c-3.1,3.2-5.2,6.7-6.8,10.4c0-6.3,1-12.3,4-17.6c-4.4,4.9-6.1,10.8-6.8,17.2
			c-1-7-3.4-12.8-6.8-17.6c2.3,6,3.6,12.2,2,18.8c-3.7-7.3-8.3-13.9-16-18.4c5,4,9.1,8.8,10.4,15.6c-2.8-3.5-6.1-6.6-10.4-8.8
			c0.3,2.7-0.4,5.2-1.2,7.6c-1-6.8-0.8-13.6,0-20.5c-2.9,7-4.3,14.4-4,22c-0.6-6.4-1.6-12.8-3.2-19.2c-3.1,4.8-5,9.9-6,15.2
			c-1.3-8.3,0.1-14.9,2-21.2c-4.2,6.5-7.2,14.2-7.6,24.5c-1.1-4.1-0.8-8.6,0.4-13.2c-1.9,3.2-3.2,8-3.9,14.6c0-1-0.1-2-0.2-3
			c1.8-8.2,4.1-16,6.9-23.6c-2.8,6.3-5.4,12.7-7.6,19.5c-0.8-3.3-1.9-6.4-3.2-9.5c1.9,11.9-0.7,21.4-2,32.9
			c-0.9-10.6-0.5-21.2,1.2-31.7c-2.3,8.5-4,17.2-4.4,26.5c-1.5-7.6-4-15.3-7.2-22.9c1.6,5.9,2.3,11.8,1.6,17.6
			c-1.1-3.3-3-6.8-5.6-10.5c-1-8.3,0.6-16.4,2-24.4c-2.8,9.2-5.8,18.2-7.2,30.5c-0.3-2.9-0.4-6.4,0.4-12c-0.2-5.5-1.7-10.8-3.2-16
			c0.8,5.7,1.5,11.4,0.4,17.2c-3.1,3.2-5.1,6.7-6.8,10.4c0-6.3,1-12.3,4-17.6c-4.4,4.9-6.2,10.8-6.8,17.2c-1-7-3.4-12.8-6.8-17.6
			c2.4,6,3.6,12.2,2,18.8c-3.7-7.3-8.3-13.9-16-18.4c5,4,9.1,8.8,10.4,15.6c-2.8-3.5-6.1-6.6-10.4-8.8c0.3,2.7-0.4,5.2-1.2,7.6
			c-1.1-6.8-0.8-13.6,0-20.5c-2.9,7-4.3,14.4-4,22c-0.7-6.4-1.6-12.8-3.2-19.2c-3.1,4.8-5,9.9-6,15.2c-0.5-2.9-0.6-5.5-0.5-8
			c1.3-4.8,2.8-9.4,4.5-14c-1.4,3.3-2.8,6.5-4.1,9.9c0.5-3.2,1.2-6.2,2.1-9.1c-4.2,6.5-7.2,14.2-7.6,24.5c-1-4.1-0.8-8.6,0.4-13.2
			c-1.9,3.2-3.2,8-3.9,14.6c-0.1-4.6,0.7-10.8,1.5-15.4c-0.8,3-1.5,6.1-2.2,9.2c-0.7-3.6-2-7-3.4-10.4c1.3,7.7,0,14.7,0,22.4
			c-1.5-5.9-3.6-11.7-6-17.6c1.4,5.3,2.2,10.7,1.8,16c-0.2,0.2-0.4,0.3-0.6,0.5c-1-2.7-2.6-5.5-4.6-8.5c1.8-7.9,4.1-15.4,6.7-22.8
			c-2.7,6.3-5.3,12.6-7.5,19.3c-0.4-7.4,1-14.5,2.3-21.7c-2.8,9.2-5.7,18.2-7.2,30.5c-0.6-4.8,0-11.7,0.9-16.8
			c-0.2,0.8-0.4,1.6-0.6,2.4c-0.5-4.7-1.7-9.2-3-13.7c0.8,5.7,1.5,11.4,0.4,17.2c-2,2-3.6,4.3-4.9,6.6c-0.4-1.3-0.9-2.5-1.4-3.8
			c0.6-3.5,1.7-6.9,3.5-10c-2,2.2-3.5,4.7-4.5,7.3c-0.3-0.8-0.7-1.7-1-2.5c0.3,1.1,0.5,2.1,0.8,3.2c-1,2.7-1.6,5.5-1.9,8.4
			c-0.1-0.2-0.2-0.3-0.3-0.5c-0.6-3.6-1.6-6.8-2.9-9.7c0-6.3,1.3-12.5,2.3-18.6c-1.5,4.8-3,9.6-4.3,14.8c-0.5-1-1.1-1.9-1.8-2.8
			c0.5,1.4,1,2.8,1.4,4.2c-0.8,3.1-1.4,6.5-2,10c-0.3-0.4-0.5-0.8-0.8-1.3c0-1.8,0.3-4,0.6-6.5c-0.2-5.5-1.7-10.8-3.2-16
			c0.8,5.7,1.5,11.4,0.4,17.2c-0.3,0.3-0.6,0.7-1,1c-1.2-1.4-2.4-2.8-3.8-4c0.5-1.5,1.2-2.9,2-4.2c-1,1.1-1.9,2.3-2.7,3.6
			c-1.5-1.3-3.2-2.5-5-3.6c1.7,1.3,3.2,2.8,4.6,4.3c-0.7,1.3-1.3,2.7-1.8,4.1c-0.9-0.6-1.8-1.1-2.8-1.6c0.2,1.6,0,3.1-0.3,4.6
			c-0.4-1.5-1-3-1.5-4.4c-0.1-4.3,0.2-8.6,0.7-13c-1.2,2.9-2.1,5.8-2.8,8.7c-0.6-1.1-1.3-2.1-2-3.1c0.6,1.6,1.2,3.3,1.6,4.9
			c-0.7,3.8-1,7.6-0.9,11.5c-0.7-6.4-1.6-12.8-3.2-19.2c-1.9,2.8-3.3,5.8-4.4,8.8c-0.7-0.7-1.4-1.3-2.1-2c0.2-4.7,1.3-8.8,2.5-12.9
			c-2.1,3.3-3.9,6.8-5.2,10.8c-0.8-0.5-1.5-1-2.4-1.5c0.8,0.6,1.5,1.3,2.2,1.9c-0.5,1.7-1,3.5-1.4,5.4c-0.3-0.2-0.6-0.3-0.9-0.5
			c0.2,2-0.1,3.8-0.6,5.6c-0.4-3.3,0-6.8,0.9-10.4c-0.9,1.5-1.6,3.3-2.2,5.4c-0.2-4.5,0.1-8.9,0.7-13.4c-1.8,4.5-3.1,9.1-3.7,13.9
			c-0.7-2.7-1.7-5.3-2.8-7.8c-0.3-1.1-0.5-2.2-0.8-3.2c-3.1,4.8-5,9.9-6,15.2c-1.3-8.3,0.1-14.9,2-21.2c-4.2,6.5-7.2,14.2-7.6,24.5
			c-1.1-4.1-0.8-8.6,0.4-13.2c-1.9,3.2-3.2,8-3.9,14.6C7.9,101.6,6.3,96.2,3.9,91c0.9,5.5,1,11,0,16.4L4,132.6
			C91.1,132.6,178.2,132.6,265.2,132.6L265.2,132.6z M75.5,107.9c-0.1,0.2-0.2,0.5-0.3,0.7c0-1.3,0-2.6,0.1-3.9
			C75.5,105.8,75.5,106.8,75.5,107.9L75.5,107.9z M57,96.2c1.1,1.4,2.1,2.8,3,4.4c-0.5,0.7-1,1.4-1.5,2.1c-0.8-0.8-1.6-1.5-2.5-2.2
			C56.2,99,56.5,97.6,57,96.2L57,96.2z M38.3,98c-0.4,1.2-0.7,2.5-1,3.7c-0.2-0.1-0.3-0.3-0.5-0.4c-0.2-1.9-0.3-3.8-0.3-5.5
			C37.3,96.5,37.8,97.2,38.3,98L38.3,98z"/>
		<path class="st1" d="M1021.6,145.8c-3-13-6.4-18.7-10-22.5c5.2,3.9,8.9,9.4,10.4,17.3c-0.9-16.8-4.8-32-10-46.5
			c5.7,13.1,10.9,26.6,12.8,42.9c0.9-10.6,0.5-21.2-1.2-31.7c2.3,8.5,4,17.2,4.4,26.5c1.5-7.6,4-15.3,7.2-22.9
			c-1.6,5.9-2.3,11.8-1.6,17.6c1.1-3.3,3-6.8,5.6-10.5c1-8.3-0.6-16.4-2-24.4c2.8,9.2,5.7,18.2,7.2,30.5c0.3-2.9,0.4-6.4-0.4-12
			c0.2-5.5,1.7-10.8,3.2-16c-0.8,5.7-1.5,11.5-0.4,17.2c3.1,3.2,5.1,6.7,6.8,10.4c0-6.3-1-12.3-4-17.6c4.4,4.9,6.2,10.9,6.8,17.2
			c1-7,3.4-12.8,6.8-17.6c-2.3,6-3.6,12.2-2,18.8c3.7-7.3,8.3-13.9,16-18.4c-5,4-9.1,8.8-10.4,15.6c2.8-3.5,6.1-6.6,10.4-8.8
			c-0.3,2.7,0.4,5.1,1.2,7.6c1.1-6.8,0.8-13.6,0-20.5c2.9,7.1,4.3,14.4,4,22c0.7-6.4,1.6-12.8,3.2-19.2c3.1,4.8,5,9.9,6,15.2
			c1.3-8.3-0.1-14.9-2-21.2c4.2,6.5,7.2,14.2,7.6,24.5c1.1-4.1,0.8-8.6-0.4-13.2c1.9,3.2,3.2,8,3.9,14.6c0-1,0.1-2,0.2-3
			c-1.8-8.2-4.1-16-6.9-23.6c2.8,6.3,5.4,12.7,7.6,19.5c0.7-3.3,1.9-6.4,3.2-9.5c-1.9,11.9,0.7,21.4,2,32.9
			c0.9-10.6,0.5-21.2-1.2-31.7c2.3,8.5,4,17.2,4.4,26.5c1.5-7.6,4-15.3,7.2-22.9c-1.6,5.9-2.3,11.8-1.6,17.6c1.1-3.3,3-6.8,5.6-10.5
			c1-8.3-0.6-16.4-2-24.4c2.8,9.2,5.7,18.2,7.2,30.5c0.3-2.9,0.4-6.4-0.4-12c0.2-5.5,1.6-10.8,3.2-16c-0.8,5.7-1.5,11.5-0.4,17.2
			c3.1,3.2,5.2,6.7,6.8,10.4c0-6.3-1-12.3-4-17.6c4.4,4.9,6.1,10.9,6.8,17.2c0.4-2.8,1-5.4,1.8-7.8v32.3H1021.6z"/>
	</g>
</g>
<g>
	<path class="st1" d="M262.7,11.3c9.6,0,17.3,0.8,17.3,1.7c0,0.6-2.7,1.1-6.9,1.4l-9.6-1.2l5.2,1.5c-1.9,0.1-3.9,0.1-6.1,0.1
		c-9.6,0-17.3-0.8-17.3-1.7C245.4,12.1,253.2,11.3,262.7,11.3L262.7,11.3z"/>
	<path class="st1" d="M114.4,220.2c36.1,0,65.3,13.4,65.3,29.9c0,9.7-10.1,18.4-25.8,23.8l-36.1-21.3l19.5,25.5
		c-7.1,1.2-14.8,1.9-22.9,1.9c-36.1,0-65.3-13.4-65.3-29.9S78.4,220.2,114.4,220.2L114.4,220.2z"/>
	<path class="st1" d="M229.3,173.5c25.1,0,45.5,7.4,45.5,16.4s-20.4,16.4-45.5,16.4c-25.1,0-45.5-7.4-45.5-16.4
		S204.2,173.5,229.3,173.5L229.3,173.5z"/>
	<path class="st1" d="M390.9,107.3c13.9,0,25.1,2.4,25.1,5.3c0,1.7-3.9,3.2-9.9,4.2l-13.8-3.8l7.5,4.5c-2.7,0.2-5.7,0.3-8.8,0.3
		c-13.8,0-25.1-2.4-25.1-5.3C365.8,109.7,377,107.3,390.9,107.3L390.9,107.3z"/>
	<path class="st1" d="M1007.6,208.4c36.1,0,65.3,13.4,65.3,29.9c0,9.7-10.2,18.4-25.8,23.8l-36.1-21.3l19.5,25.5
		c-7.1,1.2-14.8,1.9-22.8,1.9c-36.1,0-65.3-13.4-65.3-29.9S971.5,208.4,1007.6,208.4L1007.6,208.4z"/>
	<path class="st1" d="M905.6,142.6c28.4,0,51.4,8,51.4,17.8c0,5.8-8,10.9-20.4,14.2l-28.4-12.7l15.3,15.2c-5.6,0.7-11.7,1.1-18,1.1
		c-28.4,0-51.4-8-51.4-17.8C854.2,150.6,877.2,142.6,905.6,142.6L905.6,142.6z"/>
	<path class="st1" d="M732.4,17.8c10.4,0,18.8,1.1,18.8,2.4c0,0.8-2.9,1.5-7.4,1.9l-10.4-1.7l5.6,2.1c-2.1,0.1-4.3,0.2-6.6,0.2
		c-10.4,0-18.8-1.1-18.8-2.4S722,17.8,732.4,17.8L732.4,17.8z"/>
	<path class="st1" d="M58.3,31.1c17.2,0,31.2,1.4,31.2,3.1c0,1.7-14,3.1-31.2,3.1c-17.2,0-31.2-1.4-31.2-3.1
		C27.1,32.5,41.1,31.1,58.3,31.1L58.3,31.1z"/>
	<path class="st1" d="M911.9,26.6c-13.9,0-25.1-1.1-25.1-2.5c0-0.8,3.9-1.5,9.9-2l13.9,1.8l-7.5-2.1c2.7-0.1,5.7-0.2,8.8-0.2
		c13.9,0,25.1,1.1,25.1,2.5C937,25.5,925.8,26.6,911.9,26.6L911.9,26.6z"/>
	<path class="st1" d="M861,17.7c-7.5,0-13.6-0.6-13.6-1.3c0-0.4,2.1-0.8,5.4-1l7.5,0.9l-4.1-1.1c1.5-0.1,3.1-0.1,4.8-0.1
		c7.5,0,13.6,0.6,13.6,1.3C874.6,17.1,868.5,17.7,861,17.7L861,17.7z"/>
	<path class="st1" d="M770.2,13.1c-6.3,0-11.5-0.6-11.5-1.3c0-0.4,1.8-0.8,4.5-1l6.3,0.9l-3.4-1.1c1.2,0,2.6-0.1,4-0.1
		c6.3,0,11.5,0.6,11.5,1.3C781.6,12.5,776.5,13.1,770.2,13.1L770.2,13.1z"/>
	<path class="st1" d="M689.3,31c-6.3,0-11.5-0.8-11.5-1.8c0-0.6,1.8-1.1,4.5-1.5l6.3,1.3l-3.4-1.5c1.3-0.1,2.6-0.1,4-0.1
		c6.3,0,11.5,0.8,11.5,1.8S695.7,31,689.3,31L689.3,31z"/>
	<path class="st1" d="M770.6,278.4c47.9,0,86.6,13.4,86.6,30c0,9.7-13.4,18.4-34.3,23.9l-47.9-21.4l25.8,25.6
		c-9.4,1.2-19.6,1.9-30.3,1.9c-47.8,0-86.6-13.4-86.6-30C684,291.8,722.8,278.4,770.6,278.4L770.6,278.4z"/>
	<path class="st1" d="M781.6,196.5c-30.2,0-54.6,8.5-54.6,18.9c0,6.1,8.5,11.6,21.6,15.1l30.2-13.5l-16.3,16.1
		c5.9,0.8,12.4,1.2,19.1,1.2c30.1,0,54.6-8.5,54.6-18.9C836.2,204.9,811.8,196.5,781.6,196.5L781.6,196.5z"/>
	<path class="st1" d="M37.6,159.4c-20.8,0-37.6,5.8-37.6,13c0,4.2,5.8,8,14.9,10.4l20.8-9.3l-11.2,11.1c4.1,0.5,8.5,0.8,13.2,0.8
		c20.8,0,37.6-5.8,37.6-13C75.2,165.2,58.4,159.4,37.6,159.4L37.6,159.4z"/>
	<path class="st1" d="M239.6,217.4c-20.8,0-37.6,5.8-37.6,13c0,4.2,5.8,8,14.9,10.4l20.8-9.3l-11.2,11.1c4.1,0.5,8.5,0.8,13.2,0.8
		c20.8,0,37.6-5.8,37.6-13C277.2,223.2,260.4,217.4,239.6,217.4L239.6,217.4z"/>
	<path class="st1" d="M911.6,267.4c-20.8,0-37.6,5.8-37.6,13c0,4.2,5.8,8,14.9,10.4l20.8-9.3l-11.2,11.1c4.1,0.5,8.5,0.8,13.2,0.8
		c20.8,0,37.6-5.8,37.6-13C949.2,273.2,932.4,267.4,911.6,267.4L911.6,267.4z"/>
	<path class="st1" d="M963.6,75.6c-9.2,0-16.6,2.6-16.6,5.8c0,1.9,2.6,3.5,6.6,4.6l9.2-4.1l-5,4.9c1.8,0.2,3.8,0.4,5.8,0.4
		c9.2,0,16.6-2.6,16.6-5.7C980.2,78.2,972.8,75.6,963.6,75.6L963.6,75.6z"/>
	<path class="st1" d="M1075.6,164.4c-17.5,0-31.6,4.9-31.6,11c0,3.6,4.9,6.7,12.5,8.7l17.5-7.8l-9.4,9.3c3.4,0.5,7.2,0.7,11.1,0.7
		c17.4,0,31.6-4.9,31.6-10.9C1107.2,169.3,1093.1,164.4,1075.6,164.4L1075.6,164.4z"/>
</g>
<g>
	<g>
		<path class="st2" d="M586.5,296.2c8.1,0,14.7,2.8,14.7,6.3c0,3.5-6.6,6.3-14.7,6.3c-8.1,0-14.7-2.8-14.7-6.3
			C571.8,299,578.4,296.2,586.5,296.2L586.5,296.2z"/>
		<path class="st3" d="M584.5,199.3c14.3,12.7,17.5,46.9,0,46.9C566.9,246.2,570,214.9,584.5,199.3L584.5,199.3z"/>
		<path class="st4" d="M564.3,205.2c19.8,11.1,37.7,41,20.1,41C566.9,246.2,558.9,230.3,564.3,205.2L564.3,205.2z"/>
		<path class="st4" d="M604.6,205.2c-19.8,11.1-37.7,41-20.1,41C602,246.2,610,230.3,604.6,205.2L604.6,205.2z"/>
		<path class="st5" d="M584.4,222.5c6.3,0,11.5,3.8,11.5,8.6c0,4.8-5.1,8.6-11.5,8.6c-6.3,0-11.5-3.9-11.5-8.6
			C573,226.4,578.1,222.5,584.4,222.5L584.4,222.5z"/>
		<path class="st6" d="M553.4,219.2c19.8,11.1,48.5,26.9,31,26.9C566.9,246.2,553.6,238.3,553.4,219.2L553.4,219.2z"/>
		<path class="st6" d="M615.4,219.2c-19.8,11.1-48.5,26.9-31,26.9C602,246.2,615.3,238.3,615.4,219.2L615.4,219.2z"/>
		<path class="st7" d="M584.5,222.7c14.3,6.4,17.5,23.4,0,23.4C566.9,246.2,570,230.5,584.5,222.7L584.5,222.7z"/>
		<rect x="583.5" y="246.2" class="st1" width="1.9" height="57.4"/>
	</g>
	<g>
		<path class="st3" d="M846.4,108.8c12.5,11.1,15.3,41,0,41C831.1,149.8,833.8,122.4,846.4,108.8L846.4,108.8z"/>
		<path class="st4" d="M828.8,113.9c17.3,9.7,32.9,35.9,17.6,35.9C831.1,149.8,824,135.9,828.8,113.9L828.8,113.9z"/>
		<path class="st4" d="M864,113.9c-17.3,9.7-32.9,35.9-17.6,35.9C861.7,149.8,868.7,135.9,864,113.9L864,113.9z"/>
		<path class="st5" d="M846.4,129.1c5.5,0,10,3.4,10,7.5c0,4.2-4.5,7.5-10,7.5c-5.5,0-10-3.4-10-7.5
			C836.4,132.5,840.8,129.1,846.4,129.1L846.4,129.1z"/>
		<path class="st6" d="M819.3,126.2c17.3,9.7,42.5,23.6,27.1,23.6C831.1,149.8,819.4,142.9,819.3,126.2L819.3,126.2z"/>
		<path class="st6" d="M873.5,126.2c-17.3,9.7-42.5,23.6-27.1,23.6C861.7,149.8,873.4,142.9,873.5,126.2L873.5,126.2z"/>
		<path class="st7" d="M846.4,129.3c12.5,5.6,15.3,20.5,0,20.5C831.1,149.8,833.8,136.1,846.4,129.3L846.4,129.3z"/>
		<rect x="845.5" y="149.8" class="st1" width="1.7" height="50.3"/>
	</g>
	<g>
		<path class="st2" d="M149.5,213c8.1,0,14.7,2.5,14.7,5.5c0,3-6.6,5.5-14.7,5.5c-8.1,0-14.7-2.5-14.7-5.5
			C134.8,215.5,141.4,213,149.5,213L149.5,213z"/>
		<path class="st3" d="M148.8,144.7c10.2,9,12.4,33.2,0,33.2C136.4,177.9,138.7,155.7,148.8,144.7L148.8,144.7z"/>
		<path class="st4" d="M134.6,148.8c14,7.9,26.7,29.1,14.2,29.1C136.4,177.9,130.8,166.6,134.6,148.8L134.6,148.8z"/>
		<path class="st4" d="M163.1,148.8c-14,7.9-26.7,29.1-14.3,29.1C161.3,177.9,167,166.6,163.1,148.8L163.1,148.8z"/>
		<path class="st5" d="M148.8,161.1c4.5,0,8.1,2.7,8.1,6.1c0,3.4-3.6,6.1-8.1,6.1c-4.5,0-8.1-2.7-8.1-6.1
			C140.7,163.9,144.4,161.1,148.8,161.1L148.8,161.1z"/>
		<path class="st6" d="M126.9,158.8c14,7.9,34.4,19.1,21.9,19.1C136.4,177.9,127,172.3,126.9,158.8L126.9,158.8z"/>
		<path class="st6" d="M170.8,158.8c-14,7.9-34.4,19.1-22,19.1C161.3,177.9,170.7,172.3,170.8,158.8L170.8,158.8z"/>
		<path class="st7" d="M148.8,161.3c10.2,4.5,12.4,16.6,0,16.6C136.4,177.9,138.7,166.8,148.8,161.3L148.8,161.3z"/>
		<rect x="148.2" y="177.9" class="st1" width="1.3" height="40.7"/>
	</g>
	<g>
		<path class="st3" d="M1122.3,201.7c10.1,9,12.4,33.2,0,33.2C1109.9,234.8,1112.1,212.7,1122.3,201.7L1122.3,201.7z"/>
		<path class="st4" d="M1108.1,205.8c14,7.9,26.7,29.1,14.3,29.1C1109.9,234.8,1104.2,223.6,1108.1,205.8L1108.1,205.8z"/>
		<path class="st4" d="M1136.6,205.8c-14,7.9-26.7,29.1-14.3,29.1C1134.7,234.8,1140.4,223.6,1136.6,205.8L1136.6,205.8z"/>
		<path class="st5" d="M1122.3,218.1c4.5,0,8.1,2.7,8.1,6.1c0,3.4-3.7,6.1-8.1,6.1c-4.5,0-8.1-2.7-8.1-6.1
			C1114.2,220.8,1117.8,218.1,1122.3,218.1L1122.3,218.1z"/>
		<path class="st6" d="M1100.4,215.8c14,7.9,34.4,19.1,22,19.1C1109.9,234.8,1100.5,229.2,1100.4,215.8L1100.4,215.8z"/>
		<path class="st6" d="M1144.3,215.8c-14,7.9-34.4,19.1-22,19.1C1134.7,234.8,1144.1,229.2,1144.3,215.8L1144.3,215.8z"/>
		<path class="st7" d="M1122.3,218.2c10.1,4.5,12.4,16.6,0,16.6C1109.9,234.8,1112.1,223.7,1122.3,218.2L1122.3,218.2z"/>
		<rect x="1121.6" y="234.8" class="st1" width="1.4" height="40.7"/>
	</g>
	<g>
		<path class="st2" d="M785.4,168.6c8.1,0,14.7,1.9,14.7,4.2s-6.6,4.2-14.7,4.2c-8.1,0-14.7-1.9-14.7-4.2S777.2,168.6,785.4,168.6
			L785.4,168.6z"/>
		<path class="st3" d="M783.4,98.5c10.1,9,12.4,33.2,0,33.2C771,131.6,773.3,109.5,783.4,98.5L783.4,98.5z"/>
		<path class="st4" d="M769.2,102.6c14,7.9,26.7,29,14.2,29C771,131.6,765.3,120.4,769.2,102.6L769.2,102.6z"/>
		<path class="st4" d="M797.7,102.6c-14,7.9-26.7,29-14.3,29C795.9,131.6,801.5,120.4,797.7,102.6L797.7,102.6z"/>
		<path class="st5" d="M783.4,114.9c4.5,0,8.1,2.7,8.1,6.1s-3.6,6.1-8.1,6.1s-8.1-2.7-8.1-6.1S778.9,114.9,783.4,114.9L783.4,114.9z
			"/>
		<path class="st6" d="M761.5,112.6c14,7.9,34.4,19.1,21.9,19.1C771,131.6,761.6,126,761.5,112.6L761.5,112.6z"/>
		<path class="st6" d="M805.4,112.6c-14,7.9-34.4,19.1-22,19.1C795.9,131.6,805.3,126,805.4,112.6L805.4,112.6z"/>
		<path class="st7" d="M783.4,115.1c10.1,4.5,12.4,16.6,0,16.6C771,131.6,773.3,120.6,783.4,115.1L783.4,115.1z"/>
		<rect x="782.8" y="131.6" class="st1" width="1.3" height="40.7"/>
	</g>
	<g>
		<path class="st2" d="M445.4,103.2c6,0,10.9,1,10.9,2.3c0,1.2-4.9,2.2-10.9,2.2c-6,0-10.9-1-10.9-2.2
			C434.5,104.2,439.4,103.2,445.4,103.2L445.4,103.2z"/>
		<path class="st4" d="M441.6,56.5c7,6.2,8.5,22.7,0,22.7C433.2,79.2,434.7,64,441.6,56.5L441.6,56.5z"/>
		<path class="st6" d="M431.9,59.3c9.6,5.4,18.3,19.9,9.7,19.9C433.2,79.2,429.3,71.5,431.9,59.3L431.9,59.3z"/>
		<path class="st6" d="M451.4,59.3c-9.6,5.4-18.3,19.9-9.8,19.9C450.1,79.2,454,71.5,451.4,59.3L451.4,59.3z"/>
		<path class="st5" d="M441.6,67.8c3.1,0,5.6,1.9,5.6,4.2c0,2.3-2.5,4.2-5.6,4.2c-3.1,0-5.6-1.9-5.6-4.2
			C436.1,69.6,438.6,67.8,441.6,67.8L441.6,67.8z"/>
		<path class="st7" d="M441.6,67.9c7,3.1,8.5,11.4,0,11.4C433.2,79.2,434.7,71.6,441.6,67.9L441.6,67.9z"/>
		<rect x="441.2" y="79.2" class="st1" width="0.9" height="27.9"/>
	</g>
	<g>
		<path class="st2" d="M942.2,24.3c3.6,0,6.5,0.3,6.5,0.7s-2.9,0.7-6.5,0.7c-3.6,0-6.5-0.3-6.5-0.7S938.6,24.3,942.2,24.3
			L942.2,24.3z"/>
		<path class="st4" d="M940.2,0c3.4,3,4.2,11.1,0,11.1C936.1,11.1,936.8,3.7,940.2,0L940.2,0z"/>
		<path class="st6" d="M935.4,1.4c4.7,2.6,8.9,9.7,4.8,9.7C936.1,11.1,934.2,7.3,935.4,1.4L935.4,1.4z"/>
		<path class="st6" d="M945,1.4c-4.7,2.6-8.9,9.7-4.8,9.7C944.4,11.1,946.2,7.3,945,1.4L945,1.4z"/>
		<path class="st5" d="M940.2,5.5c1.5,0,2.7,0.9,2.7,2s-1.2,2.1-2.7,2.1c-1.5,0-2.7-0.9-2.7-2.1S938.7,5.5,940.2,5.5L940.2,5.5z"/>
		<path class="st7" d="M940.2,5.5c3.4,1.5,4.2,5.5,0,5.5C936.1,11.1,936.8,7.4,940.2,5.5L940.2,5.5z"/>
		<rect x="940" y="11.1" class="st1" width="0.4" height="13.6"/>
	</g>
</g>
</svg>
