<?xml version="1.0" encoding="utf-8"?>
<!-- Generator: Adobe Illustrator 23.0.1, SVG Export Plug-In . SVG Version: 6.00 Build 0)  -->
<svg version="1.1" id="Layer_1" xmlns="http://www.w3.org/2000/svg" xmlns:xlink="http://www.w3.org/1999/xlink" x="0px" y="0px"
	 viewBox="0 0 1425 1500" style="enable-background:new 0 0 1425 1500;" xml:space="preserve">
<style type="text/css">
	.st0{fill:#B2FF9D;}
	.st1{fill:#FFFFFF;}
	.st2{opacity:0.3;}
	.st3{fill:#C0272D;}
	.st4{fill:#F37360;}
	.st5{fill:#5A4E4A;}
	.st6{fill:#BF5A4B;}
	.st7{opacity:0.7;fill:#FBF8F3;}
	.st8{opacity:0.5;fill:#FBF8F3;}
	.st9{fill:#FBF8F3;}
	.st10{fill:#FFD86C;}
	.st11{fill:#FFE8AE;}
	.st12{fill:#E88D85;}
	.st13{fill:#F1BBB6;}
	.st14{fill:#C7892B;}
	.st15{fill:#F0B12F;}
	.st16{fill:#B47B2C;}
	.st17{fill:#DB9F32;}
	.st18{opacity:0.56;fill:#7F5522;}
	.st19{fill:none;}
	.st20{fill:#F5BB53;}
	.st21{fill:#8C5D25;}
	.st22{fill:#A2712A;}
	.st23{fill:none;stroke:#A2712A;stroke-width:0.5;stroke-linejoin:round;stroke-miterlimit:10;}
	.st24{fill:none;stroke:#E3DFDA;stroke-miterlimit:10;}
	.st25{fill:#DAAD65;}
	.st26{fill:#BB9557;}
</style>
<rect y="4.1" class="st0" width="1425" height="1495.9"/>
<g>
	<polygon class="st1" points="1049.3,814 689.3,622.9 361.6,828.7 721.6,1019.9 	"/>
	<g>
		<g class="st2">
			<polygon class="st3" points="384.1,840.7 361.6,828.7 689.3,622.9 711.8,634.8 			"/>
			<polygon class="st3" points="429.1,864.6 406.6,852.6 734.3,646.8 756.8,658.7 			"/>
			<polygon class="st3" points="474.1,888.5 451.6,876.5 779.3,670.6 801.8,682.6 			"/>
			<polygon class="st3" points="519.1,912.4 496.6,900.4 824.3,694.5 846.8,706.5 			"/>
			<polygon class="st3" points="564.1,936.2 541.6,924.3 869.3,718.4 891.8,730.4 			"/>
			<polygon class="st3" points="609.1,960.1 586.6,948.2 914.3,742.3 936.8,754.3 			"/>
			<polygon class="st3" points="654.1,984 631.6,972.1 959.3,766.2 981.8,778.2 			"/>
			<polygon class="st3" points="699.1,1007.9 676.6,996 1004.3,790.1 1026.8,802.1 			"/>
		</g>
		<g class="st2">
			<polygon class="st3" points="648.3,648.6 668.8,635.7 1028.9,826.9 1008.4,839.7 			"/>
			<polygon class="st3" points="607.4,674.3 627.9,661.5 987.9,852.6 967.4,865.5 			"/>
			<polygon class="st3" points="566.4,700.1 586.9,687.2 946.9,878.3 926.4,891.2 			"/>
			<polygon class="st3" points="525.4,725.8 545.9,712.9 906,904.1 885.5,916.9 			"/>
			<polygon class="st3" points="484.5,751.5 505,738.7 865,929.8 844.5,942.7 			"/>
			<polygon class="st3" points="443.5,777.3 464,764.4 824,955.5 803.5,968.4 			"/>
			<polygon class="st3" points="402.5,803 423,790.1 783.1,981.3 762.6,994.1 			"/>
			<polygon class="st3" points="361.6,828.7 382.1,815.9 742.1,1007 721.6,1019.9 			"/>
		</g>
	</g>
</g>
<g>
	<path class="st4" d="M591,1031.7c0.1-0.6,0.2-1.1,0.2-1.7c1.5-13.2-12.7-24-25.1-24c-12.8,0-24.6,6.1-24.7,20.8
		c0,8.8,5,20.5,11.1,26.9c1.7,1.7,3.7,3.5,6.1,3.7c2.9,0.2,3.1-1.7,5.6-2.6c4.5-1.6,6,2.9,10.5,2.4
		C584.6,1056,589.6,1040.7,591,1031.7z"/>
	<path class="st5" d="M568.4,1015.3c0,0-2.3-32.7,4.2-32.9c6.5-0.3-1.3,0.8-1.9,5.1c0,0-2.4,6.2-2.3,17.8
		C568.5,1016.9,569.9,1014.7,568.4,1015.3z"/>
	<g>
		<path class="st6" d="M563.3,1013.9c1.7,0.6,3.5,0.9,5.2,0.8c0.9,0,1.7-0.2,2.6-0.4c0.8-0.2,1.7-0.6,2.5-0.9
			c-1.3,1.4-3.1,2.2-5.1,2.3c-1,0-1.9-0.1-2.8-0.4C564.8,1015,563.9,1014.6,563.3,1013.9z"/>
	</g>
</g>
<g>
	<path class="st4" d="M521.2,1031.7c0.1-0.6,0.2-1.1,0.2-1.7c1.5-13.2-12.7-24-25.1-24c-12.8,0-24.6,6.1-24.7,20.8
		c0,8.8,5,20.5,11.1,26.9c1.7,1.7,3.7,3.5,6.1,3.7c2.9,0.2,3.1-1.7,5.6-2.6c4.5-1.6,6,2.9,10.5,2.4
		C514.8,1056,519.8,1040.7,521.2,1031.7z"/>
	<path class="st5" d="M498.6,1015.3c0,0-2.3-32.7,4.2-32.9c6.5-0.3-1.3,0.8-1.9,5.1c0,0-2.4,6.2-2.3,17.8
		C498.7,1016.9,500.1,1014.7,498.6,1015.3z"/>
	<g>
		<path class="st6" d="M493.4,1013.9c1.7,0.6,3.5,0.9,5.2,0.8c0.9,0,1.7-0.2,2.6-0.4c0.8-0.2,1.7-0.6,2.5-0.9
			c-1.3,1.4-3.1,2.2-5.1,2.3c-1,0-1.9-0.1-2.8-0.4C495,1015,494.1,1014.6,493.4,1013.9z"/>
	</g>
</g>
<g>
	<path class="st4" d="M550,972c0.1-0.6,0.2-1.1,0.2-1.7c1.5-13.2-12.7-24-25.1-24c-12.8,0-24.6,6.1-24.7,20.8
		c0,8.8,5,20.5,11.1,26.9c1.7,1.7,3.7,3.5,6.1,3.7c2.9,0.2,3.1-1.7,5.6-2.6c4.5-1.6,6,2.9,10.5,2.4C543.7,996.3,548.7,980.9,550,972
		z"/>
	<path class="st5" d="M527.5,955.5c0,0-2.3-32.7,4.2-32.9c6.5-0.3-1.3,0.8-1.9,5.1c0,0-2.4,6.2-2.3,17.8
		C527.5,957.2,529,955,527.5,955.5z"/>
	<g>
		<path class="st6" d="M522.3,954.2c1.7,0.6,3.5,0.9,5.2,0.8c0.9,0,1.7-0.2,2.6-0.4c0.8-0.2,1.7-0.6,2.5-0.9
			c-1.3,1.4-3.1,2.2-5.1,2.3c-1,0-1.9-0.1-2.8-0.4C523.8,955.3,523,954.8,522.3,954.2z"/>
	</g>
</g>
<g>
	<path class="st7" d="M971.9,709.8c-8.8,0-15.9-1.6-15.9-3.7l4.6,45.4c0,0,9.8,7.1,21.9,1.1l5.4-46.5
		C987.9,708.2,980.8,709.8,971.9,709.8z"/>
	<path class="st8" d="M971.9,702.5c-8.8,0-15.9,1.6-15.9,3.7c0,2,7.1,3.7,15.9,3.7c8.8,0,15.9-1.6,15.9-3.7
		C987.9,704.1,980.8,702.5,971.9,702.5z"/>
	<g>
		<path class="st9" d="M957.1,707.5c1.2,0.3,2.4,0.6,3.6,0.8c1.2,0.2,2.4,0.4,3.6,0.6c2.4,0.3,4.9,0.5,7.3,0.5
			c2.4,0.1,4.9-0.1,7.3-0.3l1.8-0.2l1.8-0.3c1.2-0.2,2.4-0.5,3.6-0.8c-2.3,0.9-4.7,1.7-7.2,2.1l-0.9,0.2l-0.9,0.1l-1.9,0.2
			c-1.2,0.1-2.5,0.1-3.7,0.1c-2.5-0.1-5-0.3-7.4-0.8C961.8,709.1,959.4,708.5,957.1,707.5z"/>
	</g>
	<path class="st10" d="M960.2,726.2l2.5,23.9c0,0,7.3,5.5,18.2,0.8l3.2-24.6H960.2z"/>
	<path class="st11" d="M984.1,726.2c0,0.8-5.4,1.5-12,1.5c-6.6,0-12-0.7-12-1.5c0-0.8,5.4-1.5,12-1.5
		C978.8,724.7,984.1,725.4,984.1,726.2z"/>
	<g>
		<path class="st9" d="M983.1,712.6c-0.2,3.1-0.4,6.3-0.7,9.4c-0.3,3.1-0.6,6.3-1,9.4c-0.4,3.1-0.8,6.2-1.2,9.3l-0.7,4.7
			c-0.3,1.6-0.5,3.1-0.8,4.7c0.1-1.6,0.2-3.1,0.3-4.7l0.4-4.7c0.3-3.1,0.6-6.3,1-9.4c0.4-3.1,0.8-6.2,1.2-9.3
			C982.1,718.8,982.5,715.7,983.1,712.6z"/>
	</g>
</g>
<g>
	<path class="st7" d="M883.6,657.8c-8.8,0-15.9-1.6-15.9-3.7l4.6,45.4c0,0,9.8,7.1,21.9,1.1l5.4-46.5
		C899.6,656.2,892.4,657.8,883.6,657.8z"/>
	<path class="st8" d="M883.6,650.5c-8.8,0-15.9,1.6-15.9,3.7s7.1,3.7,15.9,3.7s15.9-1.6,15.9-3.7S892.4,650.5,883.6,650.5z"/>
	<g>
		<path class="st9" d="M868.8,655.5c1.2,0.3,2.4,0.6,3.6,0.8c1.2,0.2,2.4,0.4,3.6,0.6c2.4,0.3,4.9,0.5,7.3,0.5
			c2.4,0.1,4.9-0.1,7.3-0.3l1.8-0.2l1.8-0.3c1.2-0.2,2.4-0.5,3.6-0.8c-2.3,0.9-4.7,1.7-7.2,2.1l-0.9,0.2l-0.9,0.1l-1.9,0.2
			c-1.2,0.1-2.5,0.1-3.7,0.1c-2.5-0.1-5-0.3-7.4-0.8C873.5,657.1,871.1,656.5,868.8,655.5z"/>
	</g>
	<path class="st10" d="M871.9,674.2l2.5,23.9c0,0,7.3,5.5,18.2,0.8l3.2-24.6H871.9z"/>
	<path class="st11" d="M895.8,674.2c0,0.8-5.4,1.5-12,1.5c-6.6,0-12-0.7-12-1.5c0-0.8,5.4-1.5,12-1.5
		C890.5,672.7,895.8,673.4,895.8,674.2z"/>
	<g>
		<path class="st9" d="M894.8,660.6c-0.2,3.1-0.4,6.3-0.7,9.4c-0.3,3.1-0.6,6.3-1,9.4c-0.4,3.1-0.8,6.2-1.2,9.3l-0.7,4.7
			c-0.3,1.6-0.5,3.1-0.8,4.7c0.1-1.6,0.2-3.1,0.3-4.7l0.4-4.7c0.3-3.1,0.6-6.3,1-9.4c0.4-3.1,0.8-6.2,1.2-9.3
			C893.7,666.8,894.2,663.7,894.8,660.6z"/>
	</g>
</g>
<g>
	<path class="st7" d="M920.9,654.6c-8.8,0-15.9-1.6-15.9-3.7l4.6,45.4c0,0,9.8,7.1,21.9,1.1l5.4-46.5
		C936.8,653,929.7,654.6,920.9,654.6z"/>
	<path class="st8" d="M920.9,647.3c-8.8,0-15.9,1.6-15.9,3.7c0,2,7.1,3.7,15.9,3.7c8.8,0,15.9-1.6,15.9-3.7
		C936.8,649,929.7,647.3,920.9,647.3z"/>
	<g>
		<path class="st9" d="M906.1,652.3c1.2,0.3,2.4,0.6,3.6,0.8c1.2,0.2,2.4,0.4,3.6,0.6c2.4,0.3,4.9,0.5,7.3,0.5
			c2.4,0.1,4.9-0.1,7.3-0.3l1.8-0.2l1.8-0.3c1.2-0.2,2.4-0.5,3.6-0.8c-2.3,0.9-4.7,1.7-7.2,2.1l-0.9,0.2l-0.9,0.1l-1.9,0.2
			c-1.2,0.1-2.5,0.1-3.7,0.1c-2.5-0.1-5-0.3-7.4-0.8C910.8,653.9,908.3,653.3,906.1,652.3z"/>
	</g>
	<path class="st12" d="M909.1,671l2.5,23.9c0,0,7.3,5.5,18.2,0.8L933,671H909.1z"/>
	<path class="st13" d="M933,671c0,0.8-5.4,1.5-12,1.5c-6.6,0-12-0.7-12-1.5c0-0.8,5.4-1.5,12-1.5C927.7,669.5,933,670.2,933,671z"/>
	<g>
		<path class="st9" d="M932,657.5c-0.2,3.1-0.4,6.3-0.7,9.4c-0.3,3.1-0.6,6.3-1,9.4c-0.4,3.1-0.8,6.2-1.2,9.3l-0.7,4.7
			c-0.3,1.6-0.5,3.1-0.8,4.7c0.1-1.6,0.2-3.1,0.3-4.7l0.4-4.7c0.3-3.1,0.6-6.3,1-9.4c0.4-3.1,0.8-6.2,1.2-9.3
			C931,663.7,931.4,660.6,932,657.5z"/>
	</g>
</g>
<g>
	<polygon class="st14" points="872.3,678.4 870.7,689.7 861.3,695.5 862.5,684.7 862.4,684.4 	"/>
	<polygon class="st15" points="870.7,689.7 869.2,701 860,706.6 861.3,695.5 	"/>
	<polygon class="st14" points="869.2,701 867.7,712.3 858.7,717.8 860,706.6 	"/>
	<polygon class="st15" points="867.7,712.3 866.2,723.6 857.4,728.9 857.4,728.9 858.7,717.8 	"/>
	<polygon class="st15" points="862.4,684.4 862.5,684.7 861.3,695.5 852,701.1 853,690.1 853,690.1 	"/>
	<polygon class="st14" points="861.3,695.5 860,706.6 850.9,712.2 852,701.1 	"/>
	<polygon class="st15" points="860,706.6 858.7,717.8 849.8,723.2 850.9,712.2 	"/>
	<polygon class="st14" points="858.7,717.8 857.4,728.9 857.4,728.9 848.8,734.2 849.8,723.2 	"/>
	<polygon class="st14" points="853,690.1 853,690.1 852,701.1 841.9,707.2 842.6,696.5 	"/>
	<polygon class="st15" points="852,701.1 850.9,712.2 841.3,718 841.9,707.2 	"/>
	<polygon class="st14" points="850.9,712.2 849.8,723.2 840.6,728.8 841.3,718 	"/>
	<polygon class="st15" points="849.8,723.2 848.8,734.2 839.9,739.6 840.6,728.8 	"/>
	<polygon class="st15" points="842.6,696.5 841.9,707.2 832.5,713 832.9,702.4 	"/>
	<polygon class="st14" points="841.9,707.2 841.3,718 832,723.6 832.5,713 	"/>
	<polygon class="st15" points="841.3,718 840.6,728.8 831.6,734.3 832,723.6 	"/>
	<polygon class="st14" points="840.6,728.8 839.9,739.6 831.2,744.9 831.6,734.3 	"/>
	<polygon class="st14" points="832.9,702.4 832.5,713 822.6,719 822.7,708.6 	"/>
	<polygon class="st15" points="832.5,713 832,723.6 822.6,729.4 822.6,719 	"/>
	<polygon class="st14" points="832,723.6 831.6,734.3 822.5,739.8 822.6,729.4 	"/>
	<polygon class="st15" points="831.6,734.3 831.2,744.9 822.5,750.2 822.4,750.2 822.5,739.8 	"/>
	<polygon class="st15" points="822.7,708.6 822.6,719 813,724.9 812.7,714.6 	"/>
	<polygon class="st14" points="822.6,719 822.6,729.4 813.2,735.1 813,724.9 	"/>
	<polygon class="st15" points="822.6,729.4 822.5,739.8 813.5,745.3 813.2,735.1 	"/>
	<polygon class="st14" points="822.5,739.8 822.4,750.2 822.5,750.2 813.7,755.5 813.5,745.3 	"/>
	<polygon class="st15" points="813.5,745.3 813.7,755.5 805,760.8 804.7,750.6 	"/>
	<polygon class="st14" points="813.2,735.1 813.5,745.3 804.7,750.6 804.5,740.4 804.5,740.4 	"/>
	<polygon class="st15" points="813,724.9 813.2,735.1 804.5,740.4 804.5,740.4 804.3,730.1 	"/>
	<polygon class="st14" points="812.7,714.6 813,724.9 804.3,730.1 804,719.9 	"/>
	<polygon class="st16" points="804.7,750.6 805,760.8 796,755.9 796,755.9 795.8,745.7 804.7,750.6 	"/>
	<polygon class="st17" points="804.5,740.4 804.7,750.6 804.7,750.6 795.8,745.7 795.5,735.5 	"/>
	<polygon class="st16" points="804.3,730.1 804.5,740.4 795.5,735.5 795.3,725.2 804.3,730.1 	"/>
	<polygon class="st17" points="804,719.9 804.3,730.1 804.3,730.1 795.3,725.2 795.1,715 804,719.9 	"/>
	<polygon class="st17" points="795.8,745.7 796,755.9 796,755.9 787,751 787,751 786.3,740.5 	"/>
	<polygon class="st16" points="795.5,735.5 795.8,745.7 786.3,740.5 785.6,730 	"/>
	<polygon class="st17" points="795.3,725.2 795.5,735.5 785.6,730 784.9,719.5 	"/>
	<polygon class="st16" points="795.1,715 795.3,725.2 784.9,719.5 784.2,709.1 	"/>
	<polygon class="st16" points="786.3,740.5 787,751 787,751 778,746.1 778,746.1 777.1,735.5 	"/>
	<polygon class="st17" points="785.6,730 786.3,740.5 777.1,735.5 776.2,724.9 	"/>
	<polygon class="st16" points="784.9,719.5 785.6,730 776.2,724.9 775.3,714.3 	"/>
	<polygon class="st17" points="784.2,709.1 784.9,719.5 775.3,714.3 774.4,703.7 	"/>
	<polygon class="st17" points="777.1,735.5 778,746.1 778,746.1 769,741.2 767.5,730.2 	"/>
	<polygon class="st16" points="776.2,724.9 777.1,735.5 767.5,730.2 766,719.3 	"/>
	<polygon class="st17" points="775.3,714.3 776.2,724.9 766,719.3 764.5,708.3 	"/>
	<polygon class="st16" points="774.4,703.7 775.3,714.3 764.5,708.3 762.9,697.4 	"/>
	<polygon class="st16" points="767.5,730.2 769,741.2 760.1,736.3 758,725 	"/>
	<polygon class="st17" points="766,719.3 767.5,730.2 758,725 756,713.8 	"/>
	<polygon class="st16" points="764.5,708.3 766,719.3 756,713.8 754,702.6 	"/>
	<polygon class="st17" points="762.9,697.4 764.5,708.3 754,702.6 752,691.4 	"/>
	<polygon class="st18" points="804,719.9 804.1,722.4 752.4,694.1 752,691.4 	"/>
	<polygon class="st18" points="804,719.9 804.1,722.4 871.9,681.1 872.3,678.4 	"/>
	<g>
		<polyline class="st19" points="769,741.2 769,741.2 767.5,730.2 766,719.3 764.5,708.3 762.9,697.4 		"/>
		<polyline class="st19" points="796,755.9 795.8,745.7 795.5,735.5 795.3,725.2 795.1,715 		"/>
		<polyline class="st19" points="787,751 786.3,740.5 785.6,730 784.9,719.5 784.2,709.1 		"/>
		<polyline class="st19" points="778,746.1 777.1,735.5 776.2,724.9 775.3,714.3 774.4,703.7 		"/>
		<polyline class="st19" points="813.7,755.5 813.5,745.3 813.2,735.1 813,724.9 812.7,714.6 		"/>
		<polyline class="st19" points="857.4,728.9 858.7,717.8 860,706.6 861.3,695.5 862.5,684.7 		"/>
		<polyline class="st19" points="848.7,734.3 848.8,734.2 849.8,723.2 850.9,712.2 852,701.1 853,690.1 		"/>
		<polyline class="st19" points="839.9,739.6 840.6,728.8 841.3,718 841.9,707.2 842.6,696.5 		"/>
		<polyline class="st19" points="831.2,744.9 831.2,744.9 831.6,734.3 832,723.6 832.5,713 832.9,702.4 		"/>
		<polyline class="st19" points="822.4,750.2 822.5,739.8 822.6,729.4 822.6,719 822.7,708.6 822.7,708.5 		"/>
	</g>
	<g>
		<polygon class="st20" points="803.8,709.8 873.8,667.2 819.9,637.6 749.9,680.2 		"/>
		<polyline class="st16" points="750.2,690.4 804,719.9 803.8,709.8 749.9,680.2 750,690.7 		"/>
		<polygon class="st14" points="873.8,667.2 874,677.4 804,719.9 803.8,709.8 		"/>
	</g>
	<polygon class="st21" points="782,660.7 787.8,657.2 787.5,643.6 781.4,640.3 	"/>
	<polygon class="st22" points="787.4,636.7 781.4,640.3 787.5,643.6 835.5,669.6 836.4,700.2 842.6,696.5 841.9,665.8 	"/>
	<line class="st23" x1="785.4" y1="658.6" x2="838.8" y2="688.5"/>
</g>
<g>
	<path class="st9" d="M580.6,822.5c0,12.2-27.8,22-62.2,22s-62.2-9.9-62.2-22c0-12.2,27.8-22,62.2-22S580.6,810.4,580.6,822.5z"/>
	<path class="st24" d="M565.3,827.3c0,6.9-20.2,12.4-45.1,12.4c-24.9,0-45.1-5.6-45.1-12.4c0-6.9,20.2-12.4,45.1-12.4
		C545.1,814.9,565.3,820.4,565.3,827.3z"/>
</g>
<g>
	<path class="st25" d="M503.9,805c0.2,0.1,0.4,0.2,0.6,0.3C504.4,805.2,504.2,805.1,503.9,805z"/>
	<path class="st25" d="M499.9,803.1c0.9,0.4,1.8,0.8,2.6,1.2C501.7,803.8,500.8,803.5,499.9,803.1z"/>
	<path class="st25" d="M481,823.2c0.6,0,1.1,0.1,1.7,0.2C482,823.3,481.5,823.2,481,823.2z"/>
	<path class="st25" d="M484.3,810.7c0.4,0.1,0.8,0.3,1.2,0.4C484.8,810.9,484.3,810.7,484.3,810.7z"/>
	<path class="st25" d="M496.5,801.8c1.2,0.4,2.2,0.8,3.3,1.2C498.5,802.5,497.4,802.1,496.5,801.8z"/>
	<path class="st26" d="M484.6,807.6c-0.2,0.9-0.3,2-0.3,3.2c0,0,0.5,0.2,1.2,0.4c23.5,8.5,24.3,14,24.3,14s1.3,0,2.8-0.7
		C506,814.4,491.3,809.3,484.6,807.6z"/>
	<path class="st25" d="M504.6,805.3c-0.2-0.1-0.4-0.2-0.6-0.3c-0.5-0.2-0.9-0.5-1.4-0.7c-0.8-0.4-1.7-0.8-2.6-1.2
		c-0.1,0-0.1,0-0.2-0.1c-1-0.4-2.1-0.8-3.3-1.2c0,0-0.1,0-0.1,0c-0.2-0.1-10-2.8-11.8,5.8c6.6,1.7,21.4,6.8,28,17
		c1.7-0.8,3.5-2.5,3.9-6.2C515,812.3,509.6,808.1,504.6,805.3z"/>
	<path class="st26" d="M479.8,820.2c0.1,0.9,0.2,1.9,0.5,2.9c0,0,0.3,0,0.7,0.1l0,0c0,0,0,0,0,0c0.4,0,1,0.1,1.7,0.2
		c11.6,1.3,15.7,5.9,15.8,6c1.4,0.7,4.3,1.9,6.8,1.8C494.9,820.5,484,820,479.8,820.2z"/>
	<path class="st25" d="M485.6,811.2c-0.4-0.1-0.8-0.3-1.2-0.4c0,0-5.1,2.2-4.5,9.5c4.2-0.3,15.1,0.3,25.4,11c2.5-0.1,4.6-1.5,4.6-6
		C507.5,819.6,490.3,812.9,485.6,811.2z"/>
	<path class="st25" d="M485.6,811.2c4.8,1.7,22,8.4,24.3,14C509.8,825.2,509,819.6,485.6,811.2z"/>
	<path class="st25" d="M482.7,823.4c-0.5-0.1-1.1-0.1-1.7-0.2c0,0,0,0,0,0c0,0-4.9,11.3,0.9,13.2c5.8,1.9,16.6-7,16.6-7l0,0
		c-0.5-0.2-0.8-0.4-0.8-0.4C493.9,825.2,486.5,823.9,482.7,823.4z"/>
	<path class="st25" d="M497.7,829c0,0,0.3,0.2,0.8,0.4c-0.1-0.1-4.1-4.7-15.8-6C486.5,823.9,493.9,825.2,497.7,829z"/>
	<polygon class="st25" points="481,823.2 481,823.2 481,823.2 	"/>
	<path class="st26" d="M495,798.4c-0.2,0.8-0.4,1.8-0.4,2.9c0,0,0.7,0.2,1.8,0.6c0,0,0,0,0,0c0,0,0,0,0.1,0c0.9,0.3,2,0.7,3.3,1.2
		c0.1,0,0.1,0,0.2,0.1c0.8,0.3,1.7,0.7,2.6,1.2c0.5,0.2,0.9,0.5,1.4,0.7c0.2,0.1,0.4,0.2,0.6,0.3c11.3,6.1,12,13,12,13
		s0.8,1.6,2.2,2C520.3,807.3,502.6,800.6,495,798.4z"/>
	<path class="st25" d="M516,795.7c-2.7-2.1-6.2-3.4-10.8-3.4c0,0-8.2-0.3-10.1,6.1c7.6,2.2,25.3,8.9,23.7,21.9c0.9,0.3,2.1,0,3.5-2
		c0.2-0.3,0.4-0.7,0.6-1.2C524.4,812.6,523.4,801.3,516,795.7z"/>
	<path class="st25" d="M499.8,803c0.1,0,0.1,0,0.2,0.1C499.9,803.1,499.8,803.1,499.8,803z"/>
	<path class="st25" d="M504.6,805.3c5.1,2.8,10.4,7,12,13C516.6,818.3,515.9,811.4,504.6,805.3z"/>
	<path class="st25" d="M496.5,801.8C496.5,801.8,496.5,801.8,496.5,801.8C496.5,801.8,496.5,801.8,496.5,801.8
		C496.5,801.8,496.5,801.8,496.5,801.8z"/>
	<path class="st25" d="M502.6,804.3c0.4,0.2,0.9,0.5,1.4,0.7C503.5,804.8,503.1,804.5,502.6,804.3z"/>
	<path class="st26" d="M518.3,794c-1.5,0.8-2.4,1.7-2.4,1.7c0,0,0,0,0,0c7.4,5.7,8.5,16.9,6.8,21.5l0,0c0.5,1.5,1.3,2.4,2.1,3
		C529.2,805.6,522.3,797.3,518.3,794z"/>
	<path class="st25" d="M531.4,796.7c-0.3-0.3-0.6-0.7-1-1c-5-4.1-9.5-3-12.1-1.7c3.9,3.3,10.9,11.6,6.5,26.1
		c2.5,1.7,5.5,0.2,5.5,0.2c0.5-0.5,1-1.5,1.6-2.7C534.3,812.5,536.5,802.3,531.4,796.7z"/>
	<path class="st25" d="M558.9,810.7c0.3-3.7-5.7-5.9-10.1-7c0,2.9-0.7,7.2-3.4,12.8C551.1,816.4,558.5,814.9,558.9,810.7z"/>
	<path class="st26" d="M546.1,803.1c0.5,3.9-1.5,9.3-4,13.3c1,0.1,2.1,0.1,3.4,0.1c2.7-5.6,3.4-9.8,3.4-12.8
		C547.8,803.5,546.8,803.3,546.1,803.1z"/>
	<path class="st25" d="M546.1,803.1c-0.2-1.3-0.6-2.5-1.5-3.3c-3.1-2.9-6.9-3.5-9.6-3.5c2.3,4.2,4.4,12.3-1.2,24.4
		c0.6,0.6,1.3,1,2.1,1.1c1.7,0.3,4.2-2.1,6.3-5.3C544.6,812.4,546.6,807,546.1,803.1z"/>
	<path class="st26" d="M535,796.3c-2.1,0-3.6,0.4-3.6,0.4c0,0,0,0,0,0c5.1,5.6,2.9,15.8,0.6,21c0.5,1.3,1,2.3,1.7,3
		C539.4,808.5,537.2,800.5,535,796.3z"/>
</g>
</svg>
